%TF.GenerationSoftware,KiCad,Pcbnew,7.0.10*%
%TF.CreationDate,2024-02-06T19:30:05-08:00*%
%TF.ProjectId,main_board,6d61696e-5f62-46f6-9172-642e6b696361,rev?*%
%TF.SameCoordinates,Original*%
%TF.FileFunction,Copper,L3,Inr*%
%TF.FilePolarity,Positive*%
%FSLAX46Y46*%
G04 Gerber Fmt 4.6, Leading zero omitted, Abs format (unit mm)*
G04 Created by KiCad (PCBNEW 7.0.10) date 2024-02-06 19:30:05*
%MOMM*%
%LPD*%
G01*
G04 APERTURE LIST*
%TA.AperFunction,NonConductor*%
%ADD10C,0.200000*%
%TD*%
%ADD11C,0.200000*%
%TA.AperFunction,ComponentPad*%
%ADD12O,1.000000X2.100000*%
%TD*%
%TA.AperFunction,ComponentPad*%
%ADD13O,1.000000X1.800000*%
%TD*%
%TA.AperFunction,ViaPad*%
%ADD14C,0.800000*%
%TD*%
%TA.AperFunction,Conductor*%
%ADD15C,0.700000*%
%TD*%
%TA.AperFunction,Conductor*%
%ADD16C,0.250000*%
%TD*%
%TA.AperFunction,Conductor*%
%ADD17C,0.500000*%
%TD*%
%TA.AperFunction,Conductor*%
%ADD18C,0.200000*%
%TD*%
G04 APERTURE END LIST*
D10*
X2900000Y5900000D02*
X1050000Y5900000D01*
X2900000Y8750000D02*
X1050000Y8750000D01*
X1050000Y10300000D02*
X2900000Y10300000D01*
X2900000Y4450000D01*
X1050000Y4450000D01*
X1050000Y10300000D01*
X2900000Y7375000D02*
X1050000Y7375000D01*
D11*
D10*
X1562457Y8227946D02*
X1514838Y8180327D01*
X1514838Y8180327D02*
X1467219Y8085089D01*
X1467219Y8085089D02*
X1467219Y7846994D01*
X1467219Y7846994D02*
X1514838Y7751756D01*
X1514838Y7751756D02*
X1562457Y7704137D01*
X1562457Y7704137D02*
X1657695Y7656518D01*
X1657695Y7656518D02*
X1752933Y7656518D01*
X1752933Y7656518D02*
X1895790Y7704137D01*
X1895790Y7704137D02*
X2467219Y8275565D01*
X2467219Y8275565D02*
X2467219Y7656518D01*
D12*
%TO.N,GND*%
%TO.C,J1*%
X36430000Y6800000D03*
D13*
X36430000Y2620000D03*
D12*
X45070000Y6800000D03*
D13*
X45070000Y2620000D03*
%TD*%
D14*
%TO.N,Net-(M1-ECG_L)*%
X66025000Y50475000D03*
%TO.N,Net-(M1-ECG_R)*%
X19800000Y50087500D03*
%TO.N,+BATT*%
X66600000Y28200000D03*
X28500000Y9300000D03*
X48800000Y17775000D03*
%TO.N,+5V*%
X53150000Y7750000D03*
X42375000Y5925000D03*
%TO.N,/USB_D-*%
X61722000Y21550000D03*
X39775500Y9075000D03*
X41224500Y9050000D03*
%TO.N,/USB_D+*%
X40511876Y9774500D03*
X60579000Y21524500D03*
%TO.N,Net-(BT1--)*%
X16686875Y5100000D03*
X11600000Y5100000D03*
%TO.N,GND*%
X32137500Y10212500D03*
X54375000Y20075000D03*
X79375000Y34375000D03*
X69025000Y14700000D03*
X79900000Y23000000D03*
X44550498Y11649502D03*
X39000000Y17275000D03*
X41000000Y13200500D03*
X36150000Y12200000D03*
X66525000Y26675000D03*
X70425000Y14700000D03*
X26400000Y10300000D03*
X29400000Y7100000D03*
X77450000Y18100000D03*
X31700000Y15200000D03*
X38515052Y15149500D03*
X77400000Y28475000D03*
X69025000Y13300000D03*
X26400000Y11300000D03*
X53800000Y17400000D03*
X70425000Y13300000D03*
X51800000Y11950000D03*
X58550000Y20950000D03*
X71700000Y18699500D03*
X29200000Y5000000D03*
X68225000Y24625000D03*
X36100000Y15149500D03*
X51800000Y13900000D03*
X57425000Y5525000D03*
X77978000Y1143000D03*
X83450000Y21800000D03*
%TO.N,GNDA*%
X24175000Y17650000D03*
X25100000Y17300000D03*
X23150000Y17325000D03*
X63400000Y32900000D03*
X63350000Y31800000D03*
X63300000Y30700000D03*
X64900000Y34400000D03*
%TO.N,/~{TOUCH}*%
X76200000Y4900000D03*
X83000000Y34000000D03*
%TO.N,/~{DISPLAY_CS}*%
X63150000Y18850000D03*
X44833372Y17926531D03*
%TO.N,/DISPLAY_D{slash}~{C}*%
X66225000Y18875000D03*
X42625118Y17815552D03*
%TO.N,/DISPLAY_SCK*%
X40768245Y18000000D03*
X67275000Y7775000D03*
%TO.N,/ECG_EN*%
X80800000Y34725000D03*
X73350000Y8800000D03*
%TO.N,/CHG_STAT*%
X30825000Y12025000D03*
X64850000Y5925000D03*
%TO.N,/VBUS_DETECT*%
X57842775Y6773982D03*
X74850000Y4500000D03*
%TO.N,/BATT_SCL*%
X54950000Y8875500D03*
X29321224Y2913999D03*
X62195000Y5450000D03*
%TO.N,/DISPLAY_MOSI*%
X40075000Y16675000D03*
X65450000Y7525000D03*
%TO.N,/EN*%
X49700000Y4350000D03*
X72950000Y18350000D03*
%TO.N,/ECG_CLK_EN*%
X82000000Y32600000D03*
X69550000Y5600000D03*
%TO.N,Net-(M1-RLD_OUT)*%
X20275000Y43100000D03*
%TO.N,/BATT_SDA*%
X62782500Y6757500D03*
X56499000Y9575000D03*
X29400000Y3939500D03*
%TO.N,VDD*%
X33000000Y4100000D03*
X35800000Y14137000D03*
X33910500Y8400000D03*
%TO.N,/ECG_CS*%
X70100000Y28500000D03*
X73025000Y25575000D03*
X67100000Y11350000D03*
%TO.N,/DISPLAY_RESET*%
X64735000Y18850000D03*
X43700000Y17924500D03*
%TD*%
D15*
%TO.N,+BATT*%
X34956497Y19800000D02*
X48800000Y19800000D01*
X66600000Y28200000D02*
X62700000Y28200000D01*
X62700000Y28200000D02*
X57175000Y22675000D01*
X28500000Y9300000D02*
X28500000Y13343503D01*
X48800000Y19800000D02*
X48800000Y19100000D01*
X28500000Y13343503D02*
X34956497Y19800000D01*
X57175000Y22675000D02*
X51675000Y22675000D01*
X48800000Y19100000D02*
X48800000Y17775000D01*
X51675000Y22675000D02*
X48800000Y19800000D01*
D16*
%TO.N,+5V*%
X53150000Y7750000D02*
X53150000Y7825000D01*
X50475000Y5150000D02*
X43150000Y5150000D01*
X43150000Y5150000D02*
X42375000Y5925000D01*
X53150000Y7825000D02*
X50475000Y5150000D01*
%TO.N,/USB_D-*%
X51825000Y9900000D02*
X55245000Y13320000D01*
X55245000Y15073000D02*
X61722000Y21550000D01*
X55245000Y13320000D02*
X55245000Y15073000D01*
X42074500Y9900000D02*
X51825000Y9900000D01*
X41224500Y9050000D02*
X39800500Y9050000D01*
X41224500Y9050000D02*
X42074500Y9900000D01*
X39800500Y9050000D02*
X39775500Y9075000D01*
%TO.N,/USB_D+*%
X51665536Y10765536D02*
X54610000Y13710000D01*
X54610000Y15555500D02*
X60579000Y21524500D01*
X54610000Y13710000D02*
X54610000Y15555500D01*
X41502912Y10765536D02*
X51665536Y10765536D01*
X40511876Y9774500D02*
X41502912Y10765536D01*
D17*
%TO.N,Net-(BT1--)*%
X16686875Y5100000D02*
X11600000Y5100000D01*
D16*
%TO.N,/~{TOUCH}*%
X83200000Y33800000D02*
X83000000Y34000000D01*
X76200000Y4900000D02*
X76200000Y20875305D01*
X76200000Y20875305D02*
X83200000Y27875305D01*
X83200000Y27875305D02*
X83200000Y33800000D01*
%TO.N,/ECG_EN*%
X80800000Y29500000D02*
X80800000Y34725000D01*
X74150000Y9600000D02*
X74150000Y22850000D01*
X73350000Y8800000D02*
X74150000Y9600000D01*
X74150000Y22850000D02*
X80800000Y29500000D01*
D18*
%TO.N,/BATT_SCL*%
X54950000Y8875500D02*
X55425500Y8400000D01*
X55425500Y8400000D02*
X59245000Y8400000D01*
X59245000Y8400000D02*
X62195000Y5450000D01*
D16*
%TO.N,/EN*%
X72950000Y18350000D02*
X72950000Y10950000D01*
X66175000Y4175000D02*
X49875000Y4175000D01*
X49875000Y4175000D02*
X49700000Y4350000D01*
X72950000Y10950000D02*
X66175000Y4175000D01*
%TO.N,/ECG_CLK_EN*%
X75225000Y21800000D02*
X82000000Y28575000D01*
X75225000Y8525000D02*
X75225000Y21800000D01*
X82000000Y28575000D02*
X82000000Y32600000D01*
X69550000Y5600000D02*
X69600000Y5650000D01*
X72350000Y5650000D02*
X75225000Y8525000D01*
X69600000Y5650000D02*
X72350000Y5650000D01*
D18*
%TO.N,/BATT_SDA*%
X56499000Y9575000D02*
X59965000Y9575000D01*
X59965000Y9575000D02*
X62782500Y6757500D01*
D16*
%TO.N,/ECG_CS*%
X67600000Y11850000D02*
X67600000Y20150000D01*
X73025000Y25575000D02*
X70100000Y28500000D01*
X67100000Y11350000D02*
X67600000Y11850000D01*
X67600000Y20150000D02*
X73025000Y25575000D01*
%TD*%
%TA.AperFunction,Conductor*%
%TO.N,GND*%
G36*
X80155354Y34825593D02*
G01*
X80191318Y34776093D01*
X80195315Y34732579D01*
X80194318Y34725000D01*
X80194318Y34724998D01*
X80214955Y34568242D01*
X80214957Y34568234D01*
X80275462Y34422162D01*
X80275462Y34422161D01*
X80367020Y34302840D01*
X80371718Y34296718D01*
X80371722Y34296715D01*
X80435767Y34247572D01*
X80470423Y34197148D01*
X80474500Y34169030D01*
X80474500Y29675835D01*
X80455593Y29617644D01*
X80445504Y29605831D01*
X73932940Y23093268D01*
X73926574Y23087436D01*
X73896807Y23062458D01*
X73896805Y23062456D01*
X73877371Y23028795D01*
X73872740Y23021525D01*
X73850446Y22989684D01*
X73850446Y22989683D01*
X73850442Y22989676D01*
X73850051Y22988214D01*
X73840170Y22964360D01*
X73839414Y22963052D01*
X73839410Y22963040D01*
X73832662Y22924777D01*
X73830794Y22916351D01*
X73820736Y22878813D01*
X73820736Y22878806D01*
X73824123Y22840096D01*
X73824500Y22831467D01*
X73824500Y9775834D01*
X73805593Y9717643D01*
X73795503Y9705830D01*
X73512966Y9423294D01*
X73458450Y9395517D01*
X73430041Y9395145D01*
X73350001Y9405682D01*
X73349999Y9405682D01*
X73193241Y9385045D01*
X73193233Y9385043D01*
X73047161Y9324538D01*
X73047160Y9324538D01*
X72921723Y9228287D01*
X72921719Y9228284D01*
X72921718Y9228282D01*
X72921715Y9228278D01*
X72825462Y9102840D01*
X72825462Y9102839D01*
X72764957Y8956767D01*
X72764955Y8956759D01*
X72744318Y8800001D01*
X72744318Y8800000D01*
X72764955Y8643242D01*
X72764957Y8643234D01*
X72825462Y8497162D01*
X72825462Y8497161D01*
X72921713Y8371724D01*
X72921718Y8371718D01*
X72921722Y8371715D01*
X72921723Y8371714D01*
X72936932Y8360044D01*
X73047159Y8275464D01*
X73047160Y8275464D01*
X73047161Y8275463D01*
X73175812Y8222174D01*
X73193238Y8214956D01*
X73310809Y8199478D01*
X73349999Y8194318D01*
X73350000Y8194318D01*
X73350001Y8194318D01*
X73381352Y8198446D01*
X73506762Y8214956D01*
X73652841Y8275464D01*
X73778282Y8371718D01*
X73874536Y8497159D01*
X73935044Y8643238D01*
X73955682Y8800000D01*
X73945143Y8880044D01*
X73956292Y8940201D01*
X73973289Y8962965D01*
X74367066Y9356742D01*
X74373425Y9362567D01*
X74391626Y9377839D01*
X74403194Y9387545D01*
X74422635Y9421221D01*
X74427251Y9428467D01*
X74449554Y9460316D01*
X74449942Y9461764D01*
X74459838Y9485655D01*
X74460588Y9486955D01*
X74467334Y9525216D01*
X74469204Y9533652D01*
X74479264Y9571193D01*
X74475877Y9609909D01*
X74475500Y9618537D01*
X74475500Y22674166D01*
X74494407Y22732357D01*
X74504496Y22744170D01*
X77698668Y25938342D01*
X81017072Y29256747D01*
X81023431Y29262572D01*
X81053194Y29287545D01*
X81072624Y29321201D01*
X81077252Y29328468D01*
X81099554Y29360316D01*
X81099942Y29361764D01*
X81109838Y29385655D01*
X81110586Y29386952D01*
X81110585Y29386952D01*
X81110588Y29386955D01*
X81117341Y29425257D01*
X81119198Y29433634D01*
X81129263Y29471193D01*
X81125877Y29509898D01*
X81125500Y29518526D01*
X81125500Y34169030D01*
X81144407Y34227221D01*
X81164233Y34247572D01*
X81228282Y34296718D01*
X81324536Y34422159D01*
X81385044Y34568238D01*
X81405682Y34725000D01*
X81404684Y34732578D01*
X81415833Y34792736D01*
X81460214Y34834855D01*
X81502837Y34844500D01*
X84500500Y34844500D01*
X84558691Y34825593D01*
X84594655Y34776093D01*
X84599500Y34745500D01*
X84599500Y20399000D01*
X84580593Y20340809D01*
X84531093Y20304845D01*
X84500500Y20300000D01*
X78925000Y20300000D01*
X78925000Y20299999D01*
X78925000Y499500D01*
X78906093Y441309D01*
X78856593Y405345D01*
X78826000Y400500D01*
X2003540Y400500D01*
X1996477Y400752D01*
X1779430Y416276D01*
X1765449Y418286D01*
X1556284Y463787D01*
X1542731Y467767D01*
X1342174Y542571D01*
X1329334Y548435D01*
X1141458Y651023D01*
X1129582Y658655D01*
X958218Y786937D01*
X947543Y796186D01*
X796185Y947544D01*
X786936Y958219D01*
X658654Y1129583D01*
X651024Y1141455D01*
X548431Y1329341D01*
X542574Y1342167D01*
X467764Y1542739D01*
X463788Y1556279D01*
X418283Y1765460D01*
X416276Y1779423D01*
X400752Y1996478D01*
X400500Y2003540D01*
X400500Y2177649D01*
X35730000Y2177649D01*
X35745348Y2051252D01*
X35745351Y2051242D01*
X35805626Y1892310D01*
X35805628Y1892307D01*
X35902194Y1752406D01*
X35902199Y1752400D01*
X36029431Y1639682D01*
X36179952Y1560683D01*
X36179955Y1560682D01*
X36329999Y1523699D01*
X36330000Y1523699D01*
X36330000Y1936546D01*
X36401840Y1916105D01*
X36513521Y1926454D01*
X36530000Y1934660D01*
X36530000Y1523699D01*
X36680044Y1560682D01*
X36680047Y1560683D01*
X36830568Y1639682D01*
X36830569Y1639682D01*
X36957800Y1752400D01*
X36957805Y1752406D01*
X37054371Y1892307D01*
X37054373Y1892310D01*
X37114648Y2051242D01*
X37114651Y2051252D01*
X37129999Y2177649D01*
X44370000Y2177649D01*
X44385348Y2051252D01*
X44385351Y2051242D01*
X44445626Y1892310D01*
X44445628Y1892307D01*
X44542194Y1752406D01*
X44542199Y1752400D01*
X44669431Y1639682D01*
X44819952Y1560683D01*
X44819955Y1560682D01*
X44969999Y1523699D01*
X44970000Y1523699D01*
X44970000Y1936546D01*
X45041840Y1916105D01*
X45153521Y1926454D01*
X45170000Y1934660D01*
X45170000Y1523699D01*
X45320044Y1560682D01*
X45320047Y1560683D01*
X45470568Y1639682D01*
X45470569Y1639682D01*
X45597800Y1752400D01*
X45597805Y1752406D01*
X45694371Y1892307D01*
X45694373Y1892310D01*
X45754648Y2051242D01*
X45754651Y2051252D01*
X45769999Y2177649D01*
X45770000Y2177666D01*
X45770000Y2519999D01*
X45769999Y2520000D01*
X45370000Y2520000D01*
X45370000Y2720000D01*
X45769999Y2720000D01*
X45770000Y2720001D01*
X45770000Y3062335D01*
X45769999Y3062352D01*
X45754651Y3188749D01*
X45754648Y3188759D01*
X45694373Y3347691D01*
X45694371Y3347694D01*
X45597805Y3487595D01*
X45597800Y3487601D01*
X45470568Y3600319D01*
X45320046Y3679318D01*
X45170000Y3716302D01*
X45170000Y3303455D01*
X45098160Y3323895D01*
X44986479Y3313546D01*
X44970000Y3305341D01*
X44970000Y3716302D01*
X44819953Y3679318D01*
X44819952Y3679318D01*
X44669431Y3600319D01*
X44669430Y3600319D01*
X44542199Y3487601D01*
X44542194Y3487595D01*
X44445628Y3347694D01*
X44445626Y3347691D01*
X44385351Y3188759D01*
X44385348Y3188749D01*
X44370000Y3062352D01*
X44370000Y2720001D01*
X44370001Y2720000D01*
X44770000Y2720000D01*
X44770000Y2520000D01*
X44370001Y2520000D01*
X44370000Y2519999D01*
X44370000Y2177649D01*
X37129999Y2177649D01*
X37130000Y2177666D01*
X37130000Y2519999D01*
X37129999Y2520000D01*
X36730000Y2520000D01*
X36730000Y2720000D01*
X37129999Y2720000D01*
X37130000Y2720001D01*
X37130000Y3062335D01*
X37129999Y3062352D01*
X37114651Y3188749D01*
X37114648Y3188759D01*
X37054373Y3347691D01*
X37054371Y3347694D01*
X36957805Y3487595D01*
X36957800Y3487601D01*
X36830568Y3600319D01*
X36680046Y3679318D01*
X36530000Y3716302D01*
X36530000Y3303455D01*
X36458160Y3323895D01*
X36346479Y3313546D01*
X36330000Y3305341D01*
X36330000Y3716302D01*
X36179953Y3679318D01*
X36179952Y3679318D01*
X36029431Y3600319D01*
X36029430Y3600319D01*
X35902199Y3487601D01*
X35902194Y3487595D01*
X35805628Y3347694D01*
X35805626Y3347691D01*
X35745351Y3188759D01*
X35745348Y3188749D01*
X35730000Y3062352D01*
X35730000Y2720001D01*
X35730001Y2720000D01*
X36130000Y2720000D01*
X36130000Y2520000D01*
X35730001Y2520000D01*
X35730000Y2519999D01*
X35730000Y2177649D01*
X400500Y2177649D01*
X400500Y2913999D01*
X28715542Y2913999D01*
X28736179Y2757241D01*
X28736181Y2757233D01*
X28796686Y2611161D01*
X28796686Y2611160D01*
X28892937Y2485723D01*
X28892942Y2485717D01*
X29018383Y2389463D01*
X29164462Y2328955D01*
X29282033Y2313477D01*
X29321223Y2308317D01*
X29321224Y2308317D01*
X29321225Y2308317D01*
X29352576Y2312445D01*
X29477986Y2328955D01*
X29624065Y2389463D01*
X29749506Y2485717D01*
X29845760Y2611158D01*
X29906268Y2757237D01*
X29926906Y2913999D01*
X29906268Y3070761D01*
X29845761Y3216838D01*
X29845761Y3216839D01*
X29757376Y3332025D01*
X29736952Y3389701D01*
X29754330Y3448367D01*
X29775647Y3470831D01*
X29828282Y3511218D01*
X29924536Y3636659D01*
X29985044Y3782738D01*
X30005682Y3939500D01*
X30005190Y3943234D01*
X29991134Y4050001D01*
X29985044Y4096262D01*
X29983496Y4100000D01*
X32394318Y4100000D01*
X32414955Y3943242D01*
X32414957Y3943234D01*
X32475462Y3797162D01*
X32475462Y3797161D01*
X32565886Y3679318D01*
X32571718Y3671718D01*
X32697159Y3575464D01*
X32843238Y3514956D01*
X32960809Y3499478D01*
X32999999Y3494318D01*
X33000000Y3494318D01*
X33000001Y3494318D01*
X33031352Y3498446D01*
X33156762Y3514956D01*
X33302841Y3575464D01*
X33428282Y3671718D01*
X33524536Y3797159D01*
X33585044Y3943238D01*
X33605682Y4100000D01*
X33585044Y4256762D01*
X33549226Y4343234D01*
X33524537Y4402839D01*
X33524537Y4402840D01*
X33428286Y4528277D01*
X33428285Y4528278D01*
X33428282Y4528282D01*
X33428277Y4528286D01*
X33428276Y4528287D01*
X33338517Y4597161D01*
X33302841Y4624536D01*
X33302840Y4624537D01*
X33302838Y4624538D01*
X33156766Y4685043D01*
X33156758Y4685045D01*
X33000001Y4705682D01*
X32999999Y4705682D01*
X32843241Y4685045D01*
X32843233Y4685043D01*
X32697161Y4624538D01*
X32697160Y4624538D01*
X32571723Y4528287D01*
X32571713Y4528277D01*
X32475462Y4402840D01*
X32475462Y4402839D01*
X32414957Y4256767D01*
X32414955Y4256759D01*
X32394318Y4100001D01*
X32394318Y4100000D01*
X29983496Y4100000D01*
X29924537Y4242339D01*
X29924537Y4242340D01*
X29828286Y4367777D01*
X29828285Y4367778D01*
X29828282Y4367782D01*
X29828277Y4367786D01*
X29828276Y4367787D01*
X29702838Y4464038D01*
X29556766Y4524543D01*
X29556758Y4524545D01*
X29400001Y4545182D01*
X29399999Y4545182D01*
X29243241Y4524545D01*
X29243233Y4524543D01*
X29097161Y4464038D01*
X29097160Y4464038D01*
X28971723Y4367787D01*
X28971713Y4367777D01*
X28875462Y4242340D01*
X28875462Y4242339D01*
X28814957Y4096267D01*
X28814955Y4096259D01*
X28794318Y3939501D01*
X28794318Y3939500D01*
X28814955Y3782742D01*
X28814957Y3782734D01*
X28875462Y3636662D01*
X28875462Y3636661D01*
X28963847Y3521475D01*
X28984271Y3463799D01*
X28966893Y3405133D01*
X28945573Y3382666D01*
X28892944Y3342283D01*
X28892937Y3342276D01*
X28796686Y3216839D01*
X28796686Y3216838D01*
X28736181Y3070766D01*
X28736179Y3070758D01*
X28715542Y2914000D01*
X28715542Y2913999D01*
X400500Y2913999D01*
X400500Y10750000D01*
X650000Y10750000D01*
X650000Y4050000D01*
X650001Y4050000D01*
X3299999Y4050000D01*
X3300000Y4050000D01*
X3300000Y5100000D01*
X10994318Y5100000D01*
X11014955Y4943242D01*
X11014957Y4943234D01*
X11075462Y4797162D01*
X11075462Y4797161D01*
X11161493Y4685043D01*
X11171718Y4671718D01*
X11297159Y4575464D01*
X11297160Y4575464D01*
X11297161Y4575463D01*
X11420093Y4524543D01*
X11443238Y4514956D01*
X11543784Y4501719D01*
X11599999Y4494318D01*
X11600000Y4494318D01*
X11600001Y4494318D01*
X11656216Y4501719D01*
X11756762Y4514956D01*
X11902841Y4575464D01*
X11972665Y4629043D01*
X12030341Y4649466D01*
X12032932Y4649500D01*
X16253943Y4649500D01*
X16312134Y4630593D01*
X16314190Y4629057D01*
X16384034Y4575464D01*
X16384035Y4575464D01*
X16384036Y4575463D01*
X16506968Y4524543D01*
X16530113Y4514956D01*
X16630659Y4501719D01*
X16686874Y4494318D01*
X16686875Y4494318D01*
X16686876Y4494318D01*
X16743091Y4501719D01*
X16843637Y4514956D01*
X16989716Y4575464D01*
X17115157Y4671718D01*
X17211411Y4797159D01*
X17271919Y4943238D01*
X17292557Y5100000D01*
X17271919Y5256762D01*
X17256810Y5293238D01*
X17211412Y5402839D01*
X17211412Y5402840D01*
X17115161Y5528277D01*
X17115160Y5528278D01*
X17115157Y5528282D01*
X17115152Y5528286D01*
X17115151Y5528287D01*
X17035124Y5589693D01*
X16989716Y5624536D01*
X16989715Y5624537D01*
X16989713Y5624538D01*
X16843641Y5685043D01*
X16843633Y5685045D01*
X16686876Y5705682D01*
X16686874Y5705682D01*
X16530116Y5685045D01*
X16530108Y5685043D01*
X16384036Y5624538D01*
X16360877Y5606767D01*
X16314209Y5570958D01*
X16256534Y5550534D01*
X16253943Y5550500D01*
X12032932Y5550500D01*
X11974741Y5569407D01*
X11972684Y5570944D01*
X11902841Y5624536D01*
X11902840Y5624537D01*
X11902838Y5624538D01*
X11756766Y5685043D01*
X11756758Y5685045D01*
X11600001Y5705682D01*
X11599999Y5705682D01*
X11443241Y5685045D01*
X11443233Y5685043D01*
X11297161Y5624538D01*
X11297160Y5624538D01*
X11171723Y5528287D01*
X11171713Y5528277D01*
X11075462Y5402840D01*
X11075462Y5402839D01*
X11014957Y5256767D01*
X11014955Y5256759D01*
X10994318Y5100001D01*
X10994318Y5100000D01*
X3300000Y5100000D01*
X3300000Y6207649D01*
X35730000Y6207649D01*
X35745348Y6081252D01*
X35745351Y6081242D01*
X35805626Y5922310D01*
X35805628Y5922307D01*
X35902194Y5782406D01*
X35902199Y5782400D01*
X36029431Y5669682D01*
X36179952Y5590683D01*
X36179955Y5590682D01*
X36329999Y5553699D01*
X36330000Y5553699D01*
X36330000Y5966546D01*
X36401840Y5946105D01*
X36513521Y5956454D01*
X36530000Y5964660D01*
X36530000Y5553699D01*
X36680044Y5590682D01*
X36680047Y5590683D01*
X36830568Y5669682D01*
X36830569Y5669682D01*
X36957800Y5782400D01*
X36957805Y5782406D01*
X37054371Y5922307D01*
X37054373Y5922310D01*
X37114648Y6081242D01*
X37114651Y6081252D01*
X37129999Y6207649D01*
X37130000Y6207666D01*
X37130000Y6263801D01*
X37330796Y6263801D01*
X37360184Y6122372D01*
X37360186Y6122364D01*
X37426644Y5994108D01*
X37426646Y5994105D01*
X37525245Y5888531D01*
X37648672Y5813474D01*
X37787772Y5774500D01*
X37787773Y5774500D01*
X37895943Y5774500D01*
X37895949Y5774500D01*
X38003111Y5789229D01*
X38135609Y5846781D01*
X38231752Y5925000D01*
X41769318Y5925000D01*
X41789955Y5768242D01*
X41789957Y5768234D01*
X41850462Y5622162D01*
X41850462Y5622161D01*
X41941394Y5503656D01*
X41946718Y5496718D01*
X42072159Y5400464D01*
X42072160Y5400464D01*
X42072161Y5400463D01*
X42217741Y5340162D01*
X42218238Y5339956D01*
X42375000Y5319318D01*
X42455041Y5329857D01*
X42515199Y5318708D01*
X42537966Y5301708D01*
X42906730Y4932944D01*
X42912564Y4926577D01*
X42937545Y4896806D01*
X42971209Y4877370D01*
X42978482Y4872736D01*
X42999173Y4858248D01*
X43010316Y4850446D01*
X43010318Y4850446D01*
X43010319Y4850445D01*
X43011771Y4850056D01*
X43035651Y4840165D01*
X43036955Y4839412D01*
X43069501Y4833674D01*
X43075216Y4832666D01*
X43083651Y4830796D01*
X43096535Y4827344D01*
X43121194Y4820736D01*
X43159910Y4824123D01*
X43168538Y4824500D01*
X49106431Y4824500D01*
X49164622Y4805593D01*
X49200586Y4756093D01*
X49200586Y4694907D01*
X49184975Y4665237D01*
X49175464Y4652841D01*
X49175461Y4652837D01*
X49114957Y4506767D01*
X49114955Y4506759D01*
X49094318Y4350001D01*
X49094318Y4350000D01*
X49114955Y4193242D01*
X49114957Y4193234D01*
X49175462Y4047162D01*
X49175462Y4047161D01*
X49271650Y3921806D01*
X49271718Y3921718D01*
X49397159Y3825464D01*
X49397160Y3825464D01*
X49397161Y3825463D01*
X49500318Y3782734D01*
X49543238Y3764956D01*
X49660809Y3749478D01*
X49699999Y3744318D01*
X49700000Y3744318D01*
X49700001Y3744318D01*
X49731352Y3748446D01*
X49856762Y3764956D01*
X50002841Y3825464D01*
X50004118Y3826445D01*
X50007506Y3829043D01*
X50065182Y3849466D01*
X50067772Y3849500D01*
X66156466Y3849500D01*
X66165094Y3849124D01*
X66203807Y3845736D01*
X66241354Y3855798D01*
X66249784Y3857666D01*
X66288045Y3864412D01*
X66289345Y3865162D01*
X66313236Y3875058D01*
X66313464Y3875120D01*
X66314684Y3875446D01*
X66346533Y3897749D01*
X66353779Y3902365D01*
X66387455Y3921806D01*
X66412443Y3951587D01*
X66418254Y3957930D01*
X66960324Y4500000D01*
X74244318Y4500000D01*
X74264955Y4343242D01*
X74264957Y4343234D01*
X74325462Y4197162D01*
X74325462Y4197161D01*
X74402887Y4096259D01*
X74421718Y4071718D01*
X74547159Y3975464D01*
X74547160Y3975464D01*
X74547161Y3975463D01*
X74676913Y3921718D01*
X74693238Y3914956D01*
X74788801Y3902375D01*
X74849999Y3894318D01*
X74850000Y3894318D01*
X74850001Y3894318D01*
X74894777Y3900213D01*
X75006762Y3914956D01*
X75152841Y3975464D01*
X75278282Y4071718D01*
X75374536Y4197159D01*
X75435044Y4343238D01*
X75455682Y4500000D01*
X75435044Y4656762D01*
X75414781Y4705682D01*
X75374537Y4802839D01*
X75374537Y4802840D01*
X75299984Y4900000D01*
X75594318Y4900000D01*
X75614955Y4743242D01*
X75614957Y4743234D01*
X75675462Y4597162D01*
X75675462Y4597161D01*
X75754376Y4494318D01*
X75771718Y4471718D01*
X75897159Y4375464D01*
X75897160Y4375464D01*
X75897161Y4375463D01*
X75974959Y4343238D01*
X76043238Y4314956D01*
X76160809Y4299478D01*
X76199999Y4294318D01*
X76200000Y4294318D01*
X76200001Y4294318D01*
X76231352Y4298446D01*
X76356762Y4314956D01*
X76502841Y4375464D01*
X76628282Y4471718D01*
X76724536Y4597159D01*
X76785044Y4743238D01*
X76805682Y4900000D01*
X76785044Y5056762D01*
X76747600Y5147159D01*
X76724537Y5202839D01*
X76724537Y5202840D01*
X76635160Y5319318D01*
X76628282Y5328282D01*
X76628281Y5328283D01*
X76564232Y5377430D01*
X76529577Y5427855D01*
X76525500Y5455972D01*
X76525500Y20699472D01*
X76544407Y20757663D01*
X76554490Y20769470D01*
X83417066Y27632047D01*
X83423425Y27637872D01*
X83428302Y27641964D01*
X83453194Y27662850D01*
X83472635Y27696526D01*
X83477251Y27703772D01*
X83499554Y27735621D01*
X83499942Y27737069D01*
X83509838Y27760960D01*
X83510588Y27762260D01*
X83517334Y27800521D01*
X83519204Y27808957D01*
X83529264Y27846499D01*
X83525877Y27885211D01*
X83525500Y27893840D01*
X83525500Y33679795D01*
X83533036Y33717681D01*
X83585042Y33843234D01*
X83585044Y33843238D01*
X83605682Y34000000D01*
X83585044Y34156762D01*
X83547429Y34247572D01*
X83524537Y34302839D01*
X83524537Y34302840D01*
X83428286Y34428277D01*
X83428285Y34428278D01*
X83428282Y34428282D01*
X83428277Y34428286D01*
X83428276Y34428287D01*
X83302838Y34524538D01*
X83156766Y34585043D01*
X83156758Y34585045D01*
X83000001Y34605682D01*
X82999999Y34605682D01*
X82843241Y34585045D01*
X82843233Y34585043D01*
X82697161Y34524538D01*
X82697160Y34524538D01*
X82571723Y34428287D01*
X82571713Y34428277D01*
X82475462Y34302840D01*
X82475462Y34302839D01*
X82414957Y34156767D01*
X82414955Y34156759D01*
X82394318Y34000001D01*
X82394318Y34000000D01*
X82414955Y33843242D01*
X82414957Y33843234D01*
X82475462Y33697162D01*
X82475462Y33697161D01*
X82571713Y33571724D01*
X82571718Y33571718D01*
X82697159Y33475464D01*
X82813386Y33427322D01*
X82859911Y33387586D01*
X82874500Y33335858D01*
X82874500Y28051140D01*
X82855593Y27992949D01*
X82845504Y27981136D01*
X75982940Y21118573D01*
X75976574Y21112741D01*
X75946807Y21087763D01*
X75946805Y21087761D01*
X75927371Y21054100D01*
X75922740Y21046830D01*
X75900446Y21014989D01*
X75900446Y21014988D01*
X75900442Y21014981D01*
X75900051Y21013519D01*
X75890170Y20989665D01*
X75889414Y20988357D01*
X75889410Y20988345D01*
X75882662Y20950082D01*
X75880794Y20941656D01*
X75870736Y20904118D01*
X75870736Y20904111D01*
X75874123Y20865401D01*
X75874500Y20856772D01*
X75874500Y5455972D01*
X75855593Y5397781D01*
X75835768Y5377430D01*
X75771718Y5328283D01*
X75675462Y5202840D01*
X75675462Y5202839D01*
X75614957Y5056767D01*
X75614955Y5056759D01*
X75594318Y4900001D01*
X75594318Y4900000D01*
X75299984Y4900000D01*
X75278286Y4928277D01*
X75278285Y4928278D01*
X75278282Y4928282D01*
X75278277Y4928286D01*
X75278276Y4928287D01*
X75165323Y5014958D01*
X75152841Y5024536D01*
X75152840Y5024537D01*
X75152838Y5024538D01*
X75006766Y5085043D01*
X75006758Y5085045D01*
X74850001Y5105682D01*
X74849999Y5105682D01*
X74693241Y5085045D01*
X74693233Y5085043D01*
X74547161Y5024538D01*
X74547160Y5024538D01*
X74421723Y4928287D01*
X74421713Y4928277D01*
X74325462Y4802840D01*
X74325462Y4802839D01*
X74264957Y4656767D01*
X74264955Y4656759D01*
X74244318Y4500001D01*
X74244318Y4500000D01*
X66960324Y4500000D01*
X68060324Y5600000D01*
X68944318Y5600000D01*
X68964955Y5443242D01*
X68964957Y5443234D01*
X69025462Y5297162D01*
X69025462Y5297161D01*
X69097837Y5202840D01*
X69121718Y5171718D01*
X69247159Y5075464D01*
X69247160Y5075464D01*
X69247161Y5075463D01*
X69376913Y5021718D01*
X69393238Y5014956D01*
X69510809Y4999478D01*
X69549999Y4994318D01*
X69550000Y4994318D01*
X69550001Y4994318D01*
X69581352Y4998446D01*
X69706762Y5014956D01*
X69852841Y5075464D01*
X69978282Y5171718D01*
X70065795Y5285768D01*
X70116218Y5320423D01*
X70144336Y5324500D01*
X72331466Y5324500D01*
X72340094Y5324124D01*
X72378807Y5320736D01*
X72416354Y5330798D01*
X72424784Y5332666D01*
X72463045Y5339412D01*
X72464345Y5340162D01*
X72488236Y5350058D01*
X72488464Y5350120D01*
X72489684Y5350446D01*
X72521533Y5372749D01*
X72528779Y5377365D01*
X72562455Y5396806D01*
X72587443Y5426587D01*
X72593254Y5432930D01*
X75442066Y8281742D01*
X75448425Y8287567D01*
X75451868Y8290456D01*
X75478194Y8312545D01*
X75497635Y8346221D01*
X75502251Y8353467D01*
X75524554Y8385316D01*
X75524942Y8386764D01*
X75534838Y8410655D01*
X75535588Y8411955D01*
X75541805Y8447218D01*
X75542334Y8450218D01*
X75544204Y8458652D01*
X75545894Y8464956D01*
X75554264Y8496193D01*
X75554179Y8497159D01*
X75550877Y8534906D01*
X75550500Y8543535D01*
X75550500Y21624167D01*
X75569407Y21682358D01*
X75579490Y21694165D01*
X82217066Y28331742D01*
X82223425Y28337567D01*
X82230184Y28343238D01*
X82253194Y28362545D01*
X82272635Y28396221D01*
X82277251Y28403467D01*
X82299554Y28435316D01*
X82299942Y28436764D01*
X82309838Y28460655D01*
X82310588Y28461955D01*
X82317334Y28500216D01*
X82319204Y28508652D01*
X82329264Y28546193D01*
X82325877Y28584909D01*
X82325500Y28593537D01*
X82325500Y32044030D01*
X82344407Y32102221D01*
X82364233Y32122572D01*
X82428282Y32171718D01*
X82524536Y32297159D01*
X82585044Y32443238D01*
X82605682Y32600000D01*
X82585044Y32756762D01*
X82524537Y32902839D01*
X82524537Y32902840D01*
X82428286Y33028277D01*
X82428285Y33028278D01*
X82428282Y33028282D01*
X82428277Y33028286D01*
X82428276Y33028287D01*
X82302838Y33124538D01*
X82156766Y33185043D01*
X82156758Y33185045D01*
X82000001Y33205682D01*
X81999999Y33205682D01*
X81843241Y33185045D01*
X81843233Y33185043D01*
X81697161Y33124538D01*
X81697160Y33124538D01*
X81571723Y33028287D01*
X81571713Y33028277D01*
X81475462Y32902840D01*
X81475462Y32902839D01*
X81414957Y32756767D01*
X81414955Y32756759D01*
X81394318Y32600001D01*
X81394318Y32600000D01*
X81414955Y32443242D01*
X81414957Y32443234D01*
X81475462Y32297162D01*
X81475462Y32297161D01*
X81475464Y32297159D01*
X81571718Y32171718D01*
X81571722Y32171715D01*
X81635767Y32122572D01*
X81670423Y32072148D01*
X81674500Y32044030D01*
X81674500Y28750835D01*
X81655593Y28692644D01*
X81645504Y28680831D01*
X75007940Y22043268D01*
X75001574Y22037436D01*
X74971807Y22012458D01*
X74971805Y22012456D01*
X74952371Y21978795D01*
X74947740Y21971525D01*
X74925446Y21939684D01*
X74925446Y21939683D01*
X74925442Y21939676D01*
X74925051Y21938214D01*
X74915170Y21914360D01*
X74914414Y21913052D01*
X74914410Y21913040D01*
X74907662Y21874777D01*
X74905794Y21866351D01*
X74895736Y21828813D01*
X74895736Y21828806D01*
X74899123Y21790096D01*
X74899500Y21781467D01*
X74899500Y8700834D01*
X74880593Y8642643D01*
X74870504Y8630830D01*
X72244170Y6004496D01*
X72189653Y5976719D01*
X72174166Y5975500D01*
X70067604Y5975500D01*
X70009413Y5994407D01*
X69989061Y6014234D01*
X69978284Y6028279D01*
X69978282Y6028282D01*
X69978277Y6028286D01*
X69978276Y6028287D01*
X69883529Y6100988D01*
X69852841Y6124536D01*
X69852840Y6124537D01*
X69852838Y6124538D01*
X69706766Y6185043D01*
X69706758Y6185045D01*
X69550001Y6205682D01*
X69549999Y6205682D01*
X69393241Y6185045D01*
X69393233Y6185043D01*
X69247161Y6124538D01*
X69247160Y6124538D01*
X69121723Y6028287D01*
X69121713Y6028277D01*
X69025462Y5902840D01*
X69025462Y5902839D01*
X68964957Y5756767D01*
X68964955Y5756759D01*
X68944318Y5600001D01*
X68944318Y5600000D01*
X68060324Y5600000D01*
X73167066Y10706742D01*
X73173425Y10712567D01*
X73203194Y10737545D01*
X73222635Y10771221D01*
X73227251Y10778467D01*
X73249554Y10810316D01*
X73249942Y10811764D01*
X73259838Y10835655D01*
X73260588Y10836955D01*
X73267334Y10875216D01*
X73269204Y10883652D01*
X73279264Y10921193D01*
X73279218Y10921714D01*
X73275877Y10959909D01*
X73275500Y10968537D01*
X73275500Y17794030D01*
X73294407Y17852221D01*
X73314233Y17872572D01*
X73378282Y17921718D01*
X73474536Y18047159D01*
X73535044Y18193238D01*
X73555682Y18350000D01*
X73535044Y18506762D01*
X73507955Y18572161D01*
X73474537Y18652839D01*
X73474537Y18652840D01*
X73378286Y18778277D01*
X73378285Y18778278D01*
X73378282Y18778282D01*
X73378277Y18778286D01*
X73378276Y18778287D01*
X73252838Y18874538D01*
X73106766Y18935043D01*
X73106758Y18935045D01*
X72950001Y18955682D01*
X72949999Y18955682D01*
X72793241Y18935045D01*
X72793233Y18935043D01*
X72647161Y18874538D01*
X72647160Y18874538D01*
X72521723Y18778287D01*
X72521713Y18778277D01*
X72425462Y18652840D01*
X72425462Y18652839D01*
X72364957Y18506767D01*
X72364955Y18506759D01*
X72344318Y18350001D01*
X72344318Y18350000D01*
X72364955Y18193242D01*
X72364957Y18193234D01*
X72425462Y18047162D01*
X72425462Y18047161D01*
X72521713Y17921724D01*
X72521718Y17921718D01*
X72521722Y17921715D01*
X72585767Y17872572D01*
X72620423Y17822148D01*
X72624500Y17794030D01*
X72624500Y11125834D01*
X72605593Y11067643D01*
X72595504Y11055830D01*
X66069170Y4529496D01*
X66014653Y4501719D01*
X65999166Y4500500D01*
X50353788Y4500500D01*
X50295597Y4519407D01*
X50262324Y4561614D01*
X50236260Y4624536D01*
X50224536Y4652841D01*
X50215026Y4665235D01*
X50194603Y4722908D01*
X50211980Y4781574D01*
X50260522Y4818821D01*
X50293569Y4824500D01*
X50456466Y4824500D01*
X50465094Y4824124D01*
X50503807Y4820736D01*
X50541354Y4830798D01*
X50549784Y4832666D01*
X50588045Y4839412D01*
X50589345Y4840162D01*
X50613236Y4850058D01*
X50613464Y4850120D01*
X50614684Y4850446D01*
X50646533Y4872749D01*
X50653779Y4877365D01*
X50687455Y4896806D01*
X50712443Y4926587D01*
X50718254Y4932930D01*
X52559307Y6773982D01*
X57237093Y6773982D01*
X57257730Y6617224D01*
X57257732Y6617216D01*
X57318237Y6471144D01*
X57318237Y6471143D01*
X57366749Y6407921D01*
X57414493Y6345700D01*
X57539934Y6249446D01*
X57539935Y6249446D01*
X57539936Y6249445D01*
X57645589Y6205682D01*
X57686013Y6188938D01*
X57803584Y6173460D01*
X57842774Y6168300D01*
X57842775Y6168300D01*
X57842776Y6168300D01*
X57874358Y6172458D01*
X57999537Y6188938D01*
X58145616Y6249446D01*
X58271057Y6345700D01*
X58367311Y6471141D01*
X58427819Y6617220D01*
X58448457Y6773982D01*
X58427819Y6930744D01*
X58424003Y6939956D01*
X58367312Y7076821D01*
X58367312Y7076822D01*
X58271061Y7202259D01*
X58271060Y7202260D01*
X58271057Y7202264D01*
X58271052Y7202268D01*
X58271051Y7202269D01*
X58145613Y7298520D01*
X57999541Y7359025D01*
X57999533Y7359027D01*
X57842776Y7379664D01*
X57842774Y7379664D01*
X57686016Y7359027D01*
X57686008Y7359025D01*
X57539936Y7298520D01*
X57539935Y7298520D01*
X57414498Y7202269D01*
X57414488Y7202259D01*
X57318237Y7076822D01*
X57318237Y7076821D01*
X57257732Y6930749D01*
X57257730Y6930741D01*
X57237093Y6773983D01*
X57237093Y6773982D01*
X52559307Y6773982D01*
X52920759Y7135434D01*
X52975274Y7163209D01*
X53003682Y7163581D01*
X53067938Y7155122D01*
X53149999Y7144318D01*
X53150000Y7144318D01*
X53150001Y7144318D01*
X53181352Y7148446D01*
X53306762Y7164956D01*
X53452841Y7225464D01*
X53578282Y7321718D01*
X53674536Y7447159D01*
X53735044Y7593238D01*
X53755682Y7750000D01*
X53735044Y7906762D01*
X53674537Y8052839D01*
X53674537Y8052840D01*
X53578286Y8178277D01*
X53578285Y8178278D01*
X53578282Y8178282D01*
X53578277Y8178286D01*
X53578276Y8178287D01*
X53493624Y8243242D01*
X53452841Y8274536D01*
X53452840Y8274537D01*
X53452838Y8274538D01*
X53306766Y8335043D01*
X53306758Y8335045D01*
X53150001Y8355682D01*
X53149999Y8355682D01*
X52993241Y8335045D01*
X52993233Y8335043D01*
X52847161Y8274538D01*
X52847160Y8274538D01*
X52721723Y8178287D01*
X52721713Y8178277D01*
X52625462Y8052840D01*
X52625462Y8052839D01*
X52564957Y7906767D01*
X52564955Y7906759D01*
X52544318Y7750001D01*
X52544318Y7749999D01*
X52546130Y7736234D01*
X52534979Y7676073D01*
X52517980Y7653309D01*
X50898749Y6034075D01*
X50369170Y5504496D01*
X50314653Y5476719D01*
X50299166Y5475500D01*
X45502245Y5475500D01*
X45444054Y5494407D01*
X45408090Y5543907D01*
X45408090Y5605093D01*
X45444054Y5654593D01*
X45456238Y5662160D01*
X45470568Y5669682D01*
X45470569Y5669682D01*
X45597800Y5782400D01*
X45597805Y5782406D01*
X45694371Y5922307D01*
X45694373Y5922310D01*
X45754648Y6081242D01*
X45754651Y6081252D01*
X45769999Y6207649D01*
X45770000Y6207666D01*
X45770000Y6699999D01*
X45769999Y6700000D01*
X45370000Y6700000D01*
X45370000Y6900000D01*
X45769999Y6900000D01*
X45770000Y6900001D01*
X45770000Y7392335D01*
X45769999Y7392352D01*
X45754651Y7518749D01*
X45754648Y7518759D01*
X45694373Y7677691D01*
X45694371Y7677694D01*
X45597805Y7817595D01*
X45597800Y7817601D01*
X45470568Y7930319D01*
X45320046Y8009318D01*
X45170000Y8046302D01*
X45170000Y7633455D01*
X45098160Y7653895D01*
X44986479Y7643546D01*
X44970000Y7635341D01*
X44970000Y8046302D01*
X44819953Y8009318D01*
X44819952Y8009318D01*
X44669431Y7930319D01*
X44669430Y7930319D01*
X44542199Y7817601D01*
X44542194Y7817595D01*
X44445628Y7677694D01*
X44445626Y7677691D01*
X44385351Y7518759D01*
X44385348Y7518749D01*
X44370000Y7392352D01*
X44370000Y6900001D01*
X44370001Y6900000D01*
X44770000Y6900000D01*
X44770000Y6700000D01*
X44370001Y6700000D01*
X44370000Y6699999D01*
X44370000Y6207649D01*
X44385348Y6081252D01*
X44385351Y6081242D01*
X44445626Y5922310D01*
X44445628Y5922307D01*
X44542194Y5782406D01*
X44542199Y5782400D01*
X44669431Y5669682D01*
X44683762Y5662160D01*
X44726501Y5618376D01*
X44735342Y5557833D01*
X44706908Y5503656D01*
X44652060Y5476539D01*
X44637755Y5475500D01*
X43325834Y5475500D01*
X43267643Y5494407D01*
X43255830Y5504496D01*
X42998292Y5762034D01*
X42970515Y5816551D01*
X42970143Y5844954D01*
X42980682Y5925000D01*
X42965210Y6042521D01*
X42975392Y6097457D01*
X42961105Y6103896D01*
X42936220Y6139279D01*
X42899537Y6227839D01*
X42899537Y6227840D01*
X42871945Y6263799D01*
X43110796Y6263799D01*
X43124613Y6197305D01*
X43117940Y6136485D01*
X43115786Y6134116D01*
X43135175Y6123588D01*
X43151263Y6100988D01*
X43206489Y5994407D01*
X43206646Y5994105D01*
X43305245Y5888531D01*
X43428672Y5813474D01*
X43567772Y5774500D01*
X43567773Y5774500D01*
X43675943Y5774500D01*
X43675949Y5774500D01*
X43783111Y5789229D01*
X43915609Y5846781D01*
X44027665Y5937946D01*
X44110971Y6055963D01*
X44159346Y6192079D01*
X44169204Y6336199D01*
X44167228Y6345706D01*
X44139815Y6477629D01*
X44139813Y6477637D01*
X44073355Y6605893D01*
X44073353Y6605896D01*
X43974754Y6711470D01*
X43851328Y6786526D01*
X43712228Y6825500D01*
X43604051Y6825500D01*
X43496888Y6810772D01*
X43364389Y6753219D01*
X43252334Y6662055D01*
X43169029Y6544038D01*
X43120653Y6407922D01*
X43110796Y6263803D01*
X43110796Y6263799D01*
X42871945Y6263799D01*
X42803286Y6353277D01*
X42803285Y6353278D01*
X42803282Y6353282D01*
X42803277Y6353286D01*
X42803276Y6353287D01*
X42677838Y6449538D01*
X42531766Y6510043D01*
X42531758Y6510045D01*
X42375001Y6530682D01*
X42374999Y6530682D01*
X42218241Y6510045D01*
X42218233Y6510043D01*
X42072161Y6449538D01*
X42072160Y6449538D01*
X41946723Y6353287D01*
X41946713Y6353277D01*
X41850462Y6227840D01*
X41850462Y6227839D01*
X41789957Y6081767D01*
X41789955Y6081759D01*
X41769318Y5925001D01*
X41769318Y5925000D01*
X38231752Y5925000D01*
X38247665Y5937946D01*
X38330971Y6055963D01*
X38379346Y6192079D01*
X38389204Y6336199D01*
X38387228Y6345706D01*
X38359815Y6477629D01*
X38359813Y6477637D01*
X38293355Y6605893D01*
X38293353Y6605896D01*
X38194754Y6711470D01*
X38071328Y6786526D01*
X37932228Y6825500D01*
X37824051Y6825500D01*
X37716888Y6810772D01*
X37584389Y6753219D01*
X37472334Y6662055D01*
X37389029Y6544038D01*
X37340653Y6407922D01*
X37330796Y6263803D01*
X37330796Y6263801D01*
X37130000Y6263801D01*
X37130000Y6699999D01*
X37129999Y6700000D01*
X36730000Y6700000D01*
X36730000Y6900000D01*
X37129999Y6900000D01*
X37130000Y6900001D01*
X37130000Y7392335D01*
X37129999Y7392352D01*
X37114651Y7518749D01*
X37114648Y7518759D01*
X37054373Y7677691D01*
X37054371Y7677694D01*
X36957805Y7817595D01*
X36957800Y7817601D01*
X36830568Y7930319D01*
X36680046Y8009318D01*
X36530000Y8046302D01*
X36530000Y7633455D01*
X36458160Y7653895D01*
X36346479Y7643546D01*
X36330000Y7635341D01*
X36330000Y8046302D01*
X36179953Y8009318D01*
X36179952Y8009318D01*
X36029431Y7930319D01*
X36029430Y7930319D01*
X35902199Y7817601D01*
X35902194Y7817595D01*
X35805628Y7677694D01*
X35805626Y7677691D01*
X35745351Y7518759D01*
X35745348Y7518749D01*
X35730000Y7392352D01*
X35730000Y6900001D01*
X35730001Y6900000D01*
X36130000Y6900000D01*
X36130000Y6700000D01*
X35730001Y6700000D01*
X35730000Y6699999D01*
X35730000Y6207649D01*
X3300000Y6207649D01*
X3300000Y8400000D01*
X33304818Y8400000D01*
X33325455Y8243242D01*
X33325457Y8243234D01*
X33385962Y8097162D01*
X33385962Y8097161D01*
X33482213Y7971724D01*
X33482218Y7971718D01*
X33607659Y7875464D01*
X33753738Y7814956D01*
X33871309Y7799478D01*
X33910499Y7794318D01*
X33910500Y7794318D01*
X33910501Y7794318D01*
X33941852Y7798446D01*
X34067262Y7814956D01*
X34213341Y7875464D01*
X34338782Y7971718D01*
X34435036Y8097159D01*
X34495544Y8243238D01*
X34516182Y8400000D01*
X34495544Y8556762D01*
X34470429Y8617394D01*
X34435037Y8702839D01*
X34435037Y8702840D01*
X34338786Y8828277D01*
X34338785Y8828278D01*
X34338782Y8828282D01*
X34338777Y8828286D01*
X34338776Y8828287D01*
X34221554Y8918234D01*
X34213341Y8924536D01*
X34213340Y8924537D01*
X34213338Y8924538D01*
X34067266Y8985043D01*
X34067258Y8985045D01*
X33910501Y9005682D01*
X33910499Y9005682D01*
X33753741Y8985045D01*
X33753733Y8985043D01*
X33607661Y8924538D01*
X33607660Y8924538D01*
X33482223Y8828287D01*
X33482213Y8828277D01*
X33385962Y8702840D01*
X33385962Y8702839D01*
X33325457Y8556767D01*
X33325455Y8556759D01*
X33304818Y8400001D01*
X33304818Y8400000D01*
X3300000Y8400000D01*
X3300000Y9300000D01*
X27894318Y9300000D01*
X27914955Y9143242D01*
X27914957Y9143234D01*
X27975462Y8997162D01*
X27975462Y8997161D01*
X28031189Y8924536D01*
X28071718Y8871718D01*
X28197159Y8775464D01*
X28197160Y8775464D01*
X28197161Y8775463D01*
X28332492Y8719407D01*
X28343238Y8714956D01*
X28450506Y8700834D01*
X28499999Y8694318D01*
X28500000Y8694318D01*
X28500001Y8694318D01*
X28549494Y8700834D01*
X28656762Y8714956D01*
X28802841Y8775464D01*
X28928282Y8871718D01*
X29024536Y8997159D01*
X29056779Y9075000D01*
X39169818Y9075000D01*
X39190455Y8918242D01*
X39190457Y8918234D01*
X39250962Y8772162D01*
X39250962Y8772161D01*
X39337160Y8659826D01*
X39347218Y8646718D01*
X39347222Y8646715D01*
X39347223Y8646714D01*
X39354993Y8640752D01*
X39472659Y8550464D01*
X39472660Y8550464D01*
X39472661Y8550463D01*
X39618733Y8489958D01*
X39618738Y8489956D01*
X39736309Y8474478D01*
X39775499Y8469318D01*
X39775500Y8469318D01*
X39775501Y8469318D01*
X39806852Y8473446D01*
X39932262Y8489956D01*
X40078341Y8550464D01*
X40203782Y8646718D01*
X40233745Y8685768D01*
X40284169Y8720423D01*
X40312287Y8724500D01*
X40668530Y8724500D01*
X40726721Y8705593D01*
X40747070Y8685769D01*
X40796218Y8621718D01*
X40796222Y8621715D01*
X40796223Y8621714D01*
X40825582Y8599187D01*
X40921659Y8525464D01*
X40921660Y8525464D01*
X40921661Y8525463D01*
X41057207Y8469318D01*
X41067738Y8464956D01*
X41147350Y8454475D01*
X41224499Y8444318D01*
X41224500Y8444318D01*
X41224501Y8444318D01*
X41269300Y8450216D01*
X41381262Y8464956D01*
X41527341Y8525464D01*
X41652782Y8621718D01*
X41749036Y8747159D01*
X41802197Y8875500D01*
X54344318Y8875500D01*
X54364955Y8718742D01*
X54364957Y8718734D01*
X54425462Y8572662D01*
X54425462Y8572661D01*
X54521713Y8447224D01*
X54521718Y8447218D01*
X54647159Y8350964D01*
X54647160Y8350964D01*
X54647161Y8350963D01*
X54739913Y8312544D01*
X54793238Y8290456D01*
X54950000Y8269818D01*
X55061283Y8284469D01*
X55121442Y8273319D01*
X55144208Y8256320D01*
X55166937Y8233591D01*
X55175037Y8222352D01*
X55176016Y8223091D01*
X55181544Y8215770D01*
X55216214Y8184164D01*
X55219519Y8181008D01*
X55232700Y8167828D01*
X55232703Y8167825D01*
X55232800Y8167759D01*
X55243549Y8159244D01*
X55259303Y8144883D01*
X55264567Y8140084D01*
X55264570Y8140083D01*
X55273726Y8136536D01*
X55293916Y8125895D01*
X55302020Y8120343D01*
X55329712Y8113831D01*
X55342799Y8109778D01*
X55369327Y8099500D01*
X55379153Y8099500D01*
X55401817Y8096871D01*
X55411382Y8094621D01*
X55439556Y8098552D01*
X55453232Y8099500D01*
X59079521Y8099500D01*
X59137712Y8080593D01*
X59149525Y8070504D01*
X61575819Y5644210D01*
X61603596Y5589693D01*
X61603968Y5561285D01*
X61589318Y5450002D01*
X61589318Y5450000D01*
X61609955Y5293242D01*
X61609957Y5293234D01*
X61670462Y5147162D01*
X61670462Y5147161D01*
X61766713Y5021724D01*
X61766718Y5021718D01*
X61892159Y4925464D01*
X61892160Y4925464D01*
X61892161Y4925463D01*
X62038233Y4864958D01*
X62038238Y4864956D01*
X62148430Y4850449D01*
X62194999Y4844318D01*
X62195000Y4844318D01*
X62195001Y4844318D01*
X62226352Y4848446D01*
X62351762Y4864956D01*
X62497841Y4925464D01*
X62623282Y5021718D01*
X62719536Y5147159D01*
X62780044Y5293238D01*
X62800682Y5450000D01*
X62780044Y5606762D01*
X62747619Y5685043D01*
X62719537Y5752839D01*
X62719537Y5752840D01*
X62623286Y5878277D01*
X62623285Y5878278D01*
X62623282Y5878282D01*
X62623277Y5878286D01*
X62623276Y5878287D01*
X62562398Y5925000D01*
X64244318Y5925000D01*
X64264955Y5768242D01*
X64264957Y5768234D01*
X64325462Y5622162D01*
X64325462Y5622161D01*
X64416394Y5503656D01*
X64421718Y5496718D01*
X64547159Y5400464D01*
X64547160Y5400464D01*
X64547161Y5400463D01*
X64692741Y5340162D01*
X64693238Y5339956D01*
X64810639Y5324500D01*
X64849999Y5319318D01*
X64850000Y5319318D01*
X64850001Y5319318D01*
X64889361Y5324500D01*
X65006762Y5339956D01*
X65152841Y5400464D01*
X65278282Y5496718D01*
X65374536Y5622159D01*
X65435044Y5768238D01*
X65455682Y5925000D01*
X65452903Y5946105D01*
X65441322Y6034075D01*
X65435044Y6081762D01*
X65417719Y6123588D01*
X65374537Y6227839D01*
X65374537Y6227840D01*
X65278286Y6353277D01*
X65278285Y6353278D01*
X65278282Y6353282D01*
X65278277Y6353286D01*
X65278276Y6353287D01*
X65152838Y6449538D01*
X65006766Y6510043D01*
X65006758Y6510045D01*
X64850001Y6530682D01*
X64849999Y6530682D01*
X64693241Y6510045D01*
X64693233Y6510043D01*
X64547161Y6449538D01*
X64547160Y6449538D01*
X64421723Y6353287D01*
X64421713Y6353277D01*
X64325462Y6227840D01*
X64325462Y6227839D01*
X64264957Y6081767D01*
X64264955Y6081759D01*
X64244318Y5925001D01*
X64244318Y5925000D01*
X62562398Y5925000D01*
X62497838Y5974538D01*
X62351766Y6035043D01*
X62351758Y6035045D01*
X62195001Y6055682D01*
X62194998Y6055682D01*
X62083715Y6041032D01*
X62023555Y6052182D01*
X62000790Y6069181D01*
X59503565Y8566406D01*
X59495479Y8577656D01*
X59494487Y8576906D01*
X59488958Y8584228D01*
X59454272Y8615849D01*
X59450968Y8619004D01*
X59437800Y8632172D01*
X59437796Y8632175D01*
X59437693Y8632245D01*
X59426962Y8640745D01*
X59405933Y8659916D01*
X59396762Y8663469D01*
X59376586Y8674105D01*
X59368484Y8679655D01*
X59368479Y8679657D01*
X59340797Y8686168D01*
X59327703Y8690223D01*
X59301177Y8700500D01*
X59301173Y8700500D01*
X59291348Y8700500D01*
X59268683Y8703130D01*
X59259119Y8705379D01*
X59259118Y8705379D01*
X59230946Y8701449D01*
X59217269Y8700500D01*
X55645531Y8700500D01*
X55587340Y8719407D01*
X55551376Y8768907D01*
X55547378Y8812422D01*
X55555682Y8875500D01*
X55555682Y8875501D01*
X55541260Y8985045D01*
X55535044Y9032262D01*
X55527505Y9050463D01*
X55474537Y9178339D01*
X55474537Y9178340D01*
X55378286Y9303777D01*
X55378285Y9303778D01*
X55378282Y9303782D01*
X55378277Y9303786D01*
X55378276Y9303787D01*
X55272379Y9385044D01*
X55252841Y9400036D01*
X55252840Y9400037D01*
X55252838Y9400038D01*
X55106766Y9460543D01*
X55106758Y9460545D01*
X54950001Y9481182D01*
X54949999Y9481182D01*
X54793241Y9460545D01*
X54793233Y9460543D01*
X54647161Y9400038D01*
X54647160Y9400038D01*
X54521723Y9303787D01*
X54521713Y9303777D01*
X54425462Y9178340D01*
X54425462Y9178339D01*
X54364957Y9032267D01*
X54364955Y9032259D01*
X54344318Y8875501D01*
X54344318Y8875500D01*
X41802197Y8875500D01*
X41809544Y8893238D01*
X41830182Y9050000D01*
X41819643Y9130045D01*
X41830792Y9190203D01*
X41847789Y9212965D01*
X42180330Y9545504D01*
X42234846Y9573281D01*
X42250333Y9574500D01*
X51806466Y9574500D01*
X51815094Y9574124D01*
X51853807Y9570736D01*
X51869718Y9575000D01*
X55893318Y9575000D01*
X55913955Y9418242D01*
X55913957Y9418234D01*
X55974462Y9272162D01*
X55974462Y9272161D01*
X56046454Y9178339D01*
X56070718Y9146718D01*
X56196159Y9050464D01*
X56196160Y9050464D01*
X56196161Y9050463D01*
X56324848Y8997159D01*
X56342238Y8989956D01*
X56459809Y8974478D01*
X56498999Y8969318D01*
X56499000Y8969318D01*
X56499001Y8969318D01*
X56530352Y8973446D01*
X56655762Y8989956D01*
X56801841Y9050464D01*
X56927282Y9146718D01*
X56989872Y9228287D01*
X56995612Y9235767D01*
X57046037Y9270423D01*
X57074154Y9274500D01*
X59799521Y9274500D01*
X59857712Y9255593D01*
X59869525Y9245504D01*
X62163319Y6951710D01*
X62191096Y6897193D01*
X62191468Y6868785D01*
X62176818Y6757502D01*
X62176818Y6757500D01*
X62197455Y6600742D01*
X62197457Y6600734D01*
X62257962Y6454662D01*
X62257962Y6454661D01*
X62348861Y6336199D01*
X62354218Y6329218D01*
X62479659Y6232964D01*
X62479660Y6232964D01*
X62479661Y6232963D01*
X62595348Y6185044D01*
X62625738Y6172456D01*
X62743309Y6156978D01*
X62782499Y6151818D01*
X62782500Y6151818D01*
X62782501Y6151818D01*
X62813852Y6155946D01*
X62939262Y6172456D01*
X63085341Y6232964D01*
X63210782Y6329218D01*
X63307036Y6454659D01*
X63367544Y6600738D01*
X63388182Y6757500D01*
X63367544Y6914262D01*
X63307037Y7060339D01*
X63307037Y7060340D01*
X63210786Y7185777D01*
X63210785Y7185778D01*
X63210782Y7185782D01*
X63210777Y7185786D01*
X63210776Y7185787D01*
X63126488Y7250463D01*
X63085341Y7282036D01*
X63085340Y7282037D01*
X63085338Y7282038D01*
X62939266Y7342543D01*
X62939258Y7342545D01*
X62782501Y7363182D01*
X62782498Y7363182D01*
X62671215Y7348532D01*
X62611055Y7359682D01*
X62588290Y7376681D01*
X62439971Y7525000D01*
X64844318Y7525000D01*
X64864955Y7368242D01*
X64864957Y7368234D01*
X64925462Y7222162D01*
X64925462Y7222161D01*
X65021713Y7096724D01*
X65021718Y7096718D01*
X65147159Y7000464D01*
X65293238Y6939956D01*
X65410809Y6924478D01*
X65449999Y6919318D01*
X65450000Y6919318D01*
X65450001Y6919318D01*
X65481352Y6923446D01*
X65606762Y6939956D01*
X65752841Y7000464D01*
X65878282Y7096718D01*
X65974536Y7222159D01*
X66035044Y7368238D01*
X66055682Y7525000D01*
X66035044Y7681762D01*
X66006779Y7750000D01*
X65996424Y7775000D01*
X66669318Y7775000D01*
X66689955Y7618242D01*
X66689957Y7618234D01*
X66750462Y7472162D01*
X66750462Y7472161D01*
X66845326Y7348532D01*
X66846718Y7346718D01*
X66846722Y7346715D01*
X66846723Y7346714D01*
X66876082Y7324187D01*
X66972159Y7250464D01*
X66972160Y7250464D01*
X66972161Y7250463D01*
X67040486Y7222162D01*
X67118238Y7189956D01*
X67212563Y7177538D01*
X67274999Y7169318D01*
X67275000Y7169318D01*
X67275001Y7169318D01*
X67306352Y7173446D01*
X67431762Y7189956D01*
X67577841Y7250464D01*
X67703282Y7346718D01*
X67799536Y7472159D01*
X67860044Y7618238D01*
X67880682Y7775000D01*
X67860044Y7931762D01*
X67809892Y8052840D01*
X67799537Y8077839D01*
X67799537Y8077840D01*
X67703286Y8203277D01*
X67703285Y8203278D01*
X67703282Y8203282D01*
X67703277Y8203286D01*
X67703276Y8203287D01*
X67610419Y8274538D01*
X67577841Y8299536D01*
X67577840Y8299537D01*
X67577838Y8299538D01*
X67431766Y8360043D01*
X67431758Y8360045D01*
X67275001Y8380682D01*
X67274999Y8380682D01*
X67118241Y8360045D01*
X67118233Y8360043D01*
X66972161Y8299538D01*
X66972160Y8299538D01*
X66846723Y8203287D01*
X66846713Y8203277D01*
X66750462Y8077840D01*
X66750462Y8077839D01*
X66689957Y7931767D01*
X66689955Y7931759D01*
X66669318Y7775001D01*
X66669318Y7775000D01*
X65996424Y7775000D01*
X65974537Y7827839D01*
X65974537Y7827840D01*
X65878286Y7953277D01*
X65878285Y7953278D01*
X65878282Y7953282D01*
X65878277Y7953286D01*
X65878276Y7953287D01*
X65805254Y8009318D01*
X65752841Y8049536D01*
X65752840Y8049537D01*
X65752838Y8049538D01*
X65606766Y8110043D01*
X65606758Y8110045D01*
X65450001Y8130682D01*
X65449999Y8130682D01*
X65293241Y8110045D01*
X65293233Y8110043D01*
X65147161Y8049538D01*
X65147160Y8049538D01*
X65021723Y7953287D01*
X65021713Y7953277D01*
X64925462Y7827840D01*
X64925462Y7827839D01*
X64864957Y7681767D01*
X64864955Y7681759D01*
X64844318Y7525001D01*
X64844318Y7525000D01*
X62439971Y7525000D01*
X60223565Y9741406D01*
X60215479Y9752656D01*
X60214487Y9751906D01*
X60208958Y9759228D01*
X60174272Y9790849D01*
X60170968Y9794004D01*
X60157800Y9807172D01*
X60157796Y9807175D01*
X60157693Y9807245D01*
X60146962Y9815745D01*
X60125933Y9834916D01*
X60116762Y9838469D01*
X60096586Y9849105D01*
X60088484Y9854655D01*
X60088479Y9854657D01*
X60060797Y9861168D01*
X60047703Y9865223D01*
X60021177Y9875500D01*
X60021173Y9875500D01*
X60011348Y9875500D01*
X59988683Y9878130D01*
X59979119Y9880379D01*
X59979118Y9880379D01*
X59950946Y9876449D01*
X59937269Y9875500D01*
X57074154Y9875500D01*
X57015963Y9894407D01*
X56995612Y9914233D01*
X56927286Y10003277D01*
X56927285Y10003278D01*
X56927282Y10003282D01*
X56927277Y10003286D01*
X56927276Y10003287D01*
X56801838Y10099538D01*
X56655766Y10160043D01*
X56655758Y10160045D01*
X56499001Y10180682D01*
X56498999Y10180682D01*
X56342241Y10160045D01*
X56342233Y10160043D01*
X56196161Y10099538D01*
X56196160Y10099538D01*
X56070723Y10003287D01*
X56070713Y10003277D01*
X55974462Y9877840D01*
X55974462Y9877839D01*
X55913957Y9731767D01*
X55913955Y9731759D01*
X55893318Y9575001D01*
X55893318Y9575000D01*
X51869718Y9575000D01*
X51891354Y9580798D01*
X51899784Y9582666D01*
X51938045Y9589412D01*
X51939345Y9590162D01*
X51963236Y9600058D01*
X51963464Y9600120D01*
X51964684Y9600446D01*
X51996533Y9622749D01*
X52003779Y9627365D01*
X52037455Y9646806D01*
X52062443Y9676587D01*
X52068254Y9682930D01*
X53735324Y11350000D01*
X66494318Y11350000D01*
X66514955Y11193242D01*
X66514957Y11193234D01*
X66575462Y11047162D01*
X66575462Y11047161D01*
X66642413Y10959909D01*
X66671718Y10921718D01*
X66797159Y10825464D01*
X66797160Y10825464D01*
X66797161Y10825463D01*
X66833729Y10810316D01*
X66943238Y10764956D01*
X67056841Y10750000D01*
X67099999Y10744318D01*
X67100000Y10744318D01*
X67100001Y10744318D01*
X67131352Y10748446D01*
X67256762Y10764956D01*
X67402841Y10825464D01*
X67528282Y10921718D01*
X67624536Y11047159D01*
X67685044Y11193238D01*
X67705682Y11350000D01*
X67695143Y11430044D01*
X67706292Y11490201D01*
X67723289Y11512965D01*
X67817066Y11606742D01*
X67823425Y11612567D01*
X67853194Y11637545D01*
X67872635Y11671221D01*
X67877251Y11678467D01*
X67899554Y11710316D01*
X67899942Y11711764D01*
X67909838Y11735655D01*
X67910588Y11736955D01*
X67917334Y11775216D01*
X67919204Y11783652D01*
X67929264Y11821193D01*
X67925877Y11859909D01*
X67925500Y11868537D01*
X67925500Y19974167D01*
X67944407Y20032358D01*
X67954490Y20044165D01*
X72862034Y24951710D01*
X72916549Y24979485D01*
X72944952Y24979857D01*
X73025000Y24969318D01*
X73181762Y24989956D01*
X73327841Y25050464D01*
X73453282Y25146718D01*
X73549536Y25272159D01*
X73610044Y25418238D01*
X73630682Y25575000D01*
X73610044Y25731762D01*
X73549537Y25877839D01*
X73549537Y25877840D01*
X73453286Y26003277D01*
X73453285Y26003278D01*
X73453282Y26003282D01*
X73453277Y26003286D01*
X73453276Y26003287D01*
X73327838Y26099538D01*
X73181766Y26160043D01*
X73181758Y26160045D01*
X73025001Y26180682D01*
X73024998Y26180682D01*
X72944957Y26170145D01*
X72884797Y26181295D01*
X72862032Y26198294D01*
X70723292Y28337034D01*
X70695515Y28391551D01*
X70695143Y28419954D01*
X70705682Y28500000D01*
X70685044Y28656762D01*
X70650217Y28740841D01*
X70624537Y28802839D01*
X70624537Y28802840D01*
X70528286Y28928277D01*
X70528285Y28928278D01*
X70528282Y28928282D01*
X70528277Y28928286D01*
X70528276Y28928287D01*
X70402838Y29024538D01*
X70256766Y29085043D01*
X70256758Y29085045D01*
X70100001Y29105682D01*
X70099999Y29105682D01*
X69943241Y29085045D01*
X69943233Y29085043D01*
X69797161Y29024538D01*
X69797160Y29024538D01*
X69671723Y28928287D01*
X69671713Y28928277D01*
X69575462Y28802840D01*
X69575462Y28802839D01*
X69514957Y28656767D01*
X69514955Y28656759D01*
X69494318Y28500001D01*
X69494318Y28500000D01*
X69514955Y28343242D01*
X69514957Y28343234D01*
X69575462Y28197162D01*
X69575462Y28197161D01*
X69575464Y28197159D01*
X69671718Y28071718D01*
X69797159Y27975464D01*
X69943238Y27914956D01*
X70100000Y27894318D01*
X70180041Y27904857D01*
X70240199Y27893708D01*
X70262966Y27876708D01*
X72401706Y25737968D01*
X72429483Y25683451D01*
X72429855Y25655043D01*
X72419318Y25575002D01*
X72419318Y25575000D01*
X72429855Y25494960D01*
X72418705Y25434799D01*
X72401706Y25412034D01*
X67382940Y20393268D01*
X67376574Y20387436D01*
X67346807Y20362458D01*
X67346805Y20362456D01*
X67327371Y20328795D01*
X67322740Y20321525D01*
X67300446Y20289684D01*
X67300446Y20289683D01*
X67300442Y20289676D01*
X67300051Y20288214D01*
X67290170Y20264360D01*
X67289414Y20263052D01*
X67289410Y20263040D01*
X67282662Y20224777D01*
X67280794Y20216351D01*
X67270736Y20178813D01*
X67270736Y20178806D01*
X67274123Y20140096D01*
X67274500Y20131467D01*
X67274500Y12045597D01*
X67255593Y11987406D01*
X67206093Y11951442D01*
X67162579Y11947444D01*
X67100002Y11955682D01*
X67099999Y11955682D01*
X66943241Y11935045D01*
X66943233Y11935043D01*
X66797161Y11874538D01*
X66797160Y11874538D01*
X66671723Y11778287D01*
X66671713Y11778277D01*
X66575462Y11652840D01*
X66575462Y11652839D01*
X66514957Y11506767D01*
X66514955Y11506759D01*
X66494318Y11350001D01*
X66494318Y11350000D01*
X53735324Y11350000D01*
X55462072Y13076747D01*
X55468431Y13082572D01*
X55498194Y13107545D01*
X55517627Y13141207D01*
X55522266Y13148487D01*
X55528431Y13157293D01*
X55544553Y13180316D01*
X55544942Y13181769D01*
X55554833Y13205648D01*
X55555588Y13206955D01*
X55562338Y13245239D01*
X55564199Y13253638D01*
X55574263Y13291193D01*
X55570877Y13329898D01*
X55570500Y13338526D01*
X55570500Y14897167D01*
X55589407Y14955358D01*
X55599490Y14967165D01*
X59482324Y18850000D01*
X62544318Y18850000D01*
X62564955Y18693242D01*
X62564957Y18693234D01*
X62625462Y18547162D01*
X62625462Y18547161D01*
X62702538Y18446714D01*
X62721718Y18421718D01*
X62847159Y18325464D01*
X62847160Y18325464D01*
X62847161Y18325463D01*
X62967097Y18275784D01*
X62993238Y18264956D01*
X63110809Y18249478D01*
X63149999Y18244318D01*
X63150000Y18244318D01*
X63150001Y18244318D01*
X63181352Y18248446D01*
X63306762Y18264956D01*
X63452841Y18325464D01*
X63578282Y18421718D01*
X63674536Y18547159D01*
X63735044Y18693238D01*
X63755682Y18850000D01*
X64129318Y18850000D01*
X64149955Y18693242D01*
X64149957Y18693234D01*
X64210462Y18547162D01*
X64210462Y18547161D01*
X64287538Y18446714D01*
X64306718Y18421718D01*
X64432159Y18325464D01*
X64432160Y18325464D01*
X64432161Y18325463D01*
X64552097Y18275784D01*
X64578238Y18264956D01*
X64695809Y18249478D01*
X64734999Y18244318D01*
X64735000Y18244318D01*
X64735001Y18244318D01*
X64766352Y18248446D01*
X64891762Y18264956D01*
X65037841Y18325464D01*
X65163282Y18421718D01*
X65259536Y18547159D01*
X65320044Y18693238D01*
X65340682Y18850000D01*
X65337391Y18875000D01*
X65619318Y18875000D01*
X65639955Y18718242D01*
X65639957Y18718234D01*
X65700462Y18572162D01*
X65700462Y18572161D01*
X65794939Y18449036D01*
X65796718Y18446718D01*
X65922159Y18350464D01*
X65922160Y18350464D01*
X65922161Y18350463D01*
X66037131Y18302841D01*
X66068238Y18289956D01*
X66175886Y18275784D01*
X66224999Y18269318D01*
X66225000Y18269318D01*
X66225001Y18269318D01*
X66256352Y18273446D01*
X66381762Y18289956D01*
X66527841Y18350464D01*
X66653282Y18446718D01*
X66749536Y18572159D01*
X66810044Y18718238D01*
X66830682Y18875000D01*
X66810044Y19031762D01*
X66810042Y19031767D01*
X66749537Y19177839D01*
X66749537Y19177840D01*
X66653286Y19303277D01*
X66653285Y19303278D01*
X66653282Y19303282D01*
X66653277Y19303286D01*
X66653276Y19303287D01*
X66527838Y19399538D01*
X66381766Y19460043D01*
X66381758Y19460045D01*
X66225001Y19480682D01*
X66224999Y19480682D01*
X66068241Y19460045D01*
X66068233Y19460043D01*
X65922161Y19399538D01*
X65922160Y19399538D01*
X65796723Y19303287D01*
X65796713Y19303277D01*
X65700462Y19177840D01*
X65700462Y19177839D01*
X65639957Y19031767D01*
X65639955Y19031759D01*
X65619318Y18875001D01*
X65619318Y18875000D01*
X65337391Y18875000D01*
X65320044Y19006762D01*
X65259537Y19152839D01*
X65259537Y19152840D01*
X65163286Y19278277D01*
X65163285Y19278278D01*
X65163282Y19278282D01*
X65163277Y19278286D01*
X65163276Y19278287D01*
X65037838Y19374538D01*
X64891766Y19435043D01*
X64891758Y19435045D01*
X64735001Y19455682D01*
X64734999Y19455682D01*
X64578241Y19435045D01*
X64578233Y19435043D01*
X64432161Y19374538D01*
X64432160Y19374538D01*
X64306723Y19278287D01*
X64306713Y19278277D01*
X64210462Y19152840D01*
X64210462Y19152839D01*
X64149957Y19006767D01*
X64149955Y19006759D01*
X64129318Y18850001D01*
X64129318Y18850000D01*
X63755682Y18850000D01*
X63735044Y19006762D01*
X63674537Y19152839D01*
X63674537Y19152840D01*
X63578286Y19278277D01*
X63578285Y19278278D01*
X63578282Y19278282D01*
X63578277Y19278286D01*
X63578276Y19278287D01*
X63452838Y19374538D01*
X63306766Y19435043D01*
X63306758Y19435045D01*
X63150001Y19455682D01*
X63149999Y19455682D01*
X62993241Y19435045D01*
X62993233Y19435043D01*
X62847161Y19374538D01*
X62847160Y19374538D01*
X62721723Y19278287D01*
X62721713Y19278277D01*
X62625462Y19152840D01*
X62625462Y19152839D01*
X62564957Y19006767D01*
X62564955Y19006759D01*
X62544318Y18850001D01*
X62544318Y18850000D01*
X59482324Y18850000D01*
X61559034Y20926710D01*
X61613549Y20954485D01*
X61641952Y20954857D01*
X61722000Y20944318D01*
X61878762Y20964956D01*
X62024841Y21025464D01*
X62150282Y21121718D01*
X62246536Y21247159D01*
X62307044Y21393238D01*
X62327682Y21550000D01*
X62307044Y21706762D01*
X62257099Y21827340D01*
X62246537Y21852839D01*
X62246537Y21852840D01*
X62150286Y21978277D01*
X62150285Y21978278D01*
X62150282Y21978282D01*
X62150277Y21978286D01*
X62150276Y21978287D01*
X62024838Y22074538D01*
X61878766Y22135043D01*
X61878758Y22135045D01*
X61722001Y22155682D01*
X61721999Y22155682D01*
X61565241Y22135045D01*
X61565233Y22135043D01*
X61419161Y22074538D01*
X61419160Y22074538D01*
X61293723Y21978287D01*
X61293716Y21978280D01*
X61219258Y21881244D01*
X61168833Y21846589D01*
X61107669Y21848191D01*
X61062174Y21881245D01*
X61007286Y21952777D01*
X61007285Y21952778D01*
X61007282Y21952782D01*
X61007277Y21952786D01*
X61007276Y21952787D01*
X60929513Y22012456D01*
X60881841Y22049036D01*
X60881840Y22049037D01*
X60881838Y22049038D01*
X60735766Y22109543D01*
X60735758Y22109545D01*
X60579001Y22130182D01*
X60578999Y22130182D01*
X60422241Y22109545D01*
X60422233Y22109543D01*
X60276161Y22049038D01*
X60276160Y22049038D01*
X60150723Y21952787D01*
X60150713Y21952777D01*
X60054462Y21827340D01*
X60054462Y21827339D01*
X59993957Y21681267D01*
X59993955Y21681259D01*
X59973318Y21524500D01*
X59983855Y21444460D01*
X59972705Y21384299D01*
X59955706Y21361534D01*
X54392940Y15798768D01*
X54386574Y15792936D01*
X54356807Y15767958D01*
X54356805Y15767956D01*
X54337371Y15734295D01*
X54332740Y15727025D01*
X54310446Y15695184D01*
X54310446Y15695183D01*
X54310442Y15695176D01*
X54310051Y15693714D01*
X54300170Y15669860D01*
X54299414Y15668552D01*
X54299410Y15668540D01*
X54292662Y15630277D01*
X54290794Y15621851D01*
X54280736Y15584313D01*
X54280736Y15584306D01*
X54284123Y15545596D01*
X54284500Y15536967D01*
X54284500Y13885834D01*
X54265593Y13827643D01*
X54255504Y13815830D01*
X51559706Y11120032D01*
X51505189Y11092255D01*
X51489702Y11091036D01*
X41521446Y11091036D01*
X41512817Y11091413D01*
X41474106Y11094800D01*
X41474099Y11094800D01*
X41436561Y11084742D01*
X41428135Y11082874D01*
X41389872Y11076126D01*
X41389860Y11076122D01*
X41388552Y11075366D01*
X41364698Y11065485D01*
X41363236Y11065094D01*
X41363229Y11065091D01*
X41363228Y11065090D01*
X41331387Y11042796D01*
X41324117Y11038165D01*
X41290457Y11018731D01*
X41265481Y10988966D01*
X41259648Y10982600D01*
X40674842Y10397794D01*
X40620325Y10370017D01*
X40591916Y10369645D01*
X40511877Y10380182D01*
X40511875Y10380182D01*
X40355117Y10359545D01*
X40355109Y10359543D01*
X40209037Y10299038D01*
X40209036Y10299038D01*
X40083599Y10202787D01*
X40083589Y10202777D01*
X39987338Y10077340D01*
X39987338Y10077339D01*
X39926833Y9931267D01*
X39926831Y9931259D01*
X39905347Y9768067D01*
X39903574Y9768301D01*
X39887287Y9718173D01*
X39837787Y9682209D01*
X39794273Y9678211D01*
X39775502Y9680682D01*
X39775499Y9680682D01*
X39618741Y9660045D01*
X39618733Y9660043D01*
X39472661Y9599538D01*
X39472660Y9599538D01*
X39347223Y9503287D01*
X39347213Y9503277D01*
X39250962Y9377840D01*
X39250962Y9377839D01*
X39190457Y9231767D01*
X39190455Y9231759D01*
X39169818Y9075001D01*
X39169818Y9075000D01*
X29056779Y9075000D01*
X29085044Y9143238D01*
X29105682Y9300000D01*
X29105183Y9303787D01*
X29094157Y9387544D01*
X29085044Y9456762D01*
X29083572Y9460316D01*
X29058036Y9521967D01*
X29050500Y9559852D01*
X29050500Y12025000D01*
X30219318Y12025000D01*
X30239955Y11868242D01*
X30239957Y11868234D01*
X30300462Y11722162D01*
X30300462Y11722161D01*
X30396713Y11596724D01*
X30396718Y11596718D01*
X30522159Y11500464D01*
X30668238Y11439956D01*
X30785809Y11424478D01*
X30824999Y11419318D01*
X30825000Y11419318D01*
X30825001Y11419318D01*
X30856352Y11423446D01*
X30981762Y11439956D01*
X31127841Y11500464D01*
X31253282Y11596718D01*
X31349536Y11722159D01*
X31410044Y11868238D01*
X31430682Y12025000D01*
X31410044Y12181762D01*
X31349537Y12327839D01*
X31349537Y12327840D01*
X31253286Y12453277D01*
X31253285Y12453278D01*
X31253282Y12453282D01*
X31253277Y12453286D01*
X31253276Y12453287D01*
X31127838Y12549538D01*
X30981766Y12610043D01*
X30981758Y12610045D01*
X30825001Y12630682D01*
X30824999Y12630682D01*
X30668241Y12610045D01*
X30668233Y12610043D01*
X30522161Y12549538D01*
X30522160Y12549538D01*
X30396723Y12453287D01*
X30396713Y12453277D01*
X30300462Y12327840D01*
X30300462Y12327839D01*
X30239957Y12181767D01*
X30239955Y12181759D01*
X30219318Y12025001D01*
X30219318Y12025000D01*
X29050500Y12025000D01*
X29050500Y13074470D01*
X29069407Y13132661D01*
X29079496Y13144474D01*
X30072022Y14137000D01*
X35194318Y14137000D01*
X35214955Y13980242D01*
X35214957Y13980234D01*
X35275462Y13834162D01*
X35275462Y13834161D01*
X35371713Y13708724D01*
X35371718Y13708718D01*
X35497159Y13612464D01*
X35497160Y13612464D01*
X35497161Y13612463D01*
X35643233Y13551958D01*
X35643238Y13551956D01*
X35760809Y13536478D01*
X35799999Y13531318D01*
X35800000Y13531318D01*
X35800001Y13531318D01*
X35831352Y13535446D01*
X35956762Y13551956D01*
X36102841Y13612464D01*
X36228282Y13708718D01*
X36324536Y13834159D01*
X36385044Y13980238D01*
X36405682Y14137000D01*
X36385044Y14293762D01*
X36324537Y14439839D01*
X36324537Y14439840D01*
X36228286Y14565277D01*
X36228285Y14565278D01*
X36228282Y14565282D01*
X36228277Y14565286D01*
X36228276Y14565287D01*
X36102838Y14661538D01*
X35956766Y14722043D01*
X35956758Y14722045D01*
X35800001Y14742682D01*
X35799999Y14742682D01*
X35643241Y14722045D01*
X35643233Y14722043D01*
X35497161Y14661538D01*
X35497160Y14661538D01*
X35371723Y14565287D01*
X35371713Y14565277D01*
X35275462Y14439840D01*
X35275462Y14439839D01*
X35214957Y14293767D01*
X35214955Y14293759D01*
X35194318Y14137001D01*
X35194318Y14137000D01*
X30072022Y14137000D01*
X32610022Y16675000D01*
X39469318Y16675000D01*
X39489955Y16518242D01*
X39489957Y16518234D01*
X39550462Y16372162D01*
X39550462Y16372161D01*
X39550464Y16372159D01*
X39646718Y16246718D01*
X39772159Y16150464D01*
X39918238Y16089956D01*
X40035809Y16074478D01*
X40074999Y16069318D01*
X40075000Y16069318D01*
X40075001Y16069318D01*
X40106352Y16073446D01*
X40231762Y16089956D01*
X40377841Y16150464D01*
X40503282Y16246718D01*
X40599536Y16372159D01*
X40660044Y16518238D01*
X40680682Y16675000D01*
X40660044Y16831762D01*
X40599537Y16977839D01*
X40599537Y16977840D01*
X40503286Y17103277D01*
X40503285Y17103278D01*
X40503282Y17103282D01*
X40503277Y17103286D01*
X40503276Y17103287D01*
X40377838Y17199538D01*
X40231766Y17260043D01*
X40231758Y17260045D01*
X40075001Y17280682D01*
X40074999Y17280682D01*
X39918241Y17260045D01*
X39918233Y17260043D01*
X39772161Y17199538D01*
X39772160Y17199538D01*
X39646723Y17103287D01*
X39646713Y17103277D01*
X39550462Y16977840D01*
X39550462Y16977839D01*
X39489957Y16831767D01*
X39489955Y16831759D01*
X39469318Y16675001D01*
X39469318Y16675000D01*
X32610022Y16675000D01*
X33935022Y18000000D01*
X40162563Y18000000D01*
X40183200Y17843242D01*
X40183202Y17843234D01*
X40243707Y17697162D01*
X40243707Y17697161D01*
X40301642Y17621659D01*
X40339963Y17571718D01*
X40465404Y17475464D01*
X40465405Y17475464D01*
X40465406Y17475463D01*
X40473378Y17472161D01*
X40611483Y17414956D01*
X40709940Y17401994D01*
X40768244Y17394318D01*
X40768245Y17394318D01*
X40768246Y17394318D01*
X40811123Y17399963D01*
X40925007Y17414956D01*
X41071086Y17475464D01*
X41196527Y17571718D01*
X41292781Y17697159D01*
X41341821Y17815552D01*
X42019436Y17815552D01*
X42040073Y17658794D01*
X42040075Y17658786D01*
X42100580Y17512714D01*
X42100580Y17512713D01*
X42196831Y17387276D01*
X42196836Y17387270D01*
X42322277Y17291016D01*
X42468356Y17230508D01*
X42585927Y17215030D01*
X42625117Y17209870D01*
X42625118Y17209870D01*
X42625119Y17209870D01*
X42656470Y17213998D01*
X42781880Y17230508D01*
X42927959Y17291016D01*
X43053400Y17387270D01*
X43126769Y17482887D01*
X43177192Y17517542D01*
X43238356Y17515941D01*
X43265521Y17498802D01*
X43266570Y17500168D01*
X43271718Y17496218D01*
X43397159Y17399964D01*
X43397160Y17399964D01*
X43397161Y17399963D01*
X43538330Y17341489D01*
X43543238Y17339456D01*
X43660809Y17323978D01*
X43699999Y17318818D01*
X43700000Y17318818D01*
X43700001Y17318818D01*
X43731352Y17322946D01*
X43856762Y17339456D01*
X44002841Y17399964D01*
X44128282Y17496218D01*
X44188924Y17575249D01*
X44239347Y17609904D01*
X44300511Y17608303D01*
X44346006Y17575249D01*
X44381638Y17528812D01*
X44403617Y17500168D01*
X44405090Y17498249D01*
X44405094Y17498246D01*
X44405095Y17498245D01*
X44434454Y17475718D01*
X44530531Y17401995D01*
X44530532Y17401995D01*
X44530533Y17401994D01*
X44566068Y17387275D01*
X44676610Y17341487D01*
X44794181Y17326009D01*
X44833371Y17320849D01*
X44833372Y17320849D01*
X44833373Y17320849D01*
X44864724Y17324977D01*
X44990134Y17341487D01*
X45136213Y17401995D01*
X45261654Y17498249D01*
X45357908Y17623690D01*
X45418416Y17769769D01*
X45439054Y17926531D01*
X45418416Y18083293D01*
X45403878Y18118391D01*
X45357909Y18229370D01*
X45357909Y18229371D01*
X45261658Y18354808D01*
X45261657Y18354809D01*
X45261654Y18354813D01*
X45261649Y18354817D01*
X45261648Y18354818D01*
X45174454Y18421724D01*
X45136213Y18451067D01*
X45136212Y18451068D01*
X45136210Y18451069D01*
X44990138Y18511574D01*
X44990130Y18511576D01*
X44833373Y18532213D01*
X44833371Y18532213D01*
X44676613Y18511576D01*
X44676605Y18511574D01*
X44530533Y18451069D01*
X44530532Y18451069D01*
X44405095Y18354818D01*
X44405088Y18354811D01*
X44344448Y18275783D01*
X44294023Y18241128D01*
X44232859Y18242730D01*
X44187364Y18275784D01*
X44166604Y18302839D01*
X44128282Y18352782D01*
X44128277Y18352786D01*
X44128276Y18352787D01*
X44038448Y18421714D01*
X44002841Y18449036D01*
X44002840Y18449037D01*
X44002838Y18449038D01*
X43856766Y18509543D01*
X43856758Y18509545D01*
X43700001Y18530182D01*
X43699999Y18530182D01*
X43543241Y18509545D01*
X43543233Y18509543D01*
X43397161Y18449038D01*
X43397160Y18449038D01*
X43271723Y18352787D01*
X43271716Y18352780D01*
X43198349Y18257166D01*
X43147924Y18222511D01*
X43086760Y18224113D01*
X43059596Y18241251D01*
X43058548Y18239884D01*
X42976500Y18302841D01*
X42927959Y18340088D01*
X42927958Y18340089D01*
X42927956Y18340090D01*
X42781884Y18400595D01*
X42781876Y18400597D01*
X42625119Y18421234D01*
X42625117Y18421234D01*
X42468359Y18400597D01*
X42468351Y18400595D01*
X42322279Y18340090D01*
X42322278Y18340090D01*
X42196841Y18243839D01*
X42196831Y18243829D01*
X42100580Y18118392D01*
X42100580Y18118391D01*
X42040075Y17972319D01*
X42040073Y17972311D01*
X42019436Y17815553D01*
X42019436Y17815552D01*
X41341821Y17815552D01*
X41353289Y17843238D01*
X41373927Y18000000D01*
X41353289Y18156762D01*
X41338180Y18193238D01*
X41292782Y18302839D01*
X41292782Y18302840D01*
X41196531Y18428277D01*
X41196530Y18428278D01*
X41196527Y18428282D01*
X41196522Y18428286D01*
X41196521Y18428287D01*
X41125349Y18482899D01*
X41071086Y18524536D01*
X41071085Y18524537D01*
X41071083Y18524538D01*
X40925011Y18585043D01*
X40925003Y18585045D01*
X40768246Y18605682D01*
X40768244Y18605682D01*
X40611486Y18585045D01*
X40611478Y18585043D01*
X40465406Y18524538D01*
X40465405Y18524538D01*
X40339968Y18428287D01*
X40339958Y18428277D01*
X40243707Y18302840D01*
X40243707Y18302839D01*
X40183202Y18156767D01*
X40183200Y18156759D01*
X40162563Y18000001D01*
X40162563Y18000000D01*
X33935022Y18000000D01*
X35155526Y19220504D01*
X35210043Y19248281D01*
X35225530Y19249500D01*
X48150500Y19249500D01*
X48208691Y19230593D01*
X48244655Y19181093D01*
X48249500Y19150500D01*
X48249500Y18034852D01*
X48241964Y17996967D01*
X48214957Y17931768D01*
X48214955Y17931759D01*
X48194318Y17775001D01*
X48194318Y17775000D01*
X48214955Y17618242D01*
X48214957Y17618234D01*
X48275462Y17472162D01*
X48275462Y17472161D01*
X48371713Y17346724D01*
X48371718Y17346718D01*
X48371722Y17346715D01*
X48371723Y17346714D01*
X48378535Y17341487D01*
X48497159Y17250464D01*
X48643238Y17189956D01*
X48760809Y17174478D01*
X48799999Y17169318D01*
X48800000Y17169318D01*
X48800001Y17169318D01*
X48831352Y17173446D01*
X48956762Y17189956D01*
X49102841Y17250464D01*
X49228282Y17346718D01*
X49324536Y17472159D01*
X49385044Y17618238D01*
X49405682Y17775000D01*
X49385044Y17931762D01*
X49385042Y17931768D01*
X49358036Y17996967D01*
X49350500Y18034852D01*
X49350500Y19530967D01*
X49369407Y19589158D01*
X49379496Y19600971D01*
X51874029Y22095504D01*
X51928546Y22123281D01*
X51944033Y22124500D01*
X57163921Y22124500D01*
X57167300Y22124442D01*
X57169638Y22124363D01*
X57231826Y22122238D01*
X57272999Y22132273D01*
X57282939Y22134161D01*
X57324920Y22139930D01*
X57343339Y22147932D01*
X57359337Y22153313D01*
X57378852Y22158067D01*
X57415788Y22178836D01*
X57424842Y22183334D01*
X57463720Y22200220D01*
X57479298Y22212895D01*
X57493257Y22222394D01*
X57510755Y22232232D01*
X57510754Y22232232D01*
X57510759Y22232234D01*
X57540736Y22262213D01*
X57548232Y22268977D01*
X57581108Y22295722D01*
X57592687Y22312128D01*
X57603557Y22325034D01*
X62899029Y27620504D01*
X62953546Y27648281D01*
X62969033Y27649500D01*
X66340149Y27649500D01*
X66378034Y27641964D01*
X66429844Y27620504D01*
X66443238Y27614956D01*
X66560809Y27599478D01*
X66599999Y27594318D01*
X66600000Y27594318D01*
X66600001Y27594318D01*
X66631352Y27598446D01*
X66756762Y27614956D01*
X66902841Y27675464D01*
X67028282Y27771718D01*
X67124536Y27897159D01*
X67185044Y28043238D01*
X67205682Y28200000D01*
X67185044Y28356762D01*
X67125713Y28500000D01*
X67124537Y28502839D01*
X67124537Y28502840D01*
X67028286Y28628277D01*
X67028285Y28628278D01*
X67028282Y28628282D01*
X67028277Y28628286D01*
X67028276Y28628287D01*
X66945681Y28691664D01*
X66902841Y28724536D01*
X66902840Y28724537D01*
X66902838Y28724538D01*
X66756766Y28785043D01*
X66756758Y28785045D01*
X66600001Y28805682D01*
X66599999Y28805682D01*
X66443241Y28785045D01*
X66443233Y28785043D01*
X66378034Y28758036D01*
X66340149Y28750500D01*
X62711079Y28750500D01*
X62707700Y28750558D01*
X62643175Y28752762D01*
X62643174Y28752762D01*
X62643173Y28752762D01*
X62643166Y28752761D01*
X62602020Y28742734D01*
X62592063Y28740841D01*
X62550080Y28735071D01*
X62531657Y28727068D01*
X62515659Y28721688D01*
X62496149Y28716934D01*
X62496144Y28716932D01*
X62459218Y28696170D01*
X62450146Y28691664D01*
X62411279Y28674780D01*
X62395698Y28662105D01*
X62381752Y28652613D01*
X62364241Y28642767D01*
X62334276Y28612803D01*
X62326755Y28606017D01*
X62293893Y28579281D01*
X62293891Y28579279D01*
X62282310Y28562873D01*
X62271437Y28549964D01*
X56975971Y23254496D01*
X56921454Y23226719D01*
X56905967Y23225500D01*
X51686079Y23225500D01*
X51682700Y23225558D01*
X51618175Y23227762D01*
X51618174Y23227762D01*
X51618173Y23227762D01*
X51618166Y23227761D01*
X51577020Y23217734D01*
X51567063Y23215841D01*
X51525080Y23210071D01*
X51506657Y23202068D01*
X51490659Y23196688D01*
X51471149Y23191934D01*
X51471144Y23191932D01*
X51434218Y23171170D01*
X51425146Y23166664D01*
X51386279Y23149780D01*
X51370698Y23137105D01*
X51356752Y23127613D01*
X51339241Y23117767D01*
X51309276Y23087803D01*
X51301755Y23081017D01*
X51268893Y23054281D01*
X51268891Y23054279D01*
X51257310Y23037873D01*
X51246437Y23024964D01*
X48600971Y20379496D01*
X48546454Y20351719D01*
X48530967Y20350500D01*
X34967593Y20350500D01*
X34964213Y20350558D01*
X34899671Y20352763D01*
X34899663Y20352763D01*
X34858508Y20342733D01*
X34848551Y20340840D01*
X34806575Y20335070D01*
X34788153Y20327069D01*
X34772161Y20321691D01*
X34752648Y20316935D01*
X34752642Y20316933D01*
X34715703Y20296164D01*
X34706629Y20291657D01*
X34667774Y20274780D01*
X34667773Y20274779D01*
X34652194Y20262105D01*
X34638248Y20252613D01*
X34620739Y20242767D01*
X34620738Y20242766D01*
X34590773Y20212803D01*
X34583252Y20206017D01*
X34550390Y20179281D01*
X34550388Y20179279D01*
X34538807Y20162873D01*
X34527934Y20149964D01*
X28118569Y13740599D01*
X28116140Y13738252D01*
X28068957Y13694184D01*
X28068955Y13694182D01*
X28046941Y13657984D01*
X28041242Y13649610D01*
X28015638Y13615845D01*
X28015638Y13615844D01*
X28008269Y13597160D01*
X28000765Y13582051D01*
X27990327Y13564885D01*
X27978894Y13524083D01*
X27975665Y13514479D01*
X27960123Y13475066D01*
X27960122Y13475062D01*
X27958068Y13455086D01*
X27954919Y13438513D01*
X27949500Y13419169D01*
X27949500Y13376803D01*
X27948981Y13366680D01*
X27944648Y13324530D01*
X27948060Y13304744D01*
X27949500Y13287921D01*
X27949500Y9559852D01*
X27941964Y9521967D01*
X27914957Y9456768D01*
X27914955Y9456759D01*
X27894318Y9300001D01*
X27894318Y9300000D01*
X3300000Y9300000D01*
X3300000Y10750000D01*
X650000Y10750000D01*
X400500Y10750000D01*
X400500Y11645500D01*
X419407Y11703691D01*
X468907Y11739655D01*
X499500Y11744500D01*
X21259182Y11744500D01*
X21259185Y11744500D01*
X21298006Y11745993D01*
X21313170Y11747161D01*
X21366015Y11754049D01*
X21502357Y11800011D01*
X21556965Y11827609D01*
X21569752Y11834302D01*
X21685218Y11920146D01*
X25325991Y15536967D01*
X29227021Y19412333D01*
X29227021Y19412335D01*
X29227033Y19412345D01*
X29254601Y19442019D01*
X29264922Y19454062D01*
X29264941Y19454088D01*
X29264949Y19454096D01*
X29298367Y19497680D01*
X29298366Y19497680D01*
X29298371Y19497685D01*
X29361853Y19626803D01*
X29380760Y19684994D01*
X29385024Y19698783D01*
X29385385Y19701301D01*
X29405500Y19841194D01*
X29405500Y25200500D01*
X29424407Y25258691D01*
X29473907Y25294655D01*
X29504500Y25299500D01*
X35000500Y25299500D01*
X35058691Y25280593D01*
X35094655Y25231093D01*
X35099500Y25200500D01*
X35099500Y24739310D01*
X35098281Y24723823D01*
X35094508Y24700001D01*
X35094508Y24699999D01*
X35098890Y24672331D01*
X35098891Y24672323D01*
X35099500Y24668481D01*
X35114354Y24574696D01*
X35171950Y24461658D01*
X35261658Y24371950D01*
X35374696Y24314354D01*
X35476178Y24298281D01*
X35499999Y24294508D01*
X35499999Y24294509D01*
X35500000Y24294508D01*
X35523822Y24298282D01*
X35539309Y24299500D01*
X49460691Y24299500D01*
X49476177Y24298282D01*
X49500000Y24294508D01*
X49625304Y24314354D01*
X49738342Y24371950D01*
X49828050Y24461658D01*
X49885646Y24574696D01*
X49900500Y24668481D01*
X49900500Y24668482D01*
X49905492Y24700000D01*
X49901719Y24723823D01*
X49900500Y24739310D01*
X49900500Y25200500D01*
X49919407Y25258691D01*
X49968907Y25294655D01*
X49999500Y25299500D01*
X55960691Y25299500D01*
X55976177Y25298282D01*
X56000000Y25294508D01*
X56125304Y25314354D01*
X56238342Y25371950D01*
X56328050Y25461658D01*
X56385646Y25574696D01*
X56400500Y25668481D01*
X56400500Y25668482D01*
X56405492Y25700000D01*
X56401719Y25723823D01*
X56400500Y25739310D01*
X56400500Y29495500D01*
X56419407Y29553691D01*
X56468907Y29589655D01*
X56499500Y29594500D01*
X68000994Y29594500D01*
X68001000Y29594500D01*
X68080070Y29600722D01*
X68110663Y29605567D01*
X68201467Y29628743D01*
X68328719Y29695887D01*
X68378219Y29731851D01*
X68401083Y29749482D01*
X68498371Y29855486D01*
X68561853Y29984604D01*
X68580760Y30042795D01*
X68585024Y30056584D01*
X68585385Y30059102D01*
X68605500Y30198995D01*
X68605500Y34745500D01*
X68624407Y34803691D01*
X68673907Y34839655D01*
X68704500Y34844500D01*
X80097163Y34844500D01*
X80155354Y34825593D01*
G37*
%TD.AperFunction*%
%TD*%
%TA.AperFunction,Conductor*%
%TO.N,GNDA*%
G36*
X83003522Y54599248D02*
G01*
X83030016Y54597354D01*
X83220577Y54583724D01*
X83234540Y54581717D01*
X83443721Y54536212D01*
X83457261Y54532236D01*
X83657833Y54457426D01*
X83670659Y54451569D01*
X83858545Y54348976D01*
X83870417Y54341346D01*
X84041781Y54213064D01*
X84052456Y54203815D01*
X84203814Y54052457D01*
X84213063Y54041782D01*
X84341345Y53870418D01*
X84348977Y53858542D01*
X84451565Y53670666D01*
X84457429Y53657826D01*
X84532233Y53457269D01*
X84536213Y53443716D01*
X84581714Y53234551D01*
X84583724Y53220570D01*
X84599248Y53003524D01*
X84599500Y52996461D01*
X84599500Y35449000D01*
X84580593Y35390809D01*
X84531093Y35354845D01*
X84500500Y35350000D01*
X81493067Y35350000D01*
X81434876Y35368907D01*
X81419496Y35382756D01*
X81405870Y35397889D01*
X81252731Y35509150D01*
X81252732Y35509150D01*
X81252730Y35509151D01*
X81252725Y35509153D01*
X81252722Y35509155D01*
X81079805Y35586143D01*
X81079803Y35586144D01*
X81079800Y35586145D01*
X81079799Y35586145D01*
X81044580Y35593631D01*
X80894646Y35625500D01*
X80705354Y35625500D01*
X80587289Y35600405D01*
X80520200Y35586145D01*
X80520194Y35586143D01*
X80347277Y35509155D01*
X80347268Y35509150D01*
X80194129Y35397889D01*
X80180504Y35382756D01*
X80127516Y35352163D01*
X80106933Y35350000D01*
X68100000Y35350000D01*
X68100000Y35349999D01*
X68100000Y30199000D01*
X68081093Y30140809D01*
X68031593Y30104845D01*
X68001000Y30100000D01*
X56499500Y30100000D01*
X56441309Y30118907D01*
X56405345Y30168407D01*
X56400500Y30199000D01*
X56400500Y45260692D01*
X56401719Y45276180D01*
X56405492Y45300001D01*
X56402778Y45317134D01*
X56385646Y45425304D01*
X56328050Y45538342D01*
X56238342Y45628050D01*
X56125304Y45685646D01*
X56125305Y45685646D01*
X56031519Y45700500D01*
X56000001Y45705492D01*
X56000000Y45705492D01*
X55976178Y45701719D01*
X55960691Y45700500D01*
X29039309Y45700500D01*
X29023822Y45701719D01*
X29000000Y45705492D01*
X28999999Y45705492D01*
X28968481Y45700500D01*
X28874694Y45685646D01*
X28761659Y45628051D01*
X28671949Y45538341D01*
X28614355Y45425308D01*
X28614354Y45425304D01*
X28594508Y45300001D01*
X28598281Y45276180D01*
X28599500Y45260692D01*
X28599500Y25739310D01*
X28598281Y25723823D01*
X28594508Y25700001D01*
X28594508Y25699999D01*
X28598890Y25672331D01*
X28598891Y25672323D01*
X28599500Y25668481D01*
X28614354Y25574696D01*
X28671950Y25461658D01*
X28761658Y25371950D01*
X28845948Y25329002D01*
X28889209Y25285740D01*
X28900000Y25240795D01*
X28900000Y19841199D01*
X28881093Y19783008D01*
X28870772Y19770965D01*
X24419864Y15349340D01*
X21368861Y12318407D01*
X21328957Y12278766D01*
X21274349Y12251168D01*
X21259185Y12250000D01*
X499500Y12250000D01*
X441309Y12268907D01*
X405345Y12318407D01*
X400500Y12349000D01*
X400500Y43100000D01*
X19369540Y43100000D01*
X19389327Y42911739D01*
X19447819Y42731721D01*
X19447825Y42731707D01*
X19523015Y42601475D01*
X19542467Y42567784D01*
X19669129Y42427112D01*
X19822270Y42315849D01*
X19995197Y42238856D01*
X20180354Y42199500D01*
X20180357Y42199500D01*
X20369643Y42199500D01*
X20369646Y42199500D01*
X20554803Y42238856D01*
X20727730Y42315849D01*
X20880871Y42427112D01*
X21007533Y42567784D01*
X21102179Y42731716D01*
X21160674Y42911744D01*
X21180460Y43100000D01*
X21160674Y43288256D01*
X21102179Y43468284D01*
X21102176Y43468289D01*
X21102174Y43468294D01*
X21053551Y43552510D01*
X21007533Y43632216D01*
X20880871Y43772888D01*
X20727730Y43884151D01*
X20727725Y43884153D01*
X20727722Y43884155D01*
X20554805Y43961143D01*
X20554803Y43961144D01*
X20554800Y43961145D01*
X20554799Y43961145D01*
X20519580Y43968631D01*
X20369646Y44000500D01*
X20180354Y44000500D01*
X20062289Y43975405D01*
X19995200Y43961145D01*
X19995194Y43961143D01*
X19822277Y43884155D01*
X19822268Y43884150D01*
X19669129Y43772889D01*
X19669124Y43772884D01*
X19542469Y43632219D01*
X19542465Y43632213D01*
X19447825Y43468294D01*
X19447819Y43468280D01*
X19389327Y43288262D01*
X19369540Y43100000D01*
X400500Y43100000D01*
X400500Y50087500D01*
X18894540Y50087500D01*
X18909749Y49942788D01*
X18914327Y49899239D01*
X18972819Y49719221D01*
X18972825Y49719207D01*
X19048015Y49588975D01*
X19067467Y49555284D01*
X19194129Y49414612D01*
X19347270Y49303349D01*
X19520197Y49226356D01*
X19705354Y49187000D01*
X19705357Y49187000D01*
X19894643Y49187000D01*
X19894646Y49187000D01*
X20079803Y49226356D01*
X20252730Y49303349D01*
X20405871Y49414612D01*
X20532533Y49555284D01*
X20627179Y49719216D01*
X20685674Y49899244D01*
X20705460Y50087500D01*
X20685674Y50275756D01*
X20627179Y50455784D01*
X20627176Y50455789D01*
X20627174Y50455794D01*
X20616085Y50475000D01*
X65119540Y50475000D01*
X65139327Y50286739D01*
X65197819Y50106721D01*
X65197825Y50106707D01*
X65273015Y49976475D01*
X65292467Y49942784D01*
X65419129Y49802112D01*
X65572270Y49690849D01*
X65745197Y49613856D01*
X65930354Y49574500D01*
X65930357Y49574500D01*
X66119643Y49574500D01*
X66119646Y49574500D01*
X66304803Y49613856D01*
X66477730Y49690849D01*
X66630871Y49802112D01*
X66757533Y49942784D01*
X66852179Y50106716D01*
X66910674Y50286744D01*
X66930460Y50475000D01*
X66910674Y50663256D01*
X66852179Y50843284D01*
X66852176Y50843289D01*
X66852174Y50843294D01*
X66768627Y50988000D01*
X66757533Y51007216D01*
X66630871Y51147888D01*
X66477730Y51259151D01*
X66477725Y51259153D01*
X66477722Y51259155D01*
X66304805Y51336143D01*
X66304803Y51336144D01*
X66304800Y51336145D01*
X66304799Y51336145D01*
X66269580Y51343631D01*
X66119646Y51375500D01*
X65930354Y51375500D01*
X65812289Y51350405D01*
X65745200Y51336145D01*
X65745194Y51336143D01*
X65572277Y51259155D01*
X65572268Y51259150D01*
X65419129Y51147889D01*
X65419124Y51147884D01*
X65292469Y51007219D01*
X65292465Y51007213D01*
X65197825Y50843294D01*
X65197819Y50843280D01*
X65139327Y50663262D01*
X65119540Y50475000D01*
X20616085Y50475000D01*
X20578551Y50540010D01*
X20532533Y50619716D01*
X20405871Y50760388D01*
X20252730Y50871651D01*
X20252725Y50871653D01*
X20252722Y50871655D01*
X20079805Y50948643D01*
X20079803Y50948644D01*
X20079800Y50948645D01*
X20079799Y50948645D01*
X20044580Y50956131D01*
X19894646Y50988000D01*
X19705354Y50988000D01*
X19587289Y50962905D01*
X19520200Y50948645D01*
X19520194Y50948643D01*
X19347277Y50871655D01*
X19347268Y50871650D01*
X19194129Y50760389D01*
X19194124Y50760384D01*
X19067469Y50619719D01*
X19067465Y50619713D01*
X18972825Y50455794D01*
X18972819Y50455780D01*
X18914327Y50275762D01*
X18914326Y50275758D01*
X18914326Y50275756D01*
X18894540Y50087500D01*
X400500Y50087500D01*
X400500Y52996461D01*
X400752Y53003523D01*
X410885Y53145204D01*
X416276Y53220580D01*
X418283Y53234539D01*
X463788Y53443726D01*
X467762Y53457259D01*
X542576Y53657840D01*
X548428Y53670655D01*
X651027Y53858552D01*
X658654Y53870418D01*
X786936Y54041782D01*
X796178Y54052450D01*
X947550Y54203822D01*
X958218Y54213064D01*
X1129582Y54341346D01*
X1141448Y54348973D01*
X1329345Y54451572D01*
X1342160Y54457424D01*
X1542741Y54532238D01*
X1556274Y54536212D01*
X1765461Y54581717D01*
X1779420Y54583724D01*
X1972193Y54597512D01*
X1996478Y54599248D01*
X2003540Y54599500D01*
X2057583Y54599500D01*
X82942417Y54599500D01*
X82996460Y54599500D01*
X83003522Y54599248D01*
G37*
%TD.AperFunction*%
%TD*%
M02*
