%TF.GenerationSoftware,KiCad,Pcbnew,7.0.10*%
%TF.CreationDate,2024-02-06T19:30:05-08:00*%
%TF.ProjectId,main_board,6d61696e-5f62-46f6-9172-642e6b696361,rev?*%
%TF.SameCoordinates,Original*%
%TF.FileFunction,Copper,L2,Inr*%
%TF.FilePolarity,Positive*%
%FSLAX46Y46*%
G04 Gerber Fmt 4.6, Leading zero omitted, Abs format (unit mm)*
G04 Created by KiCad (PCBNEW 7.0.10) date 2024-02-06 19:30:05*
%MOMM*%
%LPD*%
G01*
G04 APERTURE LIST*
%TA.AperFunction,NonConductor*%
%ADD10C,0.200000*%
%TD*%
%ADD11C,0.200000*%
%TA.AperFunction,ComponentPad*%
%ADD12O,1.000000X2.100000*%
%TD*%
%TA.AperFunction,ComponentPad*%
%ADD13O,1.000000X1.800000*%
%TD*%
%TA.AperFunction,ViaPad*%
%ADD14C,0.800000*%
%TD*%
%TA.AperFunction,Conductor*%
%ADD15C,0.200000*%
%TD*%
%TA.AperFunction,Conductor*%
%ADD16C,0.700000*%
%TD*%
G04 APERTURE END LIST*
D10*
X2900000Y5900000D02*
X1050000Y5900000D01*
X2900000Y8750000D02*
X1050000Y8750000D01*
X2900000Y7375000D02*
X1050000Y7375000D01*
X1050000Y10300000D02*
X2900000Y10300000D01*
X2900000Y4450000D01*
X1050000Y4450000D01*
X1050000Y10300000D01*
D11*
D10*
X1467219Y6825565D02*
X1467219Y6206518D01*
X1467219Y6206518D02*
X1848171Y6539851D01*
X1848171Y6539851D02*
X1848171Y6396994D01*
X1848171Y6396994D02*
X1895790Y6301756D01*
X1895790Y6301756D02*
X1943409Y6254137D01*
X1943409Y6254137D02*
X2038647Y6206518D01*
X2038647Y6206518D02*
X2276742Y6206518D01*
X2276742Y6206518D02*
X2371980Y6254137D01*
X2371980Y6254137D02*
X2419600Y6301756D01*
X2419600Y6301756D02*
X2467219Y6396994D01*
X2467219Y6396994D02*
X2467219Y6682708D01*
X2467219Y6682708D02*
X2419600Y6777946D01*
X2419600Y6777946D02*
X2371980Y6825565D01*
D12*
%TO.N,GND*%
%TO.C,J1*%
X36430000Y6800000D03*
D13*
X36430000Y2620000D03*
D12*
X45070000Y6800000D03*
D13*
X45070000Y2620000D03*
%TD*%
D14*
%TO.N,Net-(M1-ECG_L)*%
X66025000Y50475000D03*
%TO.N,Net-(M1-ECG_R)*%
X19800000Y50087500D03*
%TO.N,+BATT*%
X66600000Y28200000D03*
X28500000Y9300000D03*
X48800000Y17775000D03*
%TO.N,+5V*%
X53150000Y7750000D03*
X42375000Y5925000D03*
%TO.N,/USB_D-*%
X61722000Y21550000D03*
X39775500Y9075000D03*
X41224500Y9050000D03*
%TO.N,/USB_D+*%
X40511876Y9774500D03*
X60579000Y21524500D03*
%TO.N,Net-(BT1--)*%
X16686875Y5100000D03*
X11600000Y5100000D03*
%TO.N,GND*%
X32137500Y10212500D03*
X54375000Y20075000D03*
X79375000Y34375000D03*
X69025000Y14700000D03*
X79900000Y23000000D03*
X44550498Y11649502D03*
X39000000Y17275000D03*
X41000000Y13200500D03*
X36150000Y12200000D03*
X66525000Y26675000D03*
X70425000Y14700000D03*
X26400000Y10300000D03*
X29400000Y7100000D03*
X77450000Y18100000D03*
X31700000Y15200000D03*
X38515052Y15149500D03*
X77400000Y28475000D03*
X69025000Y13300000D03*
X26400000Y11300000D03*
X53800000Y17400000D03*
X70425000Y13300000D03*
X51800000Y11950000D03*
X58550000Y20950000D03*
X71700000Y18699500D03*
X29200000Y5000000D03*
X68225000Y24625000D03*
X36100000Y15149500D03*
X51800000Y13900000D03*
X57425000Y5525000D03*
X77978000Y1143000D03*
X83450000Y21800000D03*
%TO.N,GNDA*%
X24175000Y17650000D03*
X25100000Y17300000D03*
X23150000Y17325000D03*
X63400000Y32900000D03*
X63350000Y31800000D03*
X63300000Y30700000D03*
X64900000Y34400000D03*
%TO.N,/~{TOUCH}*%
X76200000Y4900000D03*
X83000000Y34000000D03*
%TO.N,/~{DISPLAY_CS}*%
X63150000Y18850000D03*
X44833372Y17926531D03*
%TO.N,/DISPLAY_D{slash}~{C}*%
X66225000Y18875000D03*
X42625118Y17815552D03*
%TO.N,/DISPLAY_SCK*%
X40768245Y18000000D03*
X67275000Y7775000D03*
%TO.N,/ECG_EN*%
X80800000Y34725000D03*
X73350000Y8800000D03*
%TO.N,/CHG_STAT*%
X30825000Y12025000D03*
X64850000Y5925000D03*
%TO.N,/VBUS_DETECT*%
X57842775Y6773982D03*
X74850000Y4500000D03*
%TO.N,/BATT_SCL*%
X54950000Y8875500D03*
X29321224Y2913999D03*
X62195000Y5450000D03*
%TO.N,/DISPLAY_MOSI*%
X40075000Y16675000D03*
X65450000Y7525000D03*
%TO.N,/EN*%
X49700000Y4350000D03*
X72950000Y18350000D03*
%TO.N,/ECG_CLK_EN*%
X82000000Y32600000D03*
X69550000Y5600000D03*
%TO.N,Net-(M1-RLD_OUT)*%
X20275000Y43100000D03*
%TO.N,/BATT_SDA*%
X62782500Y6757500D03*
X56499000Y9575000D03*
X29400000Y3939500D03*
%TO.N,VDD*%
X33000000Y4100000D03*
X35800000Y14137000D03*
X33910500Y8400000D03*
%TO.N,/ECG_CS*%
X70100000Y28500000D03*
X73025000Y25575000D03*
X67100000Y11350000D03*
%TO.N,/DISPLAY_RESET*%
X64735000Y18850000D03*
X43700000Y17924500D03*
%TD*%
D15*
%TO.N,/~{DISPLAY_CS}*%
X45856841Y18950000D02*
X44833372Y17926531D01*
X63150000Y18850000D02*
X63050000Y18950000D01*
X63050000Y18950000D02*
X45856841Y18950000D01*
%TO.N,/DISPLAY_D{slash}~{C}*%
X62460050Y18550000D02*
X46446791Y18550000D01*
X42924500Y17510050D02*
X42924500Y17516170D01*
X66225000Y18875000D02*
X65500000Y18150000D01*
X62860050Y18150000D02*
X62460050Y18550000D01*
X43209550Y17225000D02*
X42924500Y17510050D01*
X65500000Y18150000D02*
X62860050Y18150000D01*
X46446791Y18550000D02*
X45121791Y17225000D01*
X42924500Y17516170D02*
X42625118Y17815552D01*
X45121791Y17225000D02*
X43209550Y17225000D01*
%TO.N,/DISPLAY_SCK*%
X67275000Y7775000D02*
X58725000Y16325000D01*
X40768245Y17881755D02*
X40768245Y18000000D01*
X42325000Y16325000D02*
X40768245Y17881755D01*
X58725000Y16325000D02*
X42325000Y16325000D01*
%TO.N,/CHG_STAT*%
X40350000Y14600000D02*
X39025000Y15925000D01*
X64850000Y6300000D02*
X56550000Y14600000D01*
X34725000Y15925000D02*
X30825000Y12025000D01*
X56550000Y14600000D02*
X40350000Y14600000D01*
X64850000Y5925000D02*
X64850000Y6300000D01*
X39025000Y15925000D02*
X34725000Y15925000D01*
%TO.N,/VBUS_DETECT*%
X57842775Y6773982D02*
X60466757Y4150000D01*
X60466757Y4150000D02*
X66440000Y4150000D01*
X66790000Y4500000D02*
X74850000Y4500000D01*
X66440000Y4150000D02*
X66790000Y4500000D01*
%TO.N,/BATT_SCL*%
X46300000Y4400000D02*
X36034500Y4400000D01*
X54950000Y8875500D02*
X50775500Y8875500D01*
X34084500Y2450000D02*
X29785223Y2450000D01*
X29785223Y2450000D02*
X29321224Y2913999D01*
X36034500Y4400000D02*
X34084500Y2450000D01*
X50775500Y8875500D02*
X46300000Y4400000D01*
%TO.N,/DISPLAY_MOSI*%
X57525000Y15450000D02*
X65450000Y7525000D01*
X41300000Y15450000D02*
X57525000Y15450000D01*
X40075000Y16675000D02*
X41300000Y15450000D01*
%TO.N,/BATT_SDA*%
X50909314Y9575000D02*
X46134314Y4800000D01*
X56499000Y9575000D02*
X50909314Y9575000D01*
X29552748Y3939500D02*
X29400000Y3939500D01*
X30642248Y2850000D02*
X29552748Y3939500D01*
X46134314Y4800000D02*
X35868814Y4800000D01*
X33918814Y2850000D02*
X30642248Y2850000D01*
X35868814Y4800000D02*
X33918814Y2850000D01*
D16*
%TO.N,VDD*%
X33910500Y12247500D02*
X35800000Y14137000D01*
X33000000Y4100000D02*
X33910500Y5010500D01*
X33910500Y5010500D02*
X33910500Y12247500D01*
D15*
%TO.N,/DISPLAY_RESET*%
X43700000Y17924500D02*
X45125500Y19350000D01*
X62860050Y19550000D02*
X64035000Y19550000D01*
X62660050Y19350000D02*
X62860050Y19550000D01*
X64035000Y19550000D02*
X64735000Y18850000D01*
X45125500Y19350000D02*
X62660050Y19350000D01*
%TD*%
%TA.AperFunction,Conductor*%
%TO.N,GND*%
G36*
X80155354Y34825593D02*
G01*
X80191318Y34776093D01*
X80195315Y34732579D01*
X80194318Y34725000D01*
X80194318Y34724998D01*
X80214955Y34568242D01*
X80214957Y34568234D01*
X80275462Y34422162D01*
X80275462Y34422161D01*
X80367020Y34302840D01*
X80371718Y34296718D01*
X80497159Y34200464D01*
X80497160Y34200464D01*
X80497161Y34200463D01*
X80602665Y34156762D01*
X80643238Y34139956D01*
X80760809Y34124478D01*
X80799999Y34119318D01*
X80800000Y34119318D01*
X80800001Y34119318D01*
X80831352Y34123446D01*
X80956762Y34139956D01*
X81102841Y34200464D01*
X81228282Y34296718D01*
X81324536Y34422159D01*
X81385044Y34568238D01*
X81405682Y34725000D01*
X81404684Y34732578D01*
X81415833Y34792736D01*
X81460214Y34834855D01*
X81502837Y34844500D01*
X84500500Y34844500D01*
X84558691Y34825593D01*
X84594655Y34776093D01*
X84599500Y34745500D01*
X84599500Y20399000D01*
X84580593Y20340809D01*
X84531093Y20304845D01*
X84500500Y20300000D01*
X78925000Y20300000D01*
X78925000Y20299999D01*
X78925000Y499500D01*
X78906093Y441309D01*
X78856593Y405345D01*
X78826000Y400500D01*
X2003540Y400500D01*
X1996477Y400752D01*
X1779430Y416276D01*
X1765449Y418286D01*
X1556284Y463787D01*
X1542731Y467767D01*
X1342174Y542571D01*
X1329334Y548435D01*
X1141458Y651023D01*
X1129582Y658655D01*
X958218Y786937D01*
X947543Y796186D01*
X796185Y947544D01*
X786936Y958219D01*
X658654Y1129583D01*
X651024Y1141455D01*
X548431Y1329341D01*
X542574Y1342167D01*
X467764Y1542739D01*
X463788Y1556279D01*
X418283Y1765460D01*
X416276Y1779423D01*
X400752Y1996478D01*
X400500Y2003540D01*
X400500Y2913999D01*
X28715542Y2913999D01*
X28736179Y2757241D01*
X28736181Y2757233D01*
X28796686Y2611161D01*
X28796686Y2611160D01*
X28892937Y2485723D01*
X28892942Y2485717D01*
X29018383Y2389463D01*
X29164462Y2328955D01*
X29282033Y2313477D01*
X29321223Y2308317D01*
X29321224Y2308317D01*
X29432508Y2322968D01*
X29492667Y2311818D01*
X29515433Y2294819D01*
X29526659Y2283593D01*
X29534760Y2272353D01*
X29535739Y2273091D01*
X29541267Y2265770D01*
X29575947Y2234155D01*
X29579255Y2230997D01*
X29592426Y2217826D01*
X29592518Y2217763D01*
X29603265Y2209250D01*
X29624285Y2190087D01*
X29624287Y2190086D01*
X29624290Y2190084D01*
X29633456Y2186533D01*
X29653635Y2175897D01*
X29661743Y2170343D01*
X29689438Y2163829D01*
X29702519Y2159778D01*
X29729050Y2149500D01*
X29738875Y2149500D01*
X29761539Y2146871D01*
X29771104Y2144621D01*
X29798868Y2148494D01*
X29799277Y2148551D01*
X29812954Y2149500D01*
X34019336Y2149500D01*
X34033011Y2147268D01*
X34033183Y2148494D01*
X34042264Y2147228D01*
X34042265Y2147227D01*
X34042265Y2147228D01*
X34042266Y2147227D01*
X34089142Y2149394D01*
X34093714Y2149500D01*
X34112342Y2149500D01*
X34112344Y2149500D01*
X34112448Y2149520D01*
X34126071Y2151102D01*
X34154492Y2152415D01*
X34163476Y2156383D01*
X34185277Y2163135D01*
X34194933Y2164939D01*
X34215460Y2177649D01*
X35730000Y2177649D01*
X35745348Y2051252D01*
X35745351Y2051242D01*
X35805626Y1892310D01*
X35805628Y1892307D01*
X35902194Y1752406D01*
X35902199Y1752400D01*
X36029431Y1639682D01*
X36179952Y1560683D01*
X36179955Y1560682D01*
X36329999Y1523699D01*
X36330000Y1523699D01*
X36330000Y1936546D01*
X36401840Y1916105D01*
X36513521Y1926454D01*
X36530000Y1934660D01*
X36530000Y1523699D01*
X36680044Y1560682D01*
X36680047Y1560683D01*
X36830568Y1639682D01*
X36830569Y1639682D01*
X36957800Y1752400D01*
X36957805Y1752406D01*
X37054371Y1892307D01*
X37054373Y1892310D01*
X37114648Y2051242D01*
X37114651Y2051252D01*
X37129999Y2177649D01*
X44370000Y2177649D01*
X44385348Y2051252D01*
X44385351Y2051242D01*
X44445626Y1892310D01*
X44445628Y1892307D01*
X44542194Y1752406D01*
X44542199Y1752400D01*
X44669431Y1639682D01*
X44819952Y1560683D01*
X44819955Y1560682D01*
X44969999Y1523699D01*
X44970000Y1523699D01*
X44970000Y1936546D01*
X45041840Y1916105D01*
X45153521Y1926454D01*
X45170000Y1934660D01*
X45170000Y1523699D01*
X45320044Y1560682D01*
X45320047Y1560683D01*
X45470568Y1639682D01*
X45470569Y1639682D01*
X45597800Y1752400D01*
X45597805Y1752406D01*
X45694371Y1892307D01*
X45694373Y1892310D01*
X45754648Y2051242D01*
X45754651Y2051252D01*
X45769999Y2177649D01*
X45770000Y2177666D01*
X45770000Y2519999D01*
X45769999Y2520000D01*
X45370000Y2520000D01*
X45370000Y2720000D01*
X45769999Y2720000D01*
X45770000Y2720001D01*
X45770000Y3062335D01*
X45769999Y3062352D01*
X45754651Y3188749D01*
X45754648Y3188759D01*
X45694373Y3347691D01*
X45694371Y3347694D01*
X45597805Y3487595D01*
X45597800Y3487601D01*
X45470568Y3600319D01*
X45320046Y3679318D01*
X45170000Y3716302D01*
X45170000Y3303455D01*
X45098160Y3323895D01*
X44986479Y3313546D01*
X44970000Y3305341D01*
X44970000Y3716302D01*
X44819953Y3679318D01*
X44819952Y3679318D01*
X44669431Y3600319D01*
X44669430Y3600319D01*
X44542199Y3487601D01*
X44542194Y3487595D01*
X44445628Y3347694D01*
X44445626Y3347691D01*
X44385351Y3188759D01*
X44385348Y3188749D01*
X44370000Y3062352D01*
X44370000Y2720001D01*
X44370001Y2720000D01*
X44770000Y2720000D01*
X44770000Y2520000D01*
X44370001Y2520000D01*
X44370000Y2519999D01*
X44370000Y2177649D01*
X37129999Y2177649D01*
X37130000Y2177666D01*
X37130000Y2519999D01*
X37129999Y2520000D01*
X36730000Y2520000D01*
X36730000Y2720000D01*
X37129999Y2720000D01*
X37130000Y2720001D01*
X37130000Y3062335D01*
X37129999Y3062352D01*
X37114651Y3188749D01*
X37114648Y3188759D01*
X37054373Y3347691D01*
X37054371Y3347694D01*
X36957805Y3487595D01*
X36957800Y3487601D01*
X36830568Y3600319D01*
X36680046Y3679318D01*
X36530000Y3716302D01*
X36530000Y3303455D01*
X36458160Y3323895D01*
X36346479Y3313546D01*
X36330000Y3305341D01*
X36330000Y3716302D01*
X36179953Y3679318D01*
X36179952Y3679318D01*
X36029431Y3600319D01*
X36029430Y3600319D01*
X35902199Y3487601D01*
X35902194Y3487595D01*
X35805628Y3347694D01*
X35805626Y3347691D01*
X35745351Y3188759D01*
X35745348Y3188749D01*
X35730000Y3062352D01*
X35730000Y2720001D01*
X35730001Y2720000D01*
X36130000Y2720000D01*
X36130000Y2520000D01*
X35730001Y2520000D01*
X35730000Y2519999D01*
X35730000Y2177649D01*
X34215460Y2177649D01*
X34219118Y2179914D01*
X34231228Y2186299D01*
X34257265Y2197794D01*
X34264209Y2204740D01*
X34282101Y2218911D01*
X34290452Y2224081D01*
X34307589Y2246777D01*
X34316582Y2257113D01*
X36129975Y4070504D01*
X36184492Y4098281D01*
X36199979Y4099500D01*
X46234836Y4099500D01*
X46248511Y4097268D01*
X46248683Y4098494D01*
X46257764Y4097228D01*
X46257765Y4097227D01*
X46257765Y4097228D01*
X46257766Y4097227D01*
X46304642Y4099394D01*
X46309214Y4099500D01*
X46327842Y4099500D01*
X46327844Y4099500D01*
X46327948Y4099520D01*
X46341571Y4101102D01*
X46369992Y4102415D01*
X46378976Y4106383D01*
X46400777Y4113135D01*
X46410433Y4114939D01*
X46434618Y4129914D01*
X46446728Y4136299D01*
X46472765Y4147794D01*
X46479709Y4154740D01*
X46497601Y4168911D01*
X46505952Y4174081D01*
X46523089Y4196777D01*
X46532082Y4207113D01*
X46674969Y4350000D01*
X49094318Y4350000D01*
X49114955Y4193242D01*
X49114957Y4193234D01*
X49175462Y4047162D01*
X49175462Y4047161D01*
X49271713Y3921724D01*
X49271718Y3921718D01*
X49271722Y3921715D01*
X49271723Y3921714D01*
X49276790Y3917826D01*
X49397159Y3825464D01*
X49397160Y3825464D01*
X49397161Y3825463D01*
X49500318Y3782734D01*
X49543238Y3764956D01*
X49660809Y3749478D01*
X49699999Y3744318D01*
X49700000Y3744318D01*
X49700001Y3744318D01*
X49731352Y3748446D01*
X49856762Y3764956D01*
X50002841Y3825464D01*
X50128282Y3921718D01*
X50224536Y4047159D01*
X50285044Y4193238D01*
X50305682Y4350000D01*
X50285044Y4506762D01*
X50277679Y4524543D01*
X50224537Y4652839D01*
X50224537Y4652840D01*
X50128286Y4778277D01*
X50128285Y4778278D01*
X50128282Y4778282D01*
X50128277Y4778286D01*
X50128276Y4778287D01*
X50002838Y4874538D01*
X49856766Y4935043D01*
X49856758Y4935045D01*
X49700001Y4955682D01*
X49699999Y4955682D01*
X49543241Y4935045D01*
X49543233Y4935043D01*
X49397161Y4874538D01*
X49397160Y4874538D01*
X49271723Y4778287D01*
X49271713Y4778277D01*
X49175462Y4652840D01*
X49175462Y4652839D01*
X49114957Y4506767D01*
X49114955Y4506759D01*
X49094318Y4350001D01*
X49094318Y4350000D01*
X46674969Y4350000D01*
X49098952Y6773982D01*
X57237093Y6773982D01*
X57257730Y6617224D01*
X57257732Y6617216D01*
X57318237Y6471144D01*
X57318237Y6471143D01*
X57366749Y6407921D01*
X57414493Y6345700D01*
X57539934Y6249446D01*
X57539935Y6249446D01*
X57539936Y6249445D01*
X57645589Y6205682D01*
X57686013Y6188938D01*
X57803584Y6173460D01*
X57842774Y6168300D01*
X57842775Y6168300D01*
X57954059Y6182951D01*
X58014218Y6171801D01*
X58036984Y6154802D01*
X60208193Y3983593D01*
X60216294Y3972353D01*
X60217273Y3973091D01*
X60222801Y3965770D01*
X60257481Y3934155D01*
X60260789Y3930997D01*
X60273960Y3917826D01*
X60274052Y3917763D01*
X60284799Y3909250D01*
X60305821Y3890086D01*
X60305822Y3890086D01*
X60305824Y3890084D01*
X60314982Y3886537D01*
X60335169Y3875897D01*
X60343276Y3870343D01*
X60370967Y3863831D01*
X60384052Y3859779D01*
X60401747Y3852924D01*
X60406443Y3851104D01*
X60410584Y3849500D01*
X60420409Y3849500D01*
X60443073Y3846871D01*
X60452638Y3844621D01*
X60480402Y3848494D01*
X60480811Y3848551D01*
X60494488Y3849500D01*
X66374836Y3849500D01*
X66388511Y3847268D01*
X66388683Y3848494D01*
X66397764Y3847228D01*
X66397765Y3847227D01*
X66397765Y3847228D01*
X66397766Y3847227D01*
X66444642Y3849394D01*
X66449214Y3849500D01*
X66467842Y3849500D01*
X66467844Y3849500D01*
X66467948Y3849520D01*
X66481571Y3851102D01*
X66509992Y3852415D01*
X66518976Y3856383D01*
X66540777Y3863135D01*
X66550433Y3864939D01*
X66574618Y3879914D01*
X66586728Y3886299D01*
X66612765Y3897794D01*
X66619709Y3904740D01*
X66637601Y3918911D01*
X66645952Y3924081D01*
X66663092Y3946781D01*
X66672086Y3957117D01*
X66885475Y4170504D01*
X66939991Y4198281D01*
X66955478Y4199500D01*
X74274846Y4199500D01*
X74333037Y4180593D01*
X74353388Y4160767D01*
X74402886Y4096260D01*
X74421718Y4071718D01*
X74547159Y3975464D01*
X74547160Y3975464D01*
X74547161Y3975463D01*
X74693233Y3914958D01*
X74693238Y3914956D01*
X74810809Y3899478D01*
X74849999Y3894318D01*
X74850000Y3894318D01*
X74850001Y3894318D01*
X74881352Y3898446D01*
X75006762Y3914956D01*
X75152841Y3975464D01*
X75278282Y4071718D01*
X75374536Y4197159D01*
X75435044Y4343238D01*
X75455682Y4500000D01*
X75435044Y4656762D01*
X75401329Y4738158D01*
X75374537Y4802839D01*
X75374537Y4802840D01*
X75299984Y4900000D01*
X75594318Y4900000D01*
X75614955Y4743242D01*
X75614957Y4743234D01*
X75675462Y4597162D01*
X75675462Y4597161D01*
X75771713Y4471724D01*
X75771718Y4471718D01*
X75897159Y4375464D01*
X75897160Y4375464D01*
X75897161Y4375463D01*
X75974959Y4343238D01*
X76043238Y4314956D01*
X76160809Y4299478D01*
X76199999Y4294318D01*
X76200000Y4294318D01*
X76200001Y4294318D01*
X76231352Y4298446D01*
X76356762Y4314956D01*
X76502841Y4375464D01*
X76628282Y4471718D01*
X76724536Y4597159D01*
X76785044Y4743238D01*
X76805682Y4900000D01*
X76785044Y5056762D01*
X76766883Y5100606D01*
X76724537Y5202839D01*
X76724537Y5202840D01*
X76628286Y5328277D01*
X76628285Y5328278D01*
X76628282Y5328282D01*
X76628277Y5328286D01*
X76628276Y5328287D01*
X76557104Y5382899D01*
X76502841Y5424536D01*
X76502840Y5424537D01*
X76502838Y5424538D01*
X76356766Y5485043D01*
X76356758Y5485045D01*
X76200001Y5505682D01*
X76199999Y5505682D01*
X76043241Y5485045D01*
X76043233Y5485043D01*
X75897161Y5424538D01*
X75897160Y5424538D01*
X75771723Y5328287D01*
X75771713Y5328277D01*
X75675462Y5202840D01*
X75675462Y5202839D01*
X75614957Y5056767D01*
X75614955Y5056759D01*
X75594318Y4900001D01*
X75594318Y4900000D01*
X75299984Y4900000D01*
X75278286Y4928277D01*
X75278285Y4928278D01*
X75278282Y4928282D01*
X75278277Y4928286D01*
X75278276Y4928287D01*
X75165323Y5014958D01*
X75152841Y5024536D01*
X75152840Y5024537D01*
X75152838Y5024538D01*
X75006766Y5085043D01*
X75006758Y5085045D01*
X74850001Y5105682D01*
X74849999Y5105682D01*
X74693241Y5085045D01*
X74693233Y5085043D01*
X74547161Y5024538D01*
X74547160Y5024538D01*
X74421723Y4928287D01*
X74421713Y4928277D01*
X74353388Y4839233D01*
X74302963Y4804577D01*
X74274846Y4800500D01*
X69588254Y4800500D01*
X69554688Y4811406D01*
X69511746Y4800500D01*
X66855165Y4800500D01*
X66841489Y4802733D01*
X66841318Y4801506D01*
X66832234Y4802774D01*
X66785359Y4800606D01*
X66780787Y4800500D01*
X66762152Y4800500D01*
X66762029Y4800477D01*
X66748419Y4798899D01*
X66720011Y4797586D01*
X66720007Y4797585D01*
X66711013Y4793614D01*
X66689228Y4786868D01*
X66679571Y4785063D01*
X66679565Y4785061D01*
X66655381Y4770087D01*
X66643259Y4763698D01*
X66617238Y4752208D01*
X66617231Y4752204D01*
X66610286Y4745258D01*
X66592406Y4731095D01*
X66584048Y4725920D01*
X66566904Y4703218D01*
X66557906Y4692879D01*
X66344526Y4479497D01*
X66290009Y4451719D01*
X66274522Y4450500D01*
X60632236Y4450500D01*
X60574045Y4469407D01*
X60562232Y4479496D01*
X59591728Y5450000D01*
X61589318Y5450000D01*
X61609955Y5293242D01*
X61609957Y5293234D01*
X61670462Y5147162D01*
X61670462Y5147161D01*
X61766713Y5021724D01*
X61766718Y5021718D01*
X61892159Y4925464D01*
X61892160Y4925464D01*
X61892161Y4925463D01*
X61953632Y4900001D01*
X62038238Y4864956D01*
X62155809Y4849478D01*
X62194999Y4844318D01*
X62195000Y4844318D01*
X62195001Y4844318D01*
X62226352Y4848446D01*
X62351762Y4864956D01*
X62497841Y4925464D01*
X62623282Y5021718D01*
X62719536Y5147159D01*
X62780044Y5293238D01*
X62800682Y5450000D01*
X62780044Y5606762D01*
X62747619Y5685043D01*
X62719537Y5752839D01*
X62719537Y5752840D01*
X62623286Y5878277D01*
X62623285Y5878278D01*
X62623282Y5878282D01*
X62623277Y5878286D01*
X62623276Y5878287D01*
X62497838Y5974538D01*
X62351766Y6035043D01*
X62351758Y6035045D01*
X62195001Y6055682D01*
X62194999Y6055682D01*
X62038241Y6035045D01*
X62038233Y6035043D01*
X61892161Y5974538D01*
X61892160Y5974538D01*
X61766723Y5878287D01*
X61766713Y5878277D01*
X61670462Y5752840D01*
X61670462Y5752839D01*
X61609957Y5606767D01*
X61609955Y5606759D01*
X61589318Y5450001D01*
X61589318Y5450000D01*
X59591728Y5450000D01*
X58461955Y6579773D01*
X58434178Y6634290D01*
X58433806Y6662699D01*
X58445724Y6753219D01*
X58446288Y6757500D01*
X62176818Y6757500D01*
X62197455Y6600742D01*
X62197457Y6600734D01*
X62257962Y6454662D01*
X62257962Y6454661D01*
X62354213Y6329224D01*
X62354218Y6329218D01*
X62479659Y6232964D01*
X62479660Y6232964D01*
X62479661Y6232963D01*
X62595348Y6185044D01*
X62625738Y6172456D01*
X62743309Y6156978D01*
X62782499Y6151818D01*
X62782500Y6151818D01*
X62782501Y6151818D01*
X62813852Y6155946D01*
X62939262Y6172456D01*
X63085341Y6232964D01*
X63210782Y6329218D01*
X63307036Y6454659D01*
X63367544Y6600738D01*
X63388182Y6757500D01*
X63367544Y6914262D01*
X63307037Y7060339D01*
X63307037Y7060340D01*
X63210786Y7185777D01*
X63210785Y7185778D01*
X63210782Y7185782D01*
X63210777Y7185786D01*
X63210776Y7185787D01*
X63126488Y7250463D01*
X63085341Y7282036D01*
X63085340Y7282037D01*
X63085338Y7282038D01*
X62939266Y7342543D01*
X62939258Y7342545D01*
X62782501Y7363182D01*
X62782499Y7363182D01*
X62625741Y7342545D01*
X62625733Y7342543D01*
X62479661Y7282038D01*
X62479660Y7282038D01*
X62354223Y7185787D01*
X62354213Y7185777D01*
X62257962Y7060340D01*
X62257962Y7060339D01*
X62197457Y6914267D01*
X62197455Y6914259D01*
X62176818Y6757501D01*
X62176818Y6757500D01*
X58446288Y6757500D01*
X58448457Y6773982D01*
X58427819Y6930744D01*
X58424003Y6939956D01*
X58367312Y7076821D01*
X58367312Y7076822D01*
X58271061Y7202259D01*
X58271060Y7202260D01*
X58271057Y7202264D01*
X58271052Y7202268D01*
X58271051Y7202269D01*
X58145613Y7298520D01*
X57999541Y7359025D01*
X57999533Y7359027D01*
X57842776Y7379664D01*
X57842774Y7379664D01*
X57686016Y7359027D01*
X57686008Y7359025D01*
X57539936Y7298520D01*
X57539935Y7298520D01*
X57414498Y7202269D01*
X57414488Y7202259D01*
X57318237Y7076822D01*
X57318237Y7076821D01*
X57257732Y6930749D01*
X57257730Y6930741D01*
X57237093Y6773983D01*
X57237093Y6773982D01*
X49098952Y6773982D01*
X50074971Y7750000D01*
X52544318Y7750000D01*
X52564955Y7593242D01*
X52564957Y7593234D01*
X52625462Y7447162D01*
X52625462Y7447161D01*
X52705738Y7342543D01*
X52721718Y7321718D01*
X52847159Y7225464D01*
X52847160Y7225464D01*
X52847161Y7225463D01*
X52982707Y7169318D01*
X52993238Y7164956D01*
X53110809Y7149478D01*
X53149999Y7144318D01*
X53150000Y7144318D01*
X53150001Y7144318D01*
X53181352Y7148446D01*
X53306762Y7164956D01*
X53452841Y7225464D01*
X53578282Y7321718D01*
X53674536Y7447159D01*
X53735044Y7593238D01*
X53755682Y7750000D01*
X53735044Y7906762D01*
X53674537Y8052839D01*
X53674537Y8052840D01*
X53578286Y8178277D01*
X53578285Y8178278D01*
X53578282Y8178282D01*
X53578277Y8178286D01*
X53578276Y8178287D01*
X53493624Y8243242D01*
X53452841Y8274536D01*
X53452840Y8274537D01*
X53452838Y8274538D01*
X53306766Y8335043D01*
X53306758Y8335045D01*
X53150001Y8355682D01*
X53149999Y8355682D01*
X52993241Y8335045D01*
X52993233Y8335043D01*
X52847161Y8274538D01*
X52847160Y8274538D01*
X52721723Y8178287D01*
X52721713Y8178277D01*
X52625462Y8052840D01*
X52625462Y8052839D01*
X52564957Y7906767D01*
X52564955Y7906759D01*
X52544318Y7750001D01*
X52544318Y7750000D01*
X50074971Y7750000D01*
X50870975Y8546004D01*
X50925492Y8573781D01*
X50940979Y8575000D01*
X54374846Y8575000D01*
X54433037Y8556093D01*
X54453388Y8536267D01*
X54508107Y8464956D01*
X54521718Y8447218D01*
X54647159Y8350964D01*
X54647160Y8350964D01*
X54647161Y8350963D01*
X54771312Y8299538D01*
X54793238Y8290456D01*
X54907114Y8275464D01*
X54949999Y8269818D01*
X54950000Y8269818D01*
X54950001Y8269818D01*
X54992878Y8275463D01*
X55106762Y8290456D01*
X55252841Y8350964D01*
X55378282Y8447218D01*
X55474536Y8572659D01*
X55535044Y8718738D01*
X55555682Y8875500D01*
X55535044Y9032262D01*
X55527505Y9050463D01*
X55491406Y9137615D01*
X55486605Y9198611D01*
X55518575Y9250780D01*
X55575103Y9274195D01*
X55582870Y9274500D01*
X55923846Y9274500D01*
X55982037Y9255593D01*
X56002388Y9235767D01*
X56070713Y9146724D01*
X56070718Y9146718D01*
X56196159Y9050464D01*
X56196160Y9050464D01*
X56196161Y9050463D01*
X56324848Y8997159D01*
X56342238Y8989956D01*
X56459809Y8974478D01*
X56498999Y8969318D01*
X56499000Y8969318D01*
X56499001Y8969318D01*
X56530352Y8973446D01*
X56655762Y8989956D01*
X56801841Y9050464D01*
X56927282Y9146718D01*
X57023536Y9272159D01*
X57084044Y9418238D01*
X57104682Y9575000D01*
X57084044Y9731762D01*
X57023537Y9877839D01*
X57023537Y9877840D01*
X56927286Y10003277D01*
X56927285Y10003278D01*
X56927282Y10003282D01*
X56927277Y10003286D01*
X56927276Y10003287D01*
X56801838Y10099538D01*
X56655766Y10160043D01*
X56655758Y10160045D01*
X56499001Y10180682D01*
X56498999Y10180682D01*
X56342241Y10160045D01*
X56342233Y10160043D01*
X56196161Y10099538D01*
X56196160Y10099538D01*
X56070723Y10003287D01*
X56070713Y10003277D01*
X56002388Y9914233D01*
X55951963Y9879577D01*
X55923846Y9875500D01*
X50974479Y9875500D01*
X50960803Y9877733D01*
X50960632Y9876506D01*
X50951548Y9877774D01*
X50904673Y9875606D01*
X50900101Y9875500D01*
X50881466Y9875500D01*
X50881343Y9875477D01*
X50867733Y9873899D01*
X50839325Y9872586D01*
X50839321Y9872585D01*
X50830327Y9868614D01*
X50808542Y9861868D01*
X50798885Y9860063D01*
X50798879Y9860061D01*
X50774695Y9845087D01*
X50762573Y9838698D01*
X50736552Y9827208D01*
X50736545Y9827204D01*
X50729600Y9820258D01*
X50711720Y9806095D01*
X50703362Y9800920D01*
X50686221Y9778222D01*
X50677223Y9767882D01*
X46038839Y5129496D01*
X45984322Y5101719D01*
X45968835Y5100500D01*
X35933978Y5100500D01*
X35920302Y5102733D01*
X35920131Y5101506D01*
X35911047Y5102774D01*
X35864172Y5100606D01*
X35859600Y5100500D01*
X35840966Y5100500D01*
X35840843Y5100477D01*
X35827233Y5098899D01*
X35798823Y5097586D01*
X35789819Y5093611D01*
X35768040Y5086868D01*
X35758382Y5085063D01*
X35758380Y5085062D01*
X35734200Y5070091D01*
X35722080Y5063702D01*
X35696049Y5052207D01*
X35696048Y5052207D01*
X35689094Y5045253D01*
X35671217Y5031093D01*
X35662860Y5025919D01*
X35645723Y5003226D01*
X35636726Y4992886D01*
X33823339Y3179496D01*
X33768822Y3151719D01*
X33753335Y3150500D01*
X30807727Y3150500D01*
X30749536Y3169407D01*
X30737723Y3179496D01*
X30033683Y3883536D01*
X30005906Y3938053D01*
X30005542Y3940558D01*
X29985044Y4096262D01*
X29984208Y4098281D01*
X29983496Y4100000D01*
X32394318Y4100000D01*
X32414955Y3943242D01*
X32414957Y3943234D01*
X32475462Y3797162D01*
X32475462Y3797161D01*
X32565886Y3679318D01*
X32571718Y3671718D01*
X32697159Y3575464D01*
X32843238Y3514956D01*
X32960809Y3499478D01*
X32999999Y3494318D01*
X33000000Y3494318D01*
X33000001Y3494318D01*
X33031352Y3498446D01*
X33156762Y3514956D01*
X33302841Y3575464D01*
X33428282Y3671718D01*
X33524536Y3797159D01*
X33551543Y3862364D01*
X33573000Y3894478D01*
X34291955Y4613433D01*
X34294297Y4615696D01*
X34341544Y4659820D01*
X34363556Y4696021D01*
X34369254Y4704393D01*
X34394861Y4738158D01*
X34402229Y4756844D01*
X34409734Y4771955D01*
X34420172Y4789118D01*
X34431607Y4829935D01*
X34434829Y4839514D01*
X34450376Y4878935D01*
X34452429Y4898918D01*
X34455582Y4915502D01*
X34458374Y4925463D01*
X34461000Y4934835D01*
X34461000Y4977208D01*
X34461519Y4987331D01*
X34463153Y5003226D01*
X34465851Y5029471D01*
X34462439Y5049262D01*
X34461000Y5066081D01*
X34461000Y6207649D01*
X35730000Y6207649D01*
X35745348Y6081252D01*
X35745351Y6081242D01*
X35805626Y5922310D01*
X35805628Y5922307D01*
X35902194Y5782406D01*
X35902199Y5782400D01*
X36029431Y5669682D01*
X36179952Y5590683D01*
X36179955Y5590682D01*
X36329999Y5553699D01*
X36330000Y5553699D01*
X36330000Y5966546D01*
X36401840Y5946105D01*
X36513521Y5956454D01*
X36530000Y5964660D01*
X36530000Y5553699D01*
X36680044Y5590682D01*
X36680047Y5590683D01*
X36830568Y5669682D01*
X36830569Y5669682D01*
X36957800Y5782400D01*
X36957805Y5782406D01*
X37054371Y5922307D01*
X37054373Y5922310D01*
X37114648Y6081242D01*
X37114651Y6081252D01*
X37129999Y6207649D01*
X37130000Y6207666D01*
X37130000Y6263801D01*
X37330796Y6263801D01*
X37360184Y6122372D01*
X37360186Y6122364D01*
X37408939Y6028277D01*
X37426646Y5994105D01*
X37525245Y5888531D01*
X37648672Y5813474D01*
X37787772Y5774500D01*
X37787773Y5774500D01*
X37895943Y5774500D01*
X37895949Y5774500D01*
X38003111Y5789229D01*
X38135609Y5846781D01*
X38231752Y5925000D01*
X41769318Y5925000D01*
X41789955Y5768242D01*
X41789957Y5768234D01*
X41850462Y5622162D01*
X41850462Y5622161D01*
X41946713Y5496724D01*
X41946718Y5496718D01*
X41946722Y5496715D01*
X41946723Y5496714D01*
X41961932Y5485044D01*
X42072159Y5400464D01*
X42218238Y5339956D01*
X42335809Y5324478D01*
X42374999Y5319318D01*
X42375000Y5319318D01*
X42375001Y5319318D01*
X42406352Y5323446D01*
X42531762Y5339956D01*
X42677841Y5400464D01*
X42803282Y5496718D01*
X42899536Y5622159D01*
X42960044Y5768238D01*
X42980682Y5925000D01*
X42977903Y5946105D01*
X42974160Y5974538D01*
X42965210Y6042521D01*
X42975392Y6097457D01*
X42961105Y6103896D01*
X42936220Y6139279D01*
X42899537Y6227839D01*
X42899537Y6227840D01*
X42871945Y6263799D01*
X43110796Y6263799D01*
X43124613Y6197305D01*
X43117940Y6136485D01*
X43115786Y6134116D01*
X43135175Y6123588D01*
X43151263Y6100988D01*
X43188936Y6028282D01*
X43206646Y5994105D01*
X43305245Y5888531D01*
X43428672Y5813474D01*
X43567772Y5774500D01*
X43567773Y5774500D01*
X43675943Y5774500D01*
X43675949Y5774500D01*
X43783111Y5789229D01*
X43915609Y5846781D01*
X44027665Y5937946D01*
X44110971Y6055963D01*
X44159346Y6192079D01*
X44160411Y6207649D01*
X44370000Y6207649D01*
X44385348Y6081252D01*
X44385351Y6081242D01*
X44445626Y5922310D01*
X44445628Y5922307D01*
X44542194Y5782406D01*
X44542199Y5782400D01*
X44669431Y5669682D01*
X44819952Y5590683D01*
X44819955Y5590682D01*
X44969999Y5553699D01*
X44970000Y5553699D01*
X44970000Y5966546D01*
X45041840Y5946105D01*
X45153521Y5956454D01*
X45170000Y5964660D01*
X45170000Y5553699D01*
X45320044Y5590682D01*
X45320047Y5590683D01*
X45470568Y5669682D01*
X45470569Y5669682D01*
X45597800Y5782400D01*
X45597805Y5782406D01*
X45694371Y5922307D01*
X45694373Y5922310D01*
X45754648Y6081242D01*
X45754651Y6081252D01*
X45769999Y6207649D01*
X45770000Y6207666D01*
X45770000Y6699999D01*
X45769999Y6700000D01*
X45370000Y6700000D01*
X45370000Y6900000D01*
X45769999Y6900000D01*
X45770000Y6900001D01*
X45770000Y7392335D01*
X45769999Y7392352D01*
X45754651Y7518749D01*
X45754648Y7518759D01*
X45694373Y7677691D01*
X45694371Y7677694D01*
X45597805Y7817595D01*
X45597800Y7817601D01*
X45470568Y7930319D01*
X45320046Y8009318D01*
X45170000Y8046302D01*
X45170000Y7633455D01*
X45098160Y7653895D01*
X44986479Y7643546D01*
X44970000Y7635341D01*
X44970000Y8046302D01*
X44819953Y8009318D01*
X44819952Y8009318D01*
X44669431Y7930319D01*
X44669430Y7930319D01*
X44542199Y7817601D01*
X44542194Y7817595D01*
X44445628Y7677694D01*
X44445626Y7677691D01*
X44385351Y7518759D01*
X44385348Y7518749D01*
X44370000Y7392352D01*
X44370000Y6900001D01*
X44370001Y6900000D01*
X44770000Y6900000D01*
X44770000Y6700000D01*
X44370001Y6700000D01*
X44370000Y6699999D01*
X44370000Y6207649D01*
X44160411Y6207649D01*
X44169204Y6336199D01*
X44167228Y6345706D01*
X44139815Y6477629D01*
X44139813Y6477637D01*
X44073355Y6605893D01*
X44073353Y6605896D01*
X44064964Y6614879D01*
X43974755Y6711469D01*
X43974754Y6711470D01*
X43851328Y6786526D01*
X43712228Y6825500D01*
X43604051Y6825500D01*
X43496888Y6810772D01*
X43364389Y6753219D01*
X43252334Y6662055D01*
X43169029Y6544038D01*
X43120653Y6407922D01*
X43110796Y6263803D01*
X43110796Y6263799D01*
X42871945Y6263799D01*
X42803286Y6353277D01*
X42803285Y6353278D01*
X42803282Y6353282D01*
X42803277Y6353286D01*
X42803276Y6353287D01*
X42677838Y6449538D01*
X42531766Y6510043D01*
X42531758Y6510045D01*
X42375001Y6530682D01*
X42374999Y6530682D01*
X42218241Y6510045D01*
X42218233Y6510043D01*
X42072161Y6449538D01*
X42072160Y6449538D01*
X41946723Y6353287D01*
X41946713Y6353277D01*
X41850462Y6227840D01*
X41850462Y6227839D01*
X41789957Y6081767D01*
X41789955Y6081759D01*
X41769318Y5925001D01*
X41769318Y5925000D01*
X38231752Y5925000D01*
X38247665Y5937946D01*
X38330971Y6055963D01*
X38379346Y6192079D01*
X38389204Y6336199D01*
X38387228Y6345706D01*
X38359815Y6477629D01*
X38359813Y6477637D01*
X38293355Y6605893D01*
X38293353Y6605896D01*
X38284964Y6614879D01*
X38194755Y6711469D01*
X38194754Y6711470D01*
X38071328Y6786526D01*
X37932228Y6825500D01*
X37824051Y6825500D01*
X37716888Y6810772D01*
X37584389Y6753219D01*
X37472334Y6662055D01*
X37389029Y6544038D01*
X37340653Y6407922D01*
X37330796Y6263803D01*
X37330796Y6263801D01*
X37130000Y6263801D01*
X37130000Y6699999D01*
X37129999Y6700000D01*
X36730000Y6700000D01*
X36730000Y6900000D01*
X37129999Y6900000D01*
X37130000Y6900001D01*
X37130000Y7392335D01*
X37129999Y7392352D01*
X37114651Y7518749D01*
X37114648Y7518759D01*
X37054373Y7677691D01*
X37054371Y7677694D01*
X36957805Y7817595D01*
X36957800Y7817601D01*
X36830568Y7930319D01*
X36680046Y8009318D01*
X36530000Y8046302D01*
X36530000Y7633455D01*
X36458160Y7653895D01*
X36346479Y7643546D01*
X36330000Y7635341D01*
X36330000Y8046302D01*
X36179953Y8009318D01*
X36179952Y8009318D01*
X36029431Y7930319D01*
X36029430Y7930319D01*
X35902199Y7817601D01*
X35902194Y7817595D01*
X35805628Y7677694D01*
X35805626Y7677691D01*
X35745351Y7518759D01*
X35745348Y7518749D01*
X35730000Y7392352D01*
X35730000Y6900001D01*
X35730001Y6900000D01*
X36130000Y6900000D01*
X36130000Y6700000D01*
X35730001Y6700000D01*
X35730000Y6699999D01*
X35730000Y6207649D01*
X34461000Y6207649D01*
X34461000Y8140150D01*
X34468536Y8178036D01*
X34468640Y8178287D01*
X34495544Y8243238D01*
X34516182Y8400000D01*
X34495544Y8556762D01*
X34495542Y8556768D01*
X34468536Y8621967D01*
X34461000Y8659852D01*
X34461000Y9075000D01*
X39169818Y9075000D01*
X39190455Y8918242D01*
X39190457Y8918234D01*
X39250962Y8772162D01*
X39250962Y8772161D01*
X39294857Y8714956D01*
X39347218Y8646718D01*
X39472659Y8550464D01*
X39472660Y8550464D01*
X39472661Y8550463D01*
X39601348Y8497159D01*
X39618738Y8489956D01*
X39736309Y8474478D01*
X39775499Y8469318D01*
X39775500Y8469318D01*
X39775501Y8469318D01*
X39806852Y8473446D01*
X39932262Y8489956D01*
X40078341Y8550464D01*
X40203782Y8646718D01*
X40300036Y8772159D01*
X40360544Y8918238D01*
X40381182Y9075000D01*
X40381182Y9075001D01*
X40382029Y9081433D01*
X40383801Y9081200D01*
X40400089Y9131328D01*
X40449589Y9167292D01*
X40493102Y9171290D01*
X40511876Y9168818D01*
X40511878Y9168819D01*
X40511880Y9168818D01*
X40518365Y9168818D01*
X40518365Y9166610D01*
X40568860Y9157255D01*
X40610981Y9112876D01*
X40619783Y9057330D01*
X40618818Y9049999D01*
X40639455Y8893242D01*
X40639457Y8893234D01*
X40699962Y8747162D01*
X40699962Y8747161D01*
X40796027Y8621967D01*
X40796218Y8621718D01*
X40921659Y8525464D01*
X40921660Y8525464D01*
X40921661Y8525463D01*
X41057207Y8469318D01*
X41067738Y8464956D01*
X41185309Y8449478D01*
X41224499Y8444318D01*
X41224500Y8444318D01*
X41224501Y8444318D01*
X41255852Y8448446D01*
X41381262Y8464956D01*
X41527341Y8525464D01*
X41652782Y8621718D01*
X41749036Y8747159D01*
X41809544Y8893238D01*
X41830182Y9050000D01*
X41809544Y9206762D01*
X41782455Y9272161D01*
X41749037Y9352839D01*
X41749037Y9352840D01*
X41652786Y9478277D01*
X41652785Y9478278D01*
X41652782Y9478282D01*
X41652777Y9478286D01*
X41652776Y9478287D01*
X41527338Y9574538D01*
X41381266Y9635043D01*
X41381258Y9635045D01*
X41224501Y9655682D01*
X41218011Y9655682D01*
X41218011Y9657885D01*
X41167485Y9667262D01*
X41125379Y9711655D01*
X41116594Y9767180D01*
X41116687Y9767882D01*
X41117558Y9774500D01*
X41096920Y9931262D01*
X41036413Y10077339D01*
X41036413Y10077340D01*
X40940162Y10202777D01*
X40940161Y10202778D01*
X40940158Y10202782D01*
X40940153Y10202786D01*
X40940152Y10202787D01*
X40814714Y10299038D01*
X40668642Y10359543D01*
X40668634Y10359545D01*
X40511877Y10380182D01*
X40511875Y10380182D01*
X40355117Y10359545D01*
X40355109Y10359543D01*
X40209037Y10299038D01*
X40209036Y10299038D01*
X40083599Y10202787D01*
X40083589Y10202777D01*
X39987338Y10077340D01*
X39987338Y10077339D01*
X39926833Y9931267D01*
X39926831Y9931259D01*
X39905347Y9768067D01*
X39903574Y9768301D01*
X39887287Y9718173D01*
X39837787Y9682209D01*
X39794273Y9678211D01*
X39775502Y9680682D01*
X39775499Y9680682D01*
X39618741Y9660045D01*
X39618733Y9660043D01*
X39472661Y9599538D01*
X39472660Y9599538D01*
X39347223Y9503287D01*
X39347213Y9503277D01*
X39250962Y9377840D01*
X39250962Y9377839D01*
X39190457Y9231767D01*
X39190455Y9231759D01*
X39169818Y9075001D01*
X39169818Y9075000D01*
X34461000Y9075000D01*
X34461000Y11978468D01*
X34479907Y12036659D01*
X34489990Y12048466D01*
X36005524Y13564001D01*
X36037636Y13585457D01*
X36102841Y13612464D01*
X36228282Y13708718D01*
X36324536Y13834159D01*
X36385044Y13980238D01*
X36405682Y14137000D01*
X36385044Y14293762D01*
X36364847Y14342523D01*
X36324537Y14439839D01*
X36324537Y14439840D01*
X36228286Y14565277D01*
X36228285Y14565278D01*
X36228282Y14565282D01*
X36228277Y14565286D01*
X36228276Y14565287D01*
X36102838Y14661538D01*
X35956766Y14722043D01*
X35956758Y14722045D01*
X35800001Y14742682D01*
X35799999Y14742682D01*
X35643241Y14722045D01*
X35643233Y14722043D01*
X35497161Y14661538D01*
X35497160Y14661538D01*
X35371723Y14565287D01*
X35371713Y14565277D01*
X35275464Y14439843D01*
X35248456Y14374640D01*
X35226996Y14342523D01*
X33529069Y12644596D01*
X33526640Y12642249D01*
X33479457Y12598181D01*
X33479455Y12598179D01*
X33457441Y12561981D01*
X33451742Y12553607D01*
X33426138Y12519842D01*
X33426138Y12519841D01*
X33418769Y12501157D01*
X33411265Y12486048D01*
X33400827Y12468882D01*
X33389394Y12428080D01*
X33386165Y12418476D01*
X33370623Y12379063D01*
X33370622Y12379059D01*
X33368568Y12359083D01*
X33365419Y12342510D01*
X33360000Y12323166D01*
X33360000Y12280800D01*
X33359481Y12270677D01*
X33355148Y12228527D01*
X33358560Y12208741D01*
X33360000Y12191918D01*
X33360000Y8659852D01*
X33352464Y8621967D01*
X33325457Y8556768D01*
X33325455Y8556759D01*
X33304818Y8400001D01*
X33304818Y8400000D01*
X33321956Y8269818D01*
X33325456Y8243238D01*
X33345719Y8194318D01*
X33352464Y8178036D01*
X33360000Y8140150D01*
X33360000Y5279533D01*
X33341093Y5221342D01*
X33331004Y5209529D01*
X32794478Y4673004D01*
X32762360Y4651544D01*
X32697160Y4624537D01*
X32571723Y4528287D01*
X32571713Y4528277D01*
X32475462Y4402840D01*
X32475462Y4402839D01*
X32414957Y4256767D01*
X32414955Y4256759D01*
X32394318Y4100001D01*
X32394318Y4100000D01*
X29983496Y4100000D01*
X29924537Y4242339D01*
X29924537Y4242340D01*
X29828286Y4367777D01*
X29828285Y4367778D01*
X29828282Y4367782D01*
X29828277Y4367786D01*
X29828276Y4367787D01*
X29757104Y4422399D01*
X29702841Y4464036D01*
X29702840Y4464037D01*
X29702838Y4464038D01*
X29556766Y4524543D01*
X29556758Y4524545D01*
X29400001Y4545182D01*
X29399999Y4545182D01*
X29243241Y4524545D01*
X29243233Y4524543D01*
X29097161Y4464038D01*
X29097160Y4464038D01*
X28971723Y4367787D01*
X28971713Y4367777D01*
X28875462Y4242340D01*
X28875462Y4242339D01*
X28814957Y4096267D01*
X28814955Y4096259D01*
X28794318Y3939501D01*
X28794318Y3939500D01*
X28814955Y3782742D01*
X28814957Y3782734D01*
X28875462Y3636662D01*
X28875462Y3636661D01*
X28963847Y3521475D01*
X28984271Y3463799D01*
X28966893Y3405133D01*
X28945573Y3382666D01*
X28892944Y3342283D01*
X28892937Y3342276D01*
X28796686Y3216839D01*
X28796686Y3216838D01*
X28736181Y3070766D01*
X28736179Y3070758D01*
X28715542Y2914000D01*
X28715542Y2913999D01*
X400500Y2913999D01*
X400500Y10750000D01*
X650000Y10750000D01*
X650000Y4050000D01*
X650001Y4050000D01*
X3299999Y4050000D01*
X3300000Y4050000D01*
X3300000Y5100000D01*
X10994318Y5100000D01*
X11014955Y4943242D01*
X11014957Y4943234D01*
X11075462Y4797162D01*
X11075463Y4797160D01*
X11075464Y4797159D01*
X11106406Y4756835D01*
X11155480Y4692879D01*
X11171718Y4671718D01*
X11297159Y4575464D01*
X11297160Y4575464D01*
X11297161Y4575463D01*
X11420093Y4524543D01*
X11443238Y4514956D01*
X11556833Y4500001D01*
X11599999Y4494318D01*
X11600000Y4494318D01*
X11600001Y4494318D01*
X11643167Y4500001D01*
X11756762Y4514956D01*
X11902841Y4575464D01*
X12028282Y4671718D01*
X12124536Y4797159D01*
X12185044Y4943238D01*
X12205682Y5100000D01*
X16081193Y5100000D01*
X16101830Y4943242D01*
X16101832Y4943234D01*
X16162337Y4797162D01*
X16162338Y4797160D01*
X16162339Y4797159D01*
X16193281Y4756835D01*
X16242355Y4692879D01*
X16258593Y4671718D01*
X16384034Y4575464D01*
X16384035Y4575464D01*
X16384036Y4575463D01*
X16506968Y4524543D01*
X16530113Y4514956D01*
X16643708Y4500001D01*
X16686874Y4494318D01*
X16686875Y4494318D01*
X16686876Y4494318D01*
X16730042Y4500001D01*
X16843637Y4514956D01*
X16989716Y4575464D01*
X17115157Y4671718D01*
X17211411Y4797159D01*
X17271919Y4943238D01*
X17292557Y5100000D01*
X17271919Y5256762D01*
X17256810Y5293238D01*
X17211412Y5402839D01*
X17211412Y5402840D01*
X17115161Y5528277D01*
X17115160Y5528278D01*
X17115157Y5528282D01*
X17115152Y5528286D01*
X17115151Y5528287D01*
X17043979Y5582899D01*
X16989716Y5624536D01*
X16989715Y5624537D01*
X16989713Y5624538D01*
X16843641Y5685043D01*
X16843633Y5685045D01*
X16686876Y5705682D01*
X16686874Y5705682D01*
X16530116Y5685045D01*
X16530108Y5685043D01*
X16384036Y5624538D01*
X16384035Y5624538D01*
X16258598Y5528287D01*
X16258588Y5528277D01*
X16162337Y5402840D01*
X16162337Y5402839D01*
X16101832Y5256767D01*
X16101830Y5256759D01*
X16081193Y5100001D01*
X16081193Y5100000D01*
X12205682Y5100000D01*
X12185044Y5256762D01*
X12169935Y5293238D01*
X12124537Y5402839D01*
X12124537Y5402840D01*
X12028286Y5528277D01*
X12028285Y5528278D01*
X12028282Y5528282D01*
X12028277Y5528286D01*
X12028276Y5528287D01*
X11957104Y5582899D01*
X11902841Y5624536D01*
X11902840Y5624537D01*
X11902838Y5624538D01*
X11756766Y5685043D01*
X11756758Y5685045D01*
X11600001Y5705682D01*
X11599999Y5705682D01*
X11443241Y5685045D01*
X11443233Y5685043D01*
X11297161Y5624538D01*
X11297160Y5624538D01*
X11171723Y5528287D01*
X11171713Y5528277D01*
X11075462Y5402840D01*
X11075462Y5402839D01*
X11014957Y5256767D01*
X11014955Y5256759D01*
X10994318Y5100001D01*
X10994318Y5100000D01*
X3300000Y5100000D01*
X3300000Y9300000D01*
X27894318Y9300000D01*
X27914955Y9143242D01*
X27914957Y9143234D01*
X27975462Y8997162D01*
X27975462Y8997161D01*
X28036019Y8918242D01*
X28071718Y8871718D01*
X28197159Y8775464D01*
X28197160Y8775464D01*
X28197161Y8775463D01*
X28205133Y8772161D01*
X28343238Y8714956D01*
X28460809Y8699478D01*
X28499999Y8694318D01*
X28500000Y8694318D01*
X28500001Y8694318D01*
X28531352Y8698446D01*
X28656762Y8714956D01*
X28802841Y8775464D01*
X28928282Y8871718D01*
X29024536Y8997159D01*
X29085044Y9143238D01*
X29105682Y9300000D01*
X29085044Y9456762D01*
X29024537Y9602839D01*
X29024537Y9602840D01*
X28928286Y9728277D01*
X28928285Y9728278D01*
X28928282Y9728282D01*
X28928277Y9728286D01*
X28928276Y9728287D01*
X28802838Y9824538D01*
X28656766Y9885043D01*
X28656758Y9885045D01*
X28500001Y9905682D01*
X28499999Y9905682D01*
X28343241Y9885045D01*
X28343233Y9885043D01*
X28197161Y9824538D01*
X28197160Y9824538D01*
X28071723Y9728287D01*
X28071713Y9728277D01*
X27975462Y9602840D01*
X27975462Y9602839D01*
X27914957Y9456767D01*
X27914955Y9456759D01*
X27894318Y9300001D01*
X27894318Y9300000D01*
X3300000Y9300000D01*
X3300000Y10750000D01*
X650000Y10750000D01*
X400500Y10750000D01*
X400500Y11645500D01*
X419407Y11703691D01*
X468907Y11739655D01*
X499500Y11744500D01*
X21259182Y11744500D01*
X21259185Y11744500D01*
X21298006Y11745993D01*
X21313170Y11747161D01*
X21366015Y11754049D01*
X21502357Y11800011D01*
X21556965Y11827609D01*
X21569752Y11834302D01*
X21685218Y11920146D01*
X21790766Y12025000D01*
X30219318Y12025000D01*
X30239955Y11868242D01*
X30239957Y11868234D01*
X30300462Y11722162D01*
X30300462Y11722161D01*
X30300464Y11722159D01*
X30396718Y11596718D01*
X30522159Y11500464D01*
X30668238Y11439956D01*
X30785809Y11424478D01*
X30824999Y11419318D01*
X30825000Y11419318D01*
X30825001Y11419318D01*
X30856352Y11423446D01*
X30981762Y11439956D01*
X31127841Y11500464D01*
X31253282Y11596718D01*
X31349536Y11722159D01*
X31410044Y11868238D01*
X31430682Y12025000D01*
X31416031Y12136286D01*
X31427181Y12196446D01*
X31444177Y12219208D01*
X34820475Y15595504D01*
X34874992Y15623281D01*
X34890479Y15624500D01*
X38859521Y15624500D01*
X38917712Y15605593D01*
X38929525Y15595504D01*
X40091436Y14433593D01*
X40099537Y14422353D01*
X40100516Y14423091D01*
X40106044Y14415770D01*
X40140724Y14384155D01*
X40144032Y14380997D01*
X40157203Y14367826D01*
X40157295Y14367763D01*
X40168042Y14359250D01*
X40189064Y14340086D01*
X40189065Y14340086D01*
X40189067Y14340084D01*
X40198225Y14336537D01*
X40218412Y14325897D01*
X40226519Y14320343D01*
X40254210Y14313831D01*
X40267295Y14309779D01*
X40293827Y14299500D01*
X40303652Y14299500D01*
X40326316Y14296871D01*
X40335881Y14294621D01*
X40360958Y14298120D01*
X40364054Y14298551D01*
X40377731Y14299500D01*
X56384521Y14299500D01*
X56442712Y14280593D01*
X56454525Y14270504D01*
X64338630Y6386398D01*
X64366407Y6331881D01*
X64356836Y6271449D01*
X64347169Y6256128D01*
X64325464Y6227842D01*
X64325463Y6227840D01*
X64302251Y6171801D01*
X64268093Y6089334D01*
X64264957Y6081764D01*
X64264955Y6081759D01*
X64244318Y5925001D01*
X64244318Y5925000D01*
X64264955Y5768242D01*
X64264957Y5768234D01*
X64325462Y5622162D01*
X64325462Y5622161D01*
X64421713Y5496724D01*
X64421718Y5496718D01*
X64421722Y5496715D01*
X64421723Y5496714D01*
X64436932Y5485044D01*
X64547159Y5400464D01*
X64693238Y5339956D01*
X64810809Y5324478D01*
X64849999Y5319318D01*
X64850000Y5319318D01*
X64850001Y5319318D01*
X64881352Y5323446D01*
X65006762Y5339956D01*
X65152841Y5400464D01*
X65278282Y5496718D01*
X65357533Y5600000D01*
X68944318Y5600000D01*
X68964955Y5443242D01*
X68964957Y5443234D01*
X69025462Y5297162D01*
X69025462Y5297161D01*
X69097837Y5202840D01*
X69121718Y5171718D01*
X69247159Y5075464D01*
X69247160Y5075464D01*
X69247161Y5075463D01*
X69376913Y5021718D01*
X69393238Y5014956D01*
X69523519Y4997805D01*
X69524668Y4997653D01*
X69547743Y4986647D01*
X69575332Y4997653D01*
X69576195Y4997767D01*
X69706762Y5014956D01*
X69852841Y5075464D01*
X69978282Y5171718D01*
X70074536Y5297159D01*
X70135044Y5443238D01*
X70155682Y5600000D01*
X70152764Y5622161D01*
X70135044Y5756759D01*
X70135044Y5756762D01*
X70130292Y5768234D01*
X70074537Y5902839D01*
X70074537Y5902840D01*
X69978286Y6028277D01*
X69978285Y6028278D01*
X69978282Y6028282D01*
X69978277Y6028286D01*
X69978276Y6028287D01*
X69883529Y6100988D01*
X69852841Y6124536D01*
X69852840Y6124537D01*
X69852838Y6124538D01*
X69706766Y6185043D01*
X69706758Y6185045D01*
X69550001Y6205682D01*
X69549999Y6205682D01*
X69393241Y6185045D01*
X69393233Y6185043D01*
X69247161Y6124538D01*
X69247160Y6124538D01*
X69121723Y6028287D01*
X69121713Y6028277D01*
X69025462Y5902840D01*
X69025462Y5902839D01*
X68964957Y5756767D01*
X68964955Y5756759D01*
X68944318Y5600001D01*
X68944318Y5600000D01*
X65357533Y5600000D01*
X65374536Y5622159D01*
X65435044Y5768238D01*
X65455682Y5925000D01*
X65452903Y5946105D01*
X65442084Y6028287D01*
X65435044Y6081762D01*
X65417719Y6123588D01*
X65374537Y6227839D01*
X65374537Y6227840D01*
X65278286Y6353277D01*
X65278285Y6353278D01*
X65278282Y6353282D01*
X65278277Y6353286D01*
X65278276Y6353287D01*
X65152842Y6449536D01*
X65152837Y6449538D01*
X65125852Y6460715D01*
X65079563Y6500066D01*
X65075919Y6505952D01*
X65053221Y6523093D01*
X65042879Y6532092D01*
X56808565Y14766406D01*
X56800479Y14777656D01*
X56799487Y14776906D01*
X56793958Y14784228D01*
X56759272Y14815849D01*
X56755968Y14819004D01*
X56742800Y14832172D01*
X56742796Y14832175D01*
X56742693Y14832245D01*
X56731962Y14840745D01*
X56710933Y14859916D01*
X56701762Y14863469D01*
X56681586Y14874105D01*
X56673484Y14879655D01*
X56673479Y14879657D01*
X56645797Y14886168D01*
X56632703Y14890223D01*
X56606177Y14900500D01*
X56606173Y14900500D01*
X56596348Y14900500D01*
X56573683Y14903130D01*
X56564119Y14905379D01*
X56564118Y14905379D01*
X56535946Y14901449D01*
X56522269Y14900500D01*
X40515479Y14900500D01*
X40457288Y14919407D01*
X40445475Y14929496D01*
X39283565Y16091406D01*
X39275479Y16102656D01*
X39274487Y16101906D01*
X39268958Y16109228D01*
X39234272Y16140849D01*
X39230968Y16144004D01*
X39217800Y16157172D01*
X39217796Y16157175D01*
X39217693Y16157245D01*
X39206962Y16165745D01*
X39185933Y16184916D01*
X39176762Y16188469D01*
X39156586Y16199105D01*
X39148484Y16204655D01*
X39148479Y16204657D01*
X39120797Y16211168D01*
X39107703Y16215223D01*
X39081177Y16225500D01*
X39081173Y16225500D01*
X39071348Y16225500D01*
X39048683Y16228130D01*
X39039119Y16230379D01*
X39039118Y16230379D01*
X39010946Y16226449D01*
X38997269Y16225500D01*
X34790165Y16225500D01*
X34776489Y16227733D01*
X34776318Y16226506D01*
X34767234Y16227774D01*
X34720359Y16225606D01*
X34715787Y16225500D01*
X34697152Y16225500D01*
X34697029Y16225477D01*
X34683419Y16223899D01*
X34655011Y16222586D01*
X34655007Y16222585D01*
X34646013Y16218614D01*
X34624228Y16211868D01*
X34614571Y16210063D01*
X34614565Y16210061D01*
X34590381Y16195087D01*
X34578259Y16188698D01*
X34552238Y16177208D01*
X34552231Y16177204D01*
X34545286Y16170258D01*
X34527406Y16156095D01*
X34519048Y16150920D01*
X34501907Y16128222D01*
X34492909Y16117882D01*
X31019208Y12644181D01*
X30964691Y12616404D01*
X30936282Y12616032D01*
X30825001Y12630682D01*
X30824999Y12630682D01*
X30668241Y12610045D01*
X30668233Y12610043D01*
X30522161Y12549538D01*
X30522160Y12549538D01*
X30396723Y12453287D01*
X30396713Y12453277D01*
X30300462Y12327840D01*
X30300462Y12327839D01*
X30239957Y12181767D01*
X30239955Y12181759D01*
X30219318Y12025001D01*
X30219318Y12025000D01*
X21790766Y12025000D01*
X25059444Y15272174D01*
X26471560Y16675000D01*
X39469318Y16675000D01*
X39489955Y16518242D01*
X39489957Y16518234D01*
X39550462Y16372162D01*
X39550462Y16372161D01*
X39550464Y16372159D01*
X39646718Y16246718D01*
X39772159Y16150464D01*
X39772160Y16150464D01*
X39772161Y16150463D01*
X39914737Y16091406D01*
X39918238Y16089956D01*
X40035809Y16074478D01*
X40074999Y16069318D01*
X40075000Y16069318D01*
X40186284Y16083969D01*
X40246443Y16072819D01*
X40269209Y16055820D01*
X41041437Y15283591D01*
X41049537Y15272352D01*
X41050516Y15273091D01*
X41056044Y15265770D01*
X41090714Y15234164D01*
X41094019Y15231008D01*
X41107200Y15217828D01*
X41107203Y15217825D01*
X41107300Y15217759D01*
X41118049Y15209244D01*
X41133803Y15194883D01*
X41139067Y15190084D01*
X41148228Y15186536D01*
X41168416Y15175895D01*
X41176520Y15170343D01*
X41204215Y15163829D01*
X41217296Y15159778D01*
X41243827Y15149500D01*
X41253652Y15149500D01*
X41276316Y15146871D01*
X41285881Y15144621D01*
X41310958Y15148120D01*
X41314054Y15148551D01*
X41327731Y15149500D01*
X57359521Y15149500D01*
X57417712Y15130593D01*
X57429525Y15120504D01*
X64830819Y7719210D01*
X64858596Y7664693D01*
X64858968Y7636285D01*
X64844318Y7525002D01*
X64844318Y7525000D01*
X64864955Y7368242D01*
X64864957Y7368234D01*
X64925462Y7222162D01*
X64925462Y7222161D01*
X64969357Y7164956D01*
X65021718Y7096718D01*
X65147159Y7000464D01*
X65293238Y6939956D01*
X65410809Y6924478D01*
X65449999Y6919318D01*
X65450000Y6919318D01*
X65450001Y6919318D01*
X65481352Y6923446D01*
X65606762Y6939956D01*
X65752841Y7000464D01*
X65878282Y7096718D01*
X65974536Y7222159D01*
X66035044Y7368238D01*
X66055682Y7525000D01*
X66035044Y7681762D01*
X66006779Y7750000D01*
X65974537Y7827839D01*
X65974537Y7827840D01*
X65878286Y7953277D01*
X65878285Y7953278D01*
X65878282Y7953282D01*
X65878277Y7953286D01*
X65878276Y7953287D01*
X65805254Y8009318D01*
X65752841Y8049536D01*
X65752840Y8049537D01*
X65752838Y8049538D01*
X65606766Y8110043D01*
X65606758Y8110045D01*
X65450001Y8130682D01*
X65449999Y8130682D01*
X65338717Y8116032D01*
X65278556Y8127182D01*
X65255791Y8144181D01*
X57783565Y15616406D01*
X57775479Y15627656D01*
X57774487Y15626906D01*
X57768958Y15634228D01*
X57734272Y15665849D01*
X57730968Y15669004D01*
X57717800Y15682172D01*
X57717796Y15682175D01*
X57717693Y15682245D01*
X57706962Y15690745D01*
X57685933Y15709916D01*
X57676762Y15713469D01*
X57656586Y15724105D01*
X57648484Y15729655D01*
X57648479Y15729657D01*
X57620797Y15736168D01*
X57607703Y15740223D01*
X57581177Y15750500D01*
X57581173Y15750500D01*
X57571348Y15750500D01*
X57548683Y15753130D01*
X57539119Y15755379D01*
X57539118Y15755379D01*
X57510946Y15751449D01*
X57497269Y15750500D01*
X41465479Y15750500D01*
X41407288Y15769407D01*
X41395475Y15779496D01*
X40694180Y16480791D01*
X40666403Y16535308D01*
X40666031Y16563717D01*
X40669290Y16588467D01*
X40680682Y16675000D01*
X40660044Y16831762D01*
X40620423Y16927416D01*
X40599537Y16977839D01*
X40599537Y16977840D01*
X40503286Y17103277D01*
X40503285Y17103278D01*
X40503282Y17103282D01*
X40503277Y17103286D01*
X40503276Y17103287D01*
X40377838Y17199538D01*
X40231766Y17260043D01*
X40231758Y17260045D01*
X40075001Y17280682D01*
X40074999Y17280682D01*
X39918241Y17260045D01*
X39918233Y17260043D01*
X39772161Y17199538D01*
X39772160Y17199538D01*
X39646723Y17103287D01*
X39646713Y17103277D01*
X39550462Y16977840D01*
X39550462Y16977839D01*
X39489957Y16831767D01*
X39489955Y16831759D01*
X39469318Y16675001D01*
X39469318Y16675000D01*
X26471560Y16675000D01*
X27805335Y18000000D01*
X40162563Y18000000D01*
X40183200Y17843242D01*
X40183202Y17843234D01*
X40243707Y17697162D01*
X40243707Y17697161D01*
X40301642Y17621659D01*
X40339963Y17571718D01*
X40465404Y17475464D01*
X40465405Y17475464D01*
X40465406Y17475463D01*
X40473378Y17472161D01*
X40611483Y17414956D01*
X40768245Y17394318D01*
X40775033Y17395212D01*
X40835195Y17384066D01*
X40857965Y17367064D01*
X42066436Y16158593D01*
X42074537Y16147353D01*
X42075516Y16148091D01*
X42081044Y16140770D01*
X42115724Y16109155D01*
X42119032Y16105997D01*
X42132203Y16092826D01*
X42132295Y16092763D01*
X42143042Y16084250D01*
X42164064Y16065086D01*
X42164065Y16065086D01*
X42164067Y16065084D01*
X42173230Y16061534D01*
X42193416Y16050895D01*
X42201519Y16045344D01*
X42229215Y16038830D01*
X42242293Y16034780D01*
X42268827Y16024500D01*
X42278652Y16024500D01*
X42301316Y16021871D01*
X42310881Y16019621D01*
X42335958Y16023120D01*
X42339054Y16023551D01*
X42352731Y16024500D01*
X58559521Y16024500D01*
X58617712Y16005593D01*
X58629525Y15995504D01*
X66655819Y7969210D01*
X66683596Y7914693D01*
X66683968Y7886285D01*
X66669318Y7775002D01*
X66669318Y7775000D01*
X66689955Y7618242D01*
X66689957Y7618234D01*
X66750462Y7472162D01*
X66750462Y7472161D01*
X66846713Y7346724D01*
X66846718Y7346718D01*
X66972159Y7250464D01*
X66972160Y7250464D01*
X66972161Y7250463D01*
X67040486Y7222162D01*
X67118238Y7189956D01*
X67235809Y7174478D01*
X67274999Y7169318D01*
X67275000Y7169318D01*
X67275001Y7169318D01*
X67306352Y7173446D01*
X67431762Y7189956D01*
X67577841Y7250464D01*
X67703282Y7346718D01*
X67799536Y7472159D01*
X67860044Y7618238D01*
X67880682Y7775000D01*
X67860044Y7931762D01*
X67809892Y8052840D01*
X67799537Y8077839D01*
X67799537Y8077840D01*
X67703286Y8203277D01*
X67703285Y8203278D01*
X67703282Y8203282D01*
X67703277Y8203286D01*
X67703276Y8203287D01*
X67610419Y8274538D01*
X67577841Y8299536D01*
X67577840Y8299537D01*
X67577838Y8299538D01*
X67431766Y8360043D01*
X67431758Y8360045D01*
X67275001Y8380682D01*
X67274998Y8380682D01*
X67163715Y8366032D01*
X67103555Y8377182D01*
X67080790Y8394181D01*
X66674971Y8800000D01*
X72744318Y8800000D01*
X72764955Y8643242D01*
X72764957Y8643234D01*
X72825462Y8497162D01*
X72825462Y8497161D01*
X72917525Y8377182D01*
X72921718Y8371718D01*
X72921722Y8371715D01*
X72921723Y8371714D01*
X72936932Y8360044D01*
X73047159Y8275464D01*
X73047160Y8275464D01*
X73047161Y8275463D01*
X73193233Y8214958D01*
X73193238Y8214956D01*
X73310809Y8199478D01*
X73349999Y8194318D01*
X73350000Y8194318D01*
X73350001Y8194318D01*
X73381352Y8198446D01*
X73506762Y8214956D01*
X73652841Y8275464D01*
X73778282Y8371718D01*
X73874536Y8497159D01*
X73935044Y8643238D01*
X73955682Y8800000D01*
X73935044Y8956762D01*
X73896424Y9049999D01*
X73874537Y9102839D01*
X73874537Y9102840D01*
X73778285Y9228278D01*
X73778282Y9228282D01*
X73778277Y9228286D01*
X73778276Y9228287D01*
X73652838Y9324538D01*
X73506766Y9385043D01*
X73506758Y9385045D01*
X73350001Y9405682D01*
X73349999Y9405682D01*
X73193241Y9385045D01*
X73193233Y9385043D01*
X73047161Y9324538D01*
X73047160Y9324538D01*
X72921723Y9228287D01*
X72921719Y9228284D01*
X72921718Y9228282D01*
X72921715Y9228278D01*
X72825462Y9102840D01*
X72825462Y9102839D01*
X72764957Y8956767D01*
X72764955Y8956759D01*
X72744318Y8800001D01*
X72744318Y8800000D01*
X66674971Y8800000D01*
X64124971Y11350000D01*
X66494318Y11350000D01*
X66514955Y11193242D01*
X66514957Y11193234D01*
X66575462Y11047162D01*
X66575462Y11047161D01*
X66575464Y11047159D01*
X66671718Y10921718D01*
X66797159Y10825464D01*
X66943238Y10764956D01*
X67056841Y10750000D01*
X67099999Y10744318D01*
X67100000Y10744318D01*
X67100001Y10744318D01*
X67131352Y10748446D01*
X67256762Y10764956D01*
X67402841Y10825464D01*
X67528282Y10921718D01*
X67624536Y11047159D01*
X67685044Y11193238D01*
X67705682Y11350000D01*
X67685044Y11506762D01*
X67647783Y11596718D01*
X67624537Y11652839D01*
X67624537Y11652840D01*
X67528286Y11778277D01*
X67528285Y11778278D01*
X67528282Y11778282D01*
X67528277Y11778286D01*
X67528276Y11778287D01*
X67411054Y11868234D01*
X67402841Y11874536D01*
X67402840Y11874537D01*
X67402838Y11874538D01*
X67256766Y11935043D01*
X67256758Y11935045D01*
X67100001Y11955682D01*
X67099999Y11955682D01*
X66943241Y11935045D01*
X66943233Y11935043D01*
X66797161Y11874538D01*
X66797160Y11874538D01*
X66671723Y11778287D01*
X66671713Y11778277D01*
X66575462Y11652840D01*
X66575462Y11652839D01*
X66514957Y11506767D01*
X66514955Y11506759D01*
X66494318Y11350001D01*
X66494318Y11350000D01*
X64124971Y11350000D01*
X58983565Y16491406D01*
X58975479Y16502656D01*
X58974487Y16501906D01*
X58968958Y16509228D01*
X58934272Y16540849D01*
X58930968Y16544004D01*
X58917800Y16557172D01*
X58917796Y16557175D01*
X58917693Y16557245D01*
X58906962Y16565745D01*
X58885933Y16584916D01*
X58876762Y16588469D01*
X58856586Y16599105D01*
X58848484Y16604655D01*
X58848479Y16604657D01*
X58820797Y16611168D01*
X58807703Y16615223D01*
X58781177Y16625500D01*
X58781173Y16625500D01*
X58771348Y16625500D01*
X58748683Y16628130D01*
X58739119Y16630379D01*
X58739118Y16630379D01*
X58710946Y16626449D01*
X58697269Y16625500D01*
X42490479Y16625500D01*
X42432288Y16644407D01*
X42420475Y16654496D01*
X41364460Y17710511D01*
X41336683Y17765028D01*
X41342663Y17815552D01*
X42019436Y17815552D01*
X42040073Y17658794D01*
X42040075Y17658786D01*
X42100580Y17512714D01*
X42100580Y17512713D01*
X42196831Y17387276D01*
X42196836Y17387270D01*
X42196840Y17387267D01*
X42196841Y17387266D01*
X42223169Y17367064D01*
X42322277Y17291016D01*
X42468356Y17230508D01*
X42625118Y17209870D01*
X42730994Y17223810D01*
X42791153Y17212660D01*
X42813919Y17195660D01*
X42950986Y17058592D01*
X42959087Y17047352D01*
X42960066Y17048091D01*
X42965594Y17040770D01*
X43000264Y17009164D01*
X43003569Y17006008D01*
X43010496Y16999082D01*
X43016753Y16992825D01*
X43016850Y16992759D01*
X43027599Y16984244D01*
X43040160Y16972794D01*
X43048617Y16965084D01*
X43057778Y16961536D01*
X43077966Y16950895D01*
X43086070Y16945343D01*
X43113765Y16938829D01*
X43126846Y16934778D01*
X43153377Y16924500D01*
X43163202Y16924500D01*
X43185866Y16921871D01*
X43195431Y16919621D01*
X43223606Y16923551D01*
X43237282Y16924500D01*
X45056627Y16924500D01*
X45070302Y16922268D01*
X45070474Y16923494D01*
X45079555Y16922228D01*
X45079556Y16922227D01*
X45079556Y16922228D01*
X45079557Y16922227D01*
X45126433Y16924394D01*
X45131005Y16924500D01*
X45149633Y16924500D01*
X45149635Y16924500D01*
X45149739Y16924520D01*
X45163362Y16926102D01*
X45191783Y16927415D01*
X45200767Y16931383D01*
X45222568Y16938135D01*
X45232224Y16939939D01*
X45256409Y16954914D01*
X45268519Y16961299D01*
X45294556Y16972794D01*
X45301500Y16979740D01*
X45319392Y16993911D01*
X45327743Y16999081D01*
X45344880Y17021777D01*
X45353873Y17032113D01*
X46542266Y18220504D01*
X46596783Y18248281D01*
X46612270Y18249500D01*
X48206431Y18249500D01*
X48264622Y18230593D01*
X48300586Y18181093D01*
X48300586Y18119907D01*
X48284975Y18090237D01*
X48275464Y18077841D01*
X48275461Y18077837D01*
X48214957Y17931767D01*
X48214955Y17931759D01*
X48194318Y17775001D01*
X48194318Y17775000D01*
X48214955Y17618242D01*
X48214957Y17618234D01*
X48275462Y17472162D01*
X48275462Y17472161D01*
X48343060Y17384066D01*
X48371718Y17346718D01*
X48497159Y17250464D01*
X48643238Y17189956D01*
X48760809Y17174478D01*
X48799999Y17169318D01*
X48800000Y17169318D01*
X48800001Y17169318D01*
X48831352Y17173446D01*
X48956762Y17189956D01*
X49102841Y17250464D01*
X49228282Y17346718D01*
X49324536Y17472159D01*
X49385044Y17618238D01*
X49405682Y17775000D01*
X49385044Y17931762D01*
X49372312Y17962499D01*
X49324538Y18077837D01*
X49324537Y18077838D01*
X49324536Y18077841D01*
X49315026Y18090235D01*
X49294603Y18147908D01*
X49311980Y18206574D01*
X49360522Y18243821D01*
X49393569Y18249500D01*
X62294571Y18249500D01*
X62352762Y18230593D01*
X62364575Y18220504D01*
X62601486Y17983593D01*
X62609587Y17972353D01*
X62610566Y17973091D01*
X62616094Y17965770D01*
X62650774Y17934155D01*
X62654082Y17930997D01*
X62667253Y17917826D01*
X62667345Y17917763D01*
X62678092Y17909250D01*
X62699114Y17890086D01*
X62699115Y17890086D01*
X62699117Y17890084D01*
X62708280Y17886534D01*
X62728466Y17875895D01*
X62736569Y17870344D01*
X62764265Y17863830D01*
X62777343Y17859780D01*
X62803877Y17849500D01*
X62813702Y17849500D01*
X62836366Y17846871D01*
X62845931Y17844621D01*
X62873695Y17848494D01*
X62874104Y17848551D01*
X62887781Y17849500D01*
X65434836Y17849500D01*
X65448511Y17847268D01*
X65448683Y17848494D01*
X65457764Y17847228D01*
X65457765Y17847227D01*
X65457765Y17847228D01*
X65457766Y17847227D01*
X65504642Y17849394D01*
X65509214Y17849500D01*
X65527842Y17849500D01*
X65527844Y17849500D01*
X65527948Y17849520D01*
X65541571Y17851102D01*
X65569992Y17852415D01*
X65578976Y17856383D01*
X65600777Y17863135D01*
X65610433Y17864939D01*
X65634618Y17879914D01*
X65646728Y17886299D01*
X65672765Y17897794D01*
X65679709Y17904740D01*
X65697601Y17918911D01*
X65705952Y17924081D01*
X65723089Y17946777D01*
X65732082Y17957113D01*
X66030791Y18255822D01*
X66085306Y18283597D01*
X66113714Y18283969D01*
X66168804Y18276717D01*
X66224999Y18269318D01*
X66225000Y18269318D01*
X66225001Y18269318D01*
X66256352Y18273446D01*
X66381762Y18289956D01*
X66526721Y18350000D01*
X72344318Y18350000D01*
X72364955Y18193242D01*
X72364957Y18193234D01*
X72425462Y18047162D01*
X72425462Y18047161D01*
X72521713Y17921724D01*
X72521718Y17921718D01*
X72521722Y17921715D01*
X72521723Y17921714D01*
X72526790Y17917826D01*
X72647159Y17825464D01*
X72647160Y17825464D01*
X72647161Y17825463D01*
X72793064Y17765028D01*
X72793238Y17764956D01*
X72910809Y17749478D01*
X72949999Y17744318D01*
X72950000Y17744318D01*
X72950001Y17744318D01*
X72981352Y17748446D01*
X73106762Y17764956D01*
X73252841Y17825464D01*
X73378282Y17921718D01*
X73474536Y18047159D01*
X73535044Y18193238D01*
X73555682Y18350000D01*
X73535044Y18506762D01*
X73507955Y18572161D01*
X73474537Y18652839D01*
X73474537Y18652840D01*
X73378286Y18778277D01*
X73378285Y18778278D01*
X73378282Y18778282D01*
X73378277Y18778286D01*
X73378276Y18778287D01*
X73252838Y18874538D01*
X73106766Y18935043D01*
X73106758Y18935045D01*
X72950001Y18955682D01*
X72949999Y18955682D01*
X72793241Y18935045D01*
X72793233Y18935043D01*
X72647161Y18874538D01*
X72647160Y18874538D01*
X72521723Y18778287D01*
X72521713Y18778277D01*
X72425462Y18652840D01*
X72425462Y18652839D01*
X72364957Y18506767D01*
X72364955Y18506759D01*
X72344318Y18350001D01*
X72344318Y18350000D01*
X66526721Y18350000D01*
X66527841Y18350464D01*
X66653282Y18446718D01*
X66749536Y18572159D01*
X66810044Y18718238D01*
X66830682Y18875000D01*
X66829958Y18880496D01*
X66819322Y18961285D01*
X66810044Y19031762D01*
X66759892Y19152840D01*
X66749537Y19177839D01*
X66749537Y19177840D01*
X66653286Y19303277D01*
X66653285Y19303278D01*
X66653282Y19303282D01*
X66653277Y19303286D01*
X66653276Y19303287D01*
X66527838Y19399538D01*
X66381766Y19460043D01*
X66381758Y19460045D01*
X66225001Y19480682D01*
X66224999Y19480682D01*
X66068241Y19460045D01*
X66068233Y19460043D01*
X65922161Y19399538D01*
X65922160Y19399538D01*
X65796723Y19303287D01*
X65796713Y19303277D01*
X65700462Y19177840D01*
X65700462Y19177839D01*
X65639957Y19031767D01*
X65639955Y19031759D01*
X65619318Y18875001D01*
X65619318Y18875000D01*
X65633968Y18763717D01*
X65622818Y18703556D01*
X65605819Y18680791D01*
X65461100Y18536072D01*
X65406583Y18508295D01*
X65346151Y18517866D01*
X65302886Y18561131D01*
X65293315Y18621563D01*
X65299631Y18643959D01*
X65320044Y18693238D01*
X65340682Y18850000D01*
X65320044Y19006762D01*
X65259537Y19152839D01*
X65259537Y19152840D01*
X65163286Y19278277D01*
X65163285Y19278278D01*
X65163282Y19278282D01*
X65163277Y19278286D01*
X65163276Y19278287D01*
X65037838Y19374538D01*
X64891766Y19435043D01*
X64891758Y19435045D01*
X64735001Y19455682D01*
X64734998Y19455682D01*
X64623715Y19441032D01*
X64563555Y19452182D01*
X64540791Y19469181D01*
X64293567Y19716404D01*
X64285479Y19727656D01*
X64284487Y19726906D01*
X64278958Y19734228D01*
X64244272Y19765849D01*
X64240968Y19769004D01*
X64227800Y19782172D01*
X64227796Y19782175D01*
X64227693Y19782245D01*
X64216962Y19790745D01*
X64195933Y19809916D01*
X64186762Y19813469D01*
X64166586Y19824105D01*
X64158484Y19829655D01*
X64158479Y19829657D01*
X64130797Y19836168D01*
X64117703Y19840223D01*
X64091177Y19850500D01*
X64091173Y19850500D01*
X64081348Y19850500D01*
X64058683Y19853130D01*
X64049119Y19855379D01*
X64049118Y19855379D01*
X64020946Y19851449D01*
X64007269Y19850500D01*
X62925215Y19850500D01*
X62911539Y19852733D01*
X62911368Y19851506D01*
X62902284Y19852774D01*
X62855409Y19850606D01*
X62850837Y19850500D01*
X62832202Y19850500D01*
X62832079Y19850477D01*
X62818469Y19848899D01*
X62790061Y19847586D01*
X62790057Y19847585D01*
X62781063Y19843614D01*
X62759278Y19836868D01*
X62749621Y19835063D01*
X62749615Y19835061D01*
X62725431Y19820087D01*
X62713309Y19813698D01*
X62687288Y19802208D01*
X62687281Y19802204D01*
X62680336Y19795258D01*
X62662456Y19781095D01*
X62654098Y19775920D01*
X62636954Y19753218D01*
X62627957Y19742880D01*
X62564577Y19679498D01*
X62510061Y19651719D01*
X62494572Y19650500D01*
X45190664Y19650500D01*
X45176988Y19652733D01*
X45176817Y19651506D01*
X45167733Y19652774D01*
X45120858Y19650606D01*
X45116286Y19650500D01*
X45097652Y19650500D01*
X45097529Y19650477D01*
X45083919Y19648899D01*
X45055509Y19647586D01*
X45046505Y19643611D01*
X45024726Y19636868D01*
X45015068Y19635063D01*
X45015066Y19635062D01*
X44990886Y19620091D01*
X44978766Y19613702D01*
X44952735Y19602207D01*
X44952734Y19602207D01*
X44945780Y19595253D01*
X44927903Y19581093D01*
X44919546Y19575919D01*
X44902409Y19553226D01*
X44893412Y19542886D01*
X43894208Y18543681D01*
X43839691Y18515904D01*
X43811282Y18515532D01*
X43700001Y18530182D01*
X43699999Y18530182D01*
X43543241Y18509545D01*
X43543233Y18509543D01*
X43397161Y18449038D01*
X43397160Y18449038D01*
X43271723Y18352787D01*
X43271716Y18352780D01*
X43198349Y18257166D01*
X43147924Y18222511D01*
X43086760Y18224113D01*
X43059596Y18241251D01*
X43058548Y18239884D01*
X42927956Y18340090D01*
X42781884Y18400595D01*
X42781876Y18400597D01*
X42625119Y18421234D01*
X42625117Y18421234D01*
X42468359Y18400597D01*
X42468351Y18400595D01*
X42322279Y18340090D01*
X42322278Y18340090D01*
X42196841Y18243839D01*
X42196831Y18243829D01*
X42100580Y18118392D01*
X42100580Y18118391D01*
X42040075Y17972319D01*
X42040073Y17972311D01*
X42019436Y17815553D01*
X42019436Y17815552D01*
X41342663Y17815552D01*
X41343000Y17818400D01*
X41353289Y17843238D01*
X41373927Y18000000D01*
X41353289Y18156762D01*
X41338180Y18193238D01*
X41292782Y18302839D01*
X41292782Y18302840D01*
X41196531Y18428277D01*
X41196530Y18428278D01*
X41196527Y18428282D01*
X41196522Y18428286D01*
X41196521Y18428287D01*
X41125349Y18482899D01*
X41071086Y18524536D01*
X41071085Y18524537D01*
X41071083Y18524538D01*
X40925011Y18585043D01*
X40925003Y18585045D01*
X40768246Y18605682D01*
X40768244Y18605682D01*
X40611486Y18585045D01*
X40611478Y18585043D01*
X40465406Y18524538D01*
X40465405Y18524538D01*
X40339968Y18428287D01*
X40339958Y18428277D01*
X40243707Y18302840D01*
X40243707Y18302839D01*
X40183202Y18156767D01*
X40183200Y18156759D01*
X40162563Y18000001D01*
X40162563Y18000000D01*
X27805335Y18000000D01*
X29227021Y19412333D01*
X29227021Y19412335D01*
X29227033Y19412345D01*
X29254601Y19442019D01*
X29264922Y19454062D01*
X29264941Y19454088D01*
X29264949Y19454096D01*
X29298367Y19497680D01*
X29298366Y19497680D01*
X29298371Y19497685D01*
X29361853Y19626803D01*
X29380760Y19684994D01*
X29385024Y19698783D01*
X29385385Y19701301D01*
X29405500Y19841194D01*
X29405500Y21524500D01*
X59973318Y21524500D01*
X59993955Y21367742D01*
X59993957Y21367734D01*
X60054462Y21221662D01*
X60054462Y21221661D01*
X60131151Y21121718D01*
X60150718Y21096218D01*
X60276159Y20999964D01*
X60276160Y20999964D01*
X60276161Y20999963D01*
X60410500Y20944318D01*
X60422238Y20939456D01*
X60539809Y20923978D01*
X60578999Y20918818D01*
X60579000Y20918818D01*
X60579001Y20918818D01*
X60610352Y20922946D01*
X60735762Y20939456D01*
X60881841Y20999964D01*
X61007282Y21096218D01*
X61081742Y21193257D01*
X61132165Y21227912D01*
X61193329Y21226311D01*
X61238825Y21193256D01*
X61293718Y21121718D01*
X61419159Y21025464D01*
X61419160Y21025464D01*
X61419161Y21025463D01*
X61565233Y20964958D01*
X61565238Y20964956D01*
X61682809Y20949478D01*
X61721999Y20944318D01*
X61722000Y20944318D01*
X61722001Y20944318D01*
X61753352Y20948446D01*
X61878762Y20964956D01*
X62024841Y21025464D01*
X62150282Y21121718D01*
X62246536Y21247159D01*
X62307044Y21393238D01*
X62327682Y21550000D01*
X62307044Y21706762D01*
X62257099Y21827340D01*
X62246537Y21852839D01*
X62246537Y21852840D01*
X62150286Y21978277D01*
X62150285Y21978278D01*
X62150282Y21978282D01*
X62150277Y21978286D01*
X62150276Y21978287D01*
X62024838Y22074538D01*
X61878766Y22135043D01*
X61878758Y22135045D01*
X61722001Y22155682D01*
X61721999Y22155682D01*
X61565241Y22135045D01*
X61565233Y22135043D01*
X61419161Y22074538D01*
X61419160Y22074538D01*
X61293723Y21978287D01*
X61293716Y21978280D01*
X61219258Y21881244D01*
X61168833Y21846589D01*
X61107669Y21848191D01*
X61062174Y21881245D01*
X61007286Y21952777D01*
X61007285Y21952778D01*
X61007282Y21952782D01*
X61007277Y21952786D01*
X61007276Y21952787D01*
X60881838Y22049038D01*
X60735766Y22109543D01*
X60735758Y22109545D01*
X60579001Y22130182D01*
X60578999Y22130182D01*
X60422241Y22109545D01*
X60422233Y22109543D01*
X60276161Y22049038D01*
X60276160Y22049038D01*
X60150723Y21952787D01*
X60150713Y21952777D01*
X60054462Y21827340D01*
X60054462Y21827339D01*
X59993957Y21681267D01*
X59993955Y21681259D01*
X59973318Y21524501D01*
X59973318Y21524500D01*
X29405500Y21524500D01*
X29405500Y25200500D01*
X29424407Y25258691D01*
X29473907Y25294655D01*
X29504500Y25299500D01*
X35000500Y25299500D01*
X35058691Y25280593D01*
X35094655Y25231093D01*
X35099500Y25200500D01*
X35099500Y24739310D01*
X35098281Y24723823D01*
X35094508Y24700001D01*
X35094508Y24699999D01*
X35098890Y24672331D01*
X35098891Y24672323D01*
X35099500Y24668481D01*
X35114354Y24574696D01*
X35171950Y24461658D01*
X35261658Y24371950D01*
X35374696Y24314354D01*
X35476178Y24298281D01*
X35499999Y24294508D01*
X35499999Y24294509D01*
X35500000Y24294508D01*
X35523822Y24298282D01*
X35539309Y24299500D01*
X49460691Y24299500D01*
X49476177Y24298282D01*
X49500000Y24294508D01*
X49625304Y24314354D01*
X49738342Y24371950D01*
X49828050Y24461658D01*
X49885646Y24574696D01*
X49900500Y24668481D01*
X49900500Y24668482D01*
X49905492Y24700000D01*
X49901719Y24723823D01*
X49900500Y24739310D01*
X49900500Y25200500D01*
X49919407Y25258691D01*
X49968907Y25294655D01*
X49999500Y25299500D01*
X55960691Y25299500D01*
X55976177Y25298282D01*
X56000000Y25294508D01*
X56125304Y25314354D01*
X56238342Y25371950D01*
X56328050Y25461658D01*
X56385646Y25574696D01*
X56385694Y25575000D01*
X72419318Y25575000D01*
X72439955Y25418242D01*
X72439957Y25418234D01*
X72500462Y25272162D01*
X72500462Y25272161D01*
X72596713Y25146724D01*
X72596718Y25146718D01*
X72722159Y25050464D01*
X72868238Y24989956D01*
X72985809Y24974478D01*
X73024999Y24969318D01*
X73025000Y24969318D01*
X73025001Y24969318D01*
X73056352Y24973446D01*
X73181762Y24989956D01*
X73327841Y25050464D01*
X73453282Y25146718D01*
X73549536Y25272159D01*
X73610044Y25418238D01*
X73630682Y25575000D01*
X73610044Y25731762D01*
X73549537Y25877839D01*
X73549537Y25877840D01*
X73453286Y26003277D01*
X73453285Y26003278D01*
X73453282Y26003282D01*
X73453277Y26003286D01*
X73453276Y26003287D01*
X73327838Y26099538D01*
X73181766Y26160043D01*
X73181758Y26160045D01*
X73025001Y26180682D01*
X73024999Y26180682D01*
X72868241Y26160045D01*
X72868233Y26160043D01*
X72722161Y26099538D01*
X72722160Y26099538D01*
X72596723Y26003287D01*
X72596713Y26003277D01*
X72500462Y25877840D01*
X72500462Y25877839D01*
X72439957Y25731767D01*
X72439955Y25731759D01*
X72419318Y25575001D01*
X72419318Y25575000D01*
X56385694Y25575000D01*
X56400500Y25668481D01*
X56400500Y25668482D01*
X56405492Y25700000D01*
X56401719Y25723823D01*
X56400500Y25739310D01*
X56400500Y28200000D01*
X65994318Y28200000D01*
X66014955Y28043242D01*
X66014957Y28043234D01*
X66075462Y27897162D01*
X66075462Y27897161D01*
X66075464Y27897159D01*
X66171718Y27771718D01*
X66297159Y27675464D01*
X66443238Y27614956D01*
X66560809Y27599478D01*
X66599999Y27594318D01*
X66600000Y27594318D01*
X66600001Y27594318D01*
X66631352Y27598446D01*
X66756762Y27614956D01*
X66902841Y27675464D01*
X67028282Y27771718D01*
X67124536Y27897159D01*
X67185044Y28043238D01*
X67205682Y28200000D01*
X67185044Y28356762D01*
X67125713Y28500000D01*
X69494318Y28500000D01*
X69514955Y28343242D01*
X69514957Y28343234D01*
X69575462Y28197162D01*
X69575462Y28197161D01*
X69575464Y28197159D01*
X69671718Y28071718D01*
X69797159Y27975464D01*
X69943238Y27914956D01*
X70060809Y27899478D01*
X70099999Y27894318D01*
X70100000Y27894318D01*
X70100001Y27894318D01*
X70131352Y27898446D01*
X70256762Y27914956D01*
X70402841Y27975464D01*
X70528282Y28071718D01*
X70624536Y28197159D01*
X70685044Y28343238D01*
X70705682Y28500000D01*
X70685044Y28656762D01*
X70631908Y28785044D01*
X70624537Y28802839D01*
X70624537Y28802840D01*
X70528286Y28928277D01*
X70528285Y28928278D01*
X70528282Y28928282D01*
X70528277Y28928286D01*
X70528276Y28928287D01*
X70402838Y29024538D01*
X70256766Y29085043D01*
X70256758Y29085045D01*
X70100001Y29105682D01*
X70099999Y29105682D01*
X69943241Y29085045D01*
X69943233Y29085043D01*
X69797161Y29024538D01*
X69797160Y29024538D01*
X69671723Y28928287D01*
X69671713Y28928277D01*
X69575462Y28802840D01*
X69575462Y28802839D01*
X69514957Y28656767D01*
X69514955Y28656759D01*
X69494318Y28500001D01*
X69494318Y28500000D01*
X67125713Y28500000D01*
X67124537Y28502839D01*
X67124537Y28502840D01*
X67028286Y28628277D01*
X67028285Y28628278D01*
X67028282Y28628282D01*
X67028277Y28628286D01*
X67028276Y28628287D01*
X66902838Y28724538D01*
X66756766Y28785043D01*
X66756758Y28785045D01*
X66600001Y28805682D01*
X66599999Y28805682D01*
X66443241Y28785045D01*
X66443233Y28785043D01*
X66297161Y28724538D01*
X66297160Y28724538D01*
X66171723Y28628287D01*
X66171713Y28628277D01*
X66075462Y28502840D01*
X66075462Y28502839D01*
X66014957Y28356767D01*
X66014955Y28356759D01*
X65994318Y28200001D01*
X65994318Y28200000D01*
X56400500Y28200000D01*
X56400500Y29495500D01*
X56419407Y29553691D01*
X56468907Y29589655D01*
X56499500Y29594500D01*
X68000994Y29594500D01*
X68001000Y29594500D01*
X68080070Y29600722D01*
X68110663Y29605567D01*
X68201467Y29628743D01*
X68328719Y29695887D01*
X68378219Y29731851D01*
X68401083Y29749482D01*
X68498371Y29855486D01*
X68561853Y29984604D01*
X68580760Y30042795D01*
X68585024Y30056584D01*
X68585385Y30059102D01*
X68605500Y30198995D01*
X68605500Y32600000D01*
X81394318Y32600000D01*
X81414955Y32443242D01*
X81414957Y32443234D01*
X81475462Y32297162D01*
X81475462Y32297161D01*
X81475464Y32297159D01*
X81571718Y32171718D01*
X81697159Y32075464D01*
X81843238Y32014956D01*
X81960809Y31999478D01*
X81999999Y31994318D01*
X82000000Y31994318D01*
X82000001Y31994318D01*
X82031352Y31998446D01*
X82156762Y32014956D01*
X82302841Y32075464D01*
X82428282Y32171718D01*
X82524536Y32297159D01*
X82585044Y32443238D01*
X82605682Y32600000D01*
X82585044Y32756762D01*
X82524537Y32902839D01*
X82524537Y32902840D01*
X82428286Y33028277D01*
X82428285Y33028278D01*
X82428282Y33028282D01*
X82428277Y33028286D01*
X82428276Y33028287D01*
X82302838Y33124538D01*
X82156766Y33185043D01*
X82156758Y33185045D01*
X82000001Y33205682D01*
X81999999Y33205682D01*
X81843241Y33185045D01*
X81843233Y33185043D01*
X81697161Y33124538D01*
X81697160Y33124538D01*
X81571723Y33028287D01*
X81571713Y33028277D01*
X81475462Y32902840D01*
X81475462Y32902839D01*
X81414957Y32756767D01*
X81414955Y32756759D01*
X81394318Y32600001D01*
X81394318Y32600000D01*
X68605500Y32600000D01*
X68605500Y34000000D01*
X82394318Y34000000D01*
X82414955Y33843242D01*
X82414957Y33843234D01*
X82475462Y33697162D01*
X82475462Y33697161D01*
X82475464Y33697159D01*
X82571718Y33571718D01*
X82697159Y33475464D01*
X82843238Y33414956D01*
X82960809Y33399478D01*
X82999999Y33394318D01*
X83000000Y33394318D01*
X83000001Y33394318D01*
X83031352Y33398446D01*
X83156762Y33414956D01*
X83302841Y33475464D01*
X83428282Y33571718D01*
X83524536Y33697159D01*
X83585044Y33843238D01*
X83605682Y34000000D01*
X83585044Y34156762D01*
X83585042Y34156767D01*
X83524537Y34302839D01*
X83524537Y34302840D01*
X83428286Y34428277D01*
X83428285Y34428278D01*
X83428282Y34428282D01*
X83428277Y34428286D01*
X83428276Y34428287D01*
X83302838Y34524538D01*
X83156766Y34585043D01*
X83156758Y34585045D01*
X83000001Y34605682D01*
X82999999Y34605682D01*
X82843241Y34585045D01*
X82843233Y34585043D01*
X82697161Y34524538D01*
X82697160Y34524538D01*
X82571723Y34428287D01*
X82571713Y34428277D01*
X82475462Y34302840D01*
X82475462Y34302839D01*
X82414957Y34156767D01*
X82414955Y34156759D01*
X82394318Y34000001D01*
X82394318Y34000000D01*
X68605500Y34000000D01*
X68605500Y34745500D01*
X68624407Y34803691D01*
X68673907Y34839655D01*
X68704500Y34844500D01*
X80097163Y34844500D01*
X80155354Y34825593D01*
G37*
%TD.AperFunction*%
%TD*%
%TA.AperFunction,Conductor*%
%TO.N,GNDA*%
G36*
X83003522Y54599248D02*
G01*
X83030016Y54597354D01*
X83220577Y54583724D01*
X83234540Y54581717D01*
X83443721Y54536212D01*
X83457261Y54532236D01*
X83657833Y54457426D01*
X83670659Y54451569D01*
X83858545Y54348976D01*
X83870417Y54341346D01*
X84041781Y54213064D01*
X84052456Y54203815D01*
X84203814Y54052457D01*
X84213063Y54041782D01*
X84341345Y53870418D01*
X84348977Y53858542D01*
X84451565Y53670666D01*
X84457429Y53657826D01*
X84532233Y53457269D01*
X84536213Y53443716D01*
X84581714Y53234551D01*
X84583724Y53220570D01*
X84599248Y53003524D01*
X84599500Y52996461D01*
X84599500Y35449000D01*
X84580593Y35390809D01*
X84531093Y35354845D01*
X84500500Y35350000D01*
X81493067Y35350000D01*
X81434876Y35368907D01*
X81419496Y35382756D01*
X81405870Y35397889D01*
X81252731Y35509150D01*
X81252732Y35509150D01*
X81252730Y35509151D01*
X81252725Y35509153D01*
X81252722Y35509155D01*
X81079805Y35586143D01*
X81079803Y35586144D01*
X81079800Y35586145D01*
X81079799Y35586145D01*
X81044580Y35593631D01*
X80894646Y35625500D01*
X80705354Y35625500D01*
X80587289Y35600405D01*
X80520200Y35586145D01*
X80520194Y35586143D01*
X80347277Y35509155D01*
X80347268Y35509150D01*
X80194129Y35397889D01*
X80180504Y35382756D01*
X80127516Y35352163D01*
X80106933Y35350000D01*
X68100000Y35350000D01*
X68100000Y35349999D01*
X68100000Y30199000D01*
X68081093Y30140809D01*
X68031593Y30104845D01*
X68001000Y30100000D01*
X56499500Y30100000D01*
X56441309Y30118907D01*
X56405345Y30168407D01*
X56400500Y30199000D01*
X56400500Y45260692D01*
X56401719Y45276180D01*
X56405492Y45300001D01*
X56402778Y45317134D01*
X56385646Y45425304D01*
X56328050Y45538342D01*
X56238342Y45628050D01*
X56125304Y45685646D01*
X56125305Y45685646D01*
X56031519Y45700500D01*
X56000001Y45705492D01*
X56000000Y45705492D01*
X55976178Y45701719D01*
X55960691Y45700500D01*
X29039309Y45700500D01*
X29023822Y45701719D01*
X29000000Y45705492D01*
X28999999Y45705492D01*
X28968481Y45700500D01*
X28874694Y45685646D01*
X28761659Y45628051D01*
X28671949Y45538341D01*
X28614355Y45425308D01*
X28614354Y45425304D01*
X28594508Y45300001D01*
X28598281Y45276180D01*
X28599500Y45260692D01*
X28599500Y25739310D01*
X28598281Y25723823D01*
X28594508Y25700001D01*
X28594508Y25699999D01*
X28598890Y25672331D01*
X28598891Y25672323D01*
X28599500Y25668481D01*
X28614354Y25574696D01*
X28671950Y25461658D01*
X28761658Y25371950D01*
X28845948Y25329002D01*
X28889209Y25285740D01*
X28900000Y25240795D01*
X28900000Y19841199D01*
X28881093Y19783008D01*
X28870772Y19770965D01*
X24419864Y15349340D01*
X21368861Y12318407D01*
X21328957Y12278766D01*
X21274349Y12251168D01*
X21259185Y12250000D01*
X499500Y12250000D01*
X441309Y12268907D01*
X405345Y12318407D01*
X400500Y12349000D01*
X400500Y43100000D01*
X19369540Y43100000D01*
X19389327Y42911739D01*
X19447819Y42731721D01*
X19447825Y42731707D01*
X19523015Y42601475D01*
X19542467Y42567784D01*
X19669129Y42427112D01*
X19822270Y42315849D01*
X19995197Y42238856D01*
X20180354Y42199500D01*
X20180357Y42199500D01*
X20369643Y42199500D01*
X20369646Y42199500D01*
X20554803Y42238856D01*
X20727730Y42315849D01*
X20880871Y42427112D01*
X21007533Y42567784D01*
X21102179Y42731716D01*
X21160674Y42911744D01*
X21180460Y43100000D01*
X21160674Y43288256D01*
X21102179Y43468284D01*
X21102176Y43468289D01*
X21102174Y43468294D01*
X21053551Y43552510D01*
X21007533Y43632216D01*
X20880871Y43772888D01*
X20727730Y43884151D01*
X20727725Y43884153D01*
X20727722Y43884155D01*
X20554805Y43961143D01*
X20554803Y43961144D01*
X20554800Y43961145D01*
X20554799Y43961145D01*
X20519580Y43968631D01*
X20369646Y44000500D01*
X20180354Y44000500D01*
X20062289Y43975405D01*
X19995200Y43961145D01*
X19995194Y43961143D01*
X19822277Y43884155D01*
X19822268Y43884150D01*
X19669129Y43772889D01*
X19669124Y43772884D01*
X19542469Y43632219D01*
X19542465Y43632213D01*
X19447825Y43468294D01*
X19447819Y43468280D01*
X19389327Y43288262D01*
X19369540Y43100000D01*
X400500Y43100000D01*
X400500Y50087500D01*
X18894540Y50087500D01*
X18909749Y49942788D01*
X18914327Y49899239D01*
X18972819Y49719221D01*
X18972825Y49719207D01*
X19048015Y49588975D01*
X19067467Y49555284D01*
X19194129Y49414612D01*
X19347270Y49303349D01*
X19520197Y49226356D01*
X19705354Y49187000D01*
X19705357Y49187000D01*
X19894643Y49187000D01*
X19894646Y49187000D01*
X20079803Y49226356D01*
X20252730Y49303349D01*
X20405871Y49414612D01*
X20532533Y49555284D01*
X20627179Y49719216D01*
X20685674Y49899244D01*
X20705460Y50087500D01*
X20685674Y50275756D01*
X20627179Y50455784D01*
X20627176Y50455789D01*
X20627174Y50455794D01*
X20616085Y50475000D01*
X65119540Y50475000D01*
X65139327Y50286739D01*
X65197819Y50106721D01*
X65197825Y50106707D01*
X65273015Y49976475D01*
X65292467Y49942784D01*
X65419129Y49802112D01*
X65572270Y49690849D01*
X65745197Y49613856D01*
X65930354Y49574500D01*
X65930357Y49574500D01*
X66119643Y49574500D01*
X66119646Y49574500D01*
X66304803Y49613856D01*
X66477730Y49690849D01*
X66630871Y49802112D01*
X66757533Y49942784D01*
X66852179Y50106716D01*
X66910674Y50286744D01*
X66930460Y50475000D01*
X66910674Y50663256D01*
X66852179Y50843284D01*
X66852176Y50843289D01*
X66852174Y50843294D01*
X66768627Y50988000D01*
X66757533Y51007216D01*
X66630871Y51147888D01*
X66477730Y51259151D01*
X66477725Y51259153D01*
X66477722Y51259155D01*
X66304805Y51336143D01*
X66304803Y51336144D01*
X66304800Y51336145D01*
X66304799Y51336145D01*
X66269580Y51343631D01*
X66119646Y51375500D01*
X65930354Y51375500D01*
X65812289Y51350405D01*
X65745200Y51336145D01*
X65745194Y51336143D01*
X65572277Y51259155D01*
X65572268Y51259150D01*
X65419129Y51147889D01*
X65419124Y51147884D01*
X65292469Y51007219D01*
X65292465Y51007213D01*
X65197825Y50843294D01*
X65197819Y50843280D01*
X65139327Y50663262D01*
X65119540Y50475000D01*
X20616085Y50475000D01*
X20578551Y50540010D01*
X20532533Y50619716D01*
X20405871Y50760388D01*
X20252730Y50871651D01*
X20252725Y50871653D01*
X20252722Y50871655D01*
X20079805Y50948643D01*
X20079803Y50948644D01*
X20079800Y50948645D01*
X20079799Y50948645D01*
X20044580Y50956131D01*
X19894646Y50988000D01*
X19705354Y50988000D01*
X19587289Y50962905D01*
X19520200Y50948645D01*
X19520194Y50948643D01*
X19347277Y50871655D01*
X19347268Y50871650D01*
X19194129Y50760389D01*
X19194124Y50760384D01*
X19067469Y50619719D01*
X19067465Y50619713D01*
X18972825Y50455794D01*
X18972819Y50455780D01*
X18914327Y50275762D01*
X18914326Y50275758D01*
X18914326Y50275756D01*
X18894540Y50087500D01*
X400500Y50087500D01*
X400500Y52996461D01*
X400752Y53003523D01*
X410885Y53145204D01*
X416276Y53220580D01*
X418283Y53234539D01*
X463788Y53443726D01*
X467762Y53457259D01*
X542576Y53657840D01*
X548428Y53670655D01*
X651027Y53858552D01*
X658654Y53870418D01*
X786936Y54041782D01*
X796178Y54052450D01*
X947550Y54203822D01*
X958218Y54213064D01*
X1129582Y54341346D01*
X1141448Y54348973D01*
X1329345Y54451572D01*
X1342160Y54457424D01*
X1542741Y54532238D01*
X1556274Y54536212D01*
X1765461Y54581717D01*
X1779420Y54583724D01*
X1972193Y54597512D01*
X1996478Y54599248D01*
X2003540Y54599500D01*
X2057583Y54599500D01*
X82942417Y54599500D01*
X82996460Y54599500D01*
X83003522Y54599248D01*
G37*
%TD.AperFunction*%
%TD*%
M02*
