%TF.GenerationSoftware,KiCad,Pcbnew,7.0.10*%
%TF.CreationDate,2024-02-06T18:38:26-08:00*%
%TF.ProjectId,main_board,6d61696e-5f62-46f6-9172-642e6b696361,rev?*%
%TF.SameCoordinates,Original*%
%TF.FileFunction,Legend,Top*%
%TF.FilePolarity,Positive*%
%FSLAX46Y46*%
G04 Gerber Fmt 4.6, Leading zero omitted, Abs format (unit mm)*
G04 Created by KiCad (PCBNEW 7.0.10) date 2024-02-06 18:38:26*
%MOMM*%
%LPD*%
G01*
G04 APERTURE LIST*
G04 Aperture macros list*
%AMRoundRect*
0 Rectangle with rounded corners*
0 $1 Rounding radius*
0 $2 $3 $4 $5 $6 $7 $8 $9 X,Y pos of 4 corners*
0 Add a 4 corners polygon primitive as box body*
4,1,4,$2,$3,$4,$5,$6,$7,$8,$9,$2,$3,0*
0 Add four circle primitives for the rounded corners*
1,1,$1+$1,$2,$3*
1,1,$1+$1,$4,$5*
1,1,$1+$1,$6,$7*
1,1,$1+$1,$8,$9*
0 Add four rect primitives between the rounded corners*
20,1,$1+$1,$2,$3,$4,$5,0*
20,1,$1+$1,$4,$5,$6,$7,0*
20,1,$1+$1,$6,$7,$8,$9,0*
20,1,$1+$1,$8,$9,$2,$3,0*%
G04 Aperture macros list end*
%ADD10C,0.100000*%
%ADD11C,0.150000*%
%ADD12C,0.120000*%
%ADD13RoundRect,0.200000X0.200000X0.275000X-0.200000X0.275000X-0.200000X-0.275000X0.200000X-0.275000X0*%
%ADD14RoundRect,0.150000X-0.512500X-0.150000X0.512500X-0.150000X0.512500X0.150000X-0.512500X0.150000X0*%
%ADD15RoundRect,0.250000X-0.250000X-0.475000X0.250000X-0.475000X0.250000X0.475000X-0.250000X0.475000X0*%
%ADD16RoundRect,0.200000X-0.275000X0.200000X-0.275000X-0.200000X0.275000X-0.200000X0.275000X0.200000X0*%
%ADD17RoundRect,0.225000X-0.250000X0.225000X-0.250000X-0.225000X0.250000X-0.225000X0.250000X0.225000X0*%
%ADD18RoundRect,0.150000X0.512500X0.150000X-0.512500X0.150000X-0.512500X-0.150000X0.512500X-0.150000X0*%
%ADD19RoundRect,0.200000X-0.200000X-0.275000X0.200000X-0.275000X0.200000X0.275000X-0.200000X0.275000X0*%
%ADD20RoundRect,0.225000X0.250000X-0.225000X0.250000X0.225000X-0.250000X0.225000X-0.250000X-0.225000X0*%
%ADD21RoundRect,0.225000X-0.225000X-0.250000X0.225000X-0.250000X0.225000X0.250000X-0.225000X0.250000X0*%
%ADD22RoundRect,0.225000X0.225000X0.250000X-0.225000X0.250000X-0.225000X-0.250000X0.225000X-0.250000X0*%
%ADD23RoundRect,0.225000X-0.225000X0.525000X-0.225000X-0.525000X0.225000X-0.525000X0.225000X0.525000X0*%
%ADD24RoundRect,0.225000X-0.525000X-0.225000X0.525000X-0.225000X0.525000X0.225000X-0.525000X0.225000X0*%
%ADD25RoundRect,0.225000X0.225000X-0.525000X0.225000X0.525000X-0.225000X0.525000X-0.225000X-0.525000X0*%
%ADD26RoundRect,0.225000X0.225000X-0.225000X0.225000X0.225000X-0.225000X0.225000X-0.225000X-0.225000X0*%
%ADD27R,0.400000X3.500000*%
%ADD28R,0.650000X0.200000*%
%ADD29R,1.300000X1.400000*%
%ADD30RoundRect,0.150000X0.150000X0.625000X-0.150000X0.625000X-0.150000X-0.625000X0.150000X-0.625000X0*%
%ADD31RoundRect,0.250000X0.350000X0.650000X-0.350000X0.650000X-0.350000X-0.650000X0.350000X-0.650000X0*%
%ADD32RoundRect,0.750000X2.750000X0.750000X-2.750000X0.750000X-2.750000X-0.750000X2.750000X-0.750000X0*%
%ADD33R,1.000000X1.800000*%
%ADD34R,1.300000X3.700000*%
%ADD35RoundRect,0.150000X0.587500X0.150000X-0.587500X0.150000X-0.587500X-0.150000X0.587500X-0.150000X0*%
%ADD36RoundRect,0.200000X0.275000X-0.200000X0.275000X0.200000X-0.275000X0.200000X-0.275000X-0.200000X0*%
%ADD37RoundRect,0.250000X-0.475000X0.250000X-0.475000X-0.250000X0.475000X-0.250000X0.475000X0.250000X0*%
%ADD38RoundRect,0.325000X-1.475000X-0.325000X1.475000X-0.325000X1.475000X0.325000X-1.475000X0.325000X0*%
%ADD39RoundRect,0.325000X0.325000X-1.475000X0.325000X1.475000X-0.325000X1.475000X-0.325000X-1.475000X0*%
%ADD40C,0.650000*%
%ADD41R,0.600000X1.055000*%
%ADD42R,0.600000X1.150000*%
%ADD43R,0.300000X1.150000*%
%ADD44O,1.000000X2.100000*%
%ADD45O,1.000000X1.800000*%
%ADD46RoundRect,0.150000X-0.587500X-0.150000X0.587500X-0.150000X0.587500X0.150000X-0.587500X0.150000X0*%
G04 APERTURE END LIST*
D10*
X50331895Y2655075D02*
X50331895Y3150313D01*
X50331895Y3150313D02*
X50636657Y2883647D01*
X50636657Y2883647D02*
X50636657Y2997932D01*
X50636657Y2997932D02*
X50674752Y3074123D01*
X50674752Y3074123D02*
X50712847Y3112218D01*
X50712847Y3112218D02*
X50789038Y3150313D01*
X50789038Y3150313D02*
X50979514Y3150313D01*
X50979514Y3150313D02*
X51055704Y3112218D01*
X51055704Y3112218D02*
X51093800Y3074123D01*
X51093800Y3074123D02*
X51131895Y2997932D01*
X51131895Y2997932D02*
X51131895Y2769361D01*
X51131895Y2769361D02*
X51093800Y2693170D01*
X51093800Y2693170D02*
X51055704Y2655075D01*
X50331895Y3378885D02*
X51131895Y3645552D01*
X51131895Y3645552D02*
X50331895Y3912218D01*
X50331895Y4102694D02*
X50331895Y4597932D01*
X50331895Y4597932D02*
X50636657Y4331266D01*
X50636657Y4331266D02*
X50636657Y4445551D01*
X50636657Y4445551D02*
X50674752Y4521742D01*
X50674752Y4521742D02*
X50712847Y4559837D01*
X50712847Y4559837D02*
X50789038Y4597932D01*
X50789038Y4597932D02*
X50979514Y4597932D01*
X50979514Y4597932D02*
X51055704Y4559837D01*
X51055704Y4559837D02*
X51093800Y4521742D01*
X51093800Y4521742D02*
X51131895Y4445551D01*
X51131895Y4445551D02*
X51131895Y4216980D01*
X51131895Y4216980D02*
X51093800Y4140789D01*
X51093800Y4140789D02*
X51055704Y4102694D01*
X54086895Y3188409D02*
X53705942Y2921742D01*
X54086895Y2731266D02*
X53286895Y2731266D01*
X53286895Y2731266D02*
X53286895Y3036028D01*
X53286895Y3036028D02*
X53324990Y3112218D01*
X53324990Y3112218D02*
X53363085Y3150313D01*
X53363085Y3150313D02*
X53439276Y3188409D01*
X53439276Y3188409D02*
X53553561Y3188409D01*
X53553561Y3188409D02*
X53629752Y3150313D01*
X53629752Y3150313D02*
X53667847Y3112218D01*
X53667847Y3112218D02*
X53705942Y3036028D01*
X53705942Y3036028D02*
X53705942Y2731266D01*
X53286895Y3455075D02*
X54086895Y3988409D01*
X53286895Y3988409D02*
X54086895Y3455075D01*
X54086895Y4293171D02*
X53286895Y4293171D01*
X53286895Y4293171D02*
X53286895Y4483647D01*
X53286895Y4483647D02*
X53324990Y4597933D01*
X53324990Y4597933D02*
X53401180Y4674123D01*
X53401180Y4674123D02*
X53477371Y4712218D01*
X53477371Y4712218D02*
X53629752Y4750314D01*
X53629752Y4750314D02*
X53744038Y4750314D01*
X53744038Y4750314D02*
X53896419Y4712218D01*
X53896419Y4712218D02*
X53972609Y4674123D01*
X53972609Y4674123D02*
X54048800Y4597933D01*
X54048800Y4597933D02*
X54086895Y4483647D01*
X54086895Y4483647D02*
X54086895Y4293171D01*
X49727847Y2731266D02*
X49727847Y2997932D01*
X50146895Y3112218D02*
X50146895Y2731266D01*
X50146895Y2731266D02*
X49346895Y2731266D01*
X49346895Y2731266D02*
X49346895Y3112218D01*
X50146895Y3455076D02*
X49346895Y3455076D01*
X49346895Y3455076D02*
X50146895Y3912219D01*
X50146895Y3912219D02*
X49346895Y3912219D01*
D11*
X64322493Y46230181D02*
X64322493Y45515896D01*
X64322493Y45515896D02*
X64274874Y45373039D01*
X64274874Y45373039D02*
X64179636Y45277800D01*
X64179636Y45277800D02*
X64036779Y45230181D01*
X64036779Y45230181D02*
X63941541Y45230181D01*
X65274874Y45230181D02*
X64798684Y45230181D01*
X64798684Y45230181D02*
X64798684Y46230181D01*
X66179636Y45325420D02*
X66132017Y45277800D01*
X66132017Y45277800D02*
X65989160Y45230181D01*
X65989160Y45230181D02*
X65893922Y45230181D01*
X65893922Y45230181D02*
X65751065Y45277800D01*
X65751065Y45277800D02*
X65655827Y45373039D01*
X65655827Y45373039D02*
X65608208Y45468277D01*
X65608208Y45468277D02*
X65560589Y45658753D01*
X65560589Y45658753D02*
X65560589Y45801610D01*
X65560589Y45801610D02*
X65608208Y45992086D01*
X65608208Y45992086D02*
X65655827Y46087324D01*
X65655827Y46087324D02*
X65751065Y46182562D01*
X65751065Y46182562D02*
X65893922Y46230181D01*
X65893922Y46230181D02*
X65989160Y46230181D01*
X65989160Y46230181D02*
X66132017Y46182562D01*
X66132017Y46182562D02*
X66179636Y46134943D01*
X66893922Y46230181D02*
X66893922Y45515896D01*
X66893922Y45515896D02*
X66846303Y45373039D01*
X66846303Y45373039D02*
X66751065Y45277800D01*
X66751065Y45277800D02*
X66608208Y45230181D01*
X66608208Y45230181D02*
X66512970Y45230181D01*
X67846303Y45230181D02*
X67370113Y45230181D01*
X67370113Y45230181D02*
X67370113Y46230181D01*
X68751065Y45325420D02*
X68703446Y45277800D01*
X68703446Y45277800D02*
X68560589Y45230181D01*
X68560589Y45230181D02*
X68465351Y45230181D01*
X68465351Y45230181D02*
X68322494Y45277800D01*
X68322494Y45277800D02*
X68227256Y45373039D01*
X68227256Y45373039D02*
X68179637Y45468277D01*
X68179637Y45468277D02*
X68132018Y45658753D01*
X68132018Y45658753D02*
X68132018Y45801610D01*
X68132018Y45801610D02*
X68179637Y45992086D01*
X68179637Y45992086D02*
X68227256Y46087324D01*
X68227256Y46087324D02*
X68322494Y46182562D01*
X68322494Y46182562D02*
X68465351Y46230181D01*
X68465351Y46230181D02*
X68560589Y46230181D01*
X68560589Y46230181D02*
X68703446Y46182562D01*
X68703446Y46182562D02*
X68751065Y46134943D01*
X69465351Y46230181D02*
X69465351Y45515896D01*
X69465351Y45515896D02*
X69417732Y45373039D01*
X69417732Y45373039D02*
X69322494Y45277800D01*
X69322494Y45277800D02*
X69179637Y45230181D01*
X69179637Y45230181D02*
X69084399Y45230181D01*
X70417732Y45230181D02*
X69941542Y45230181D01*
X69941542Y45230181D02*
X69941542Y46230181D01*
X71322494Y45325420D02*
X71274875Y45277800D01*
X71274875Y45277800D02*
X71132018Y45230181D01*
X71132018Y45230181D02*
X71036780Y45230181D01*
X71036780Y45230181D02*
X70893923Y45277800D01*
X70893923Y45277800D02*
X70798685Y45373039D01*
X70798685Y45373039D02*
X70751066Y45468277D01*
X70751066Y45468277D02*
X70703447Y45658753D01*
X70703447Y45658753D02*
X70703447Y45801610D01*
X70703447Y45801610D02*
X70751066Y45992086D01*
X70751066Y45992086D02*
X70798685Y46087324D01*
X70798685Y46087324D02*
X70893923Y46182562D01*
X70893923Y46182562D02*
X71036780Y46230181D01*
X71036780Y46230181D02*
X71132018Y46230181D01*
X71132018Y46230181D02*
X71274875Y46182562D01*
X71274875Y46182562D02*
X71322494Y46134943D01*
X72036780Y46230181D02*
X72036780Y45515896D01*
X72036780Y45515896D02*
X71989161Y45373039D01*
X71989161Y45373039D02*
X71893923Y45277800D01*
X71893923Y45277800D02*
X71751066Y45230181D01*
X71751066Y45230181D02*
X71655828Y45230181D01*
X72989161Y45230181D02*
X72512971Y45230181D01*
X72512971Y45230181D02*
X72512971Y46230181D01*
X73893923Y45325420D02*
X73846304Y45277800D01*
X73846304Y45277800D02*
X73703447Y45230181D01*
X73703447Y45230181D02*
X73608209Y45230181D01*
X73608209Y45230181D02*
X73465352Y45277800D01*
X73465352Y45277800D02*
X73370114Y45373039D01*
X73370114Y45373039D02*
X73322495Y45468277D01*
X73322495Y45468277D02*
X73274876Y45658753D01*
X73274876Y45658753D02*
X73274876Y45801610D01*
X73274876Y45801610D02*
X73322495Y45992086D01*
X73322495Y45992086D02*
X73370114Y46087324D01*
X73370114Y46087324D02*
X73465352Y46182562D01*
X73465352Y46182562D02*
X73608209Y46230181D01*
X73608209Y46230181D02*
X73703447Y46230181D01*
X73703447Y46230181D02*
X73846304Y46182562D01*
X73846304Y46182562D02*
X73893923Y46134943D01*
D10*
X51316895Y2616980D02*
X51316895Y3074123D01*
X52116895Y2845551D02*
X51316895Y2845551D01*
X51316895Y3264599D02*
X52116895Y3797933D01*
X51316895Y3797933D02*
X52116895Y3264599D01*
X52116895Y4102695D02*
X51316895Y4102695D01*
X51316895Y4102695D02*
X51316895Y4293171D01*
X51316895Y4293171D02*
X51354990Y4407457D01*
X51354990Y4407457D02*
X51431180Y4483647D01*
X51431180Y4483647D02*
X51507371Y4521742D01*
X51507371Y4521742D02*
X51659752Y4559838D01*
X51659752Y4559838D02*
X51774038Y4559838D01*
X51774038Y4559838D02*
X51926419Y4521742D01*
X51926419Y4521742D02*
X52002609Y4483647D01*
X52002609Y4483647D02*
X52078800Y4407457D01*
X52078800Y4407457D02*
X52116895Y4293171D01*
X52116895Y4293171D02*
X52116895Y4102695D01*
X13656265Y603105D02*
X13656265Y1403105D01*
X13656265Y1403105D02*
X13846741Y1403105D01*
X13846741Y1403105D02*
X13961027Y1365010D01*
X13961027Y1365010D02*
X14037217Y1288820D01*
X14037217Y1288820D02*
X14075312Y1212629D01*
X14075312Y1212629D02*
X14113408Y1060248D01*
X14113408Y1060248D02*
X14113408Y945962D01*
X14113408Y945962D02*
X14075312Y793581D01*
X14075312Y793581D02*
X14037217Y717391D01*
X14037217Y717391D02*
X13961027Y641200D01*
X13961027Y641200D02*
X13846741Y603105D01*
X13846741Y603105D02*
X13656265Y603105D01*
X14380074Y1403105D02*
X14570550Y603105D01*
X14570550Y603105D02*
X14722931Y1174534D01*
X14722931Y1174534D02*
X14875312Y603105D01*
X14875312Y603105D02*
X15065789Y1403105D01*
X15522932Y1403105D02*
X15599122Y1403105D01*
X15599122Y1403105D02*
X15675313Y1365010D01*
X15675313Y1365010D02*
X15713408Y1326915D01*
X15713408Y1326915D02*
X15751503Y1250724D01*
X15751503Y1250724D02*
X15789598Y1098343D01*
X15789598Y1098343D02*
X15789598Y907867D01*
X15789598Y907867D02*
X15751503Y755486D01*
X15751503Y755486D02*
X15713408Y679296D01*
X15713408Y679296D02*
X15675313Y641200D01*
X15675313Y641200D02*
X15599122Y603105D01*
X15599122Y603105D02*
X15522932Y603105D01*
X15522932Y603105D02*
X15446741Y641200D01*
X15446741Y641200D02*
X15408646Y679296D01*
X15408646Y679296D02*
X15370551Y755486D01*
X15370551Y755486D02*
X15332455Y907867D01*
X15332455Y907867D02*
X15332455Y1098343D01*
X15332455Y1098343D02*
X15370551Y1250724D01*
X15370551Y1250724D02*
X15408646Y1326915D01*
X15408646Y1326915D02*
X15446741Y1365010D01*
X15446741Y1365010D02*
X15522932Y1403105D01*
X16551503Y603105D02*
X16094360Y603105D01*
X16322932Y603105D02*
X16322932Y1403105D01*
X16322932Y1403105D02*
X16246741Y1288820D01*
X16246741Y1288820D02*
X16170551Y1212629D01*
X16170551Y1212629D02*
X16094360Y1174534D01*
X52334990Y3075313D02*
X52296895Y2999123D01*
X52296895Y2999123D02*
X52296895Y2884837D01*
X52296895Y2884837D02*
X52334990Y2770551D01*
X52334990Y2770551D02*
X52411180Y2694361D01*
X52411180Y2694361D02*
X52487371Y2656266D01*
X52487371Y2656266D02*
X52639752Y2618170D01*
X52639752Y2618170D02*
X52754038Y2618170D01*
X52754038Y2618170D02*
X52906419Y2656266D01*
X52906419Y2656266D02*
X52982609Y2694361D01*
X52982609Y2694361D02*
X53058800Y2770551D01*
X53058800Y2770551D02*
X53096895Y2884837D01*
X53096895Y2884837D02*
X53096895Y2961028D01*
X53096895Y2961028D02*
X53058800Y3075313D01*
X53058800Y3075313D02*
X53020704Y3113409D01*
X53020704Y3113409D02*
X52754038Y3113409D01*
X52754038Y3113409D02*
X52754038Y2961028D01*
X53096895Y3456266D02*
X52296895Y3456266D01*
X52296895Y3456266D02*
X53096895Y3913409D01*
X53096895Y3913409D02*
X52296895Y3913409D01*
X53096895Y4294361D02*
X52296895Y4294361D01*
X52296895Y4294361D02*
X52296895Y4484837D01*
X52296895Y4484837D02*
X52334990Y4599123D01*
X52334990Y4599123D02*
X52411180Y4675313D01*
X52411180Y4675313D02*
X52487371Y4713408D01*
X52487371Y4713408D02*
X52639752Y4751504D01*
X52639752Y4751504D02*
X52754038Y4751504D01*
X52754038Y4751504D02*
X52906419Y4713408D01*
X52906419Y4713408D02*
X52982609Y4675313D01*
X52982609Y4675313D02*
X53058800Y4599123D01*
X53058800Y4599123D02*
X53096895Y4484837D01*
X53096895Y4484837D02*
X53096895Y4294361D01*
X55071895Y2731266D02*
X54271895Y2731266D01*
X54271895Y3264599D02*
X54271895Y3416980D01*
X54271895Y3416980D02*
X54309990Y3493170D01*
X54309990Y3493170D02*
X54386180Y3569361D01*
X54386180Y3569361D02*
X54538561Y3607456D01*
X54538561Y3607456D02*
X54805228Y3607456D01*
X54805228Y3607456D02*
X54957609Y3569361D01*
X54957609Y3569361D02*
X55033800Y3493170D01*
X55033800Y3493170D02*
X55071895Y3416980D01*
X55071895Y3416980D02*
X55071895Y3264599D01*
X55071895Y3264599D02*
X55033800Y3188408D01*
X55033800Y3188408D02*
X54957609Y3112218D01*
X54957609Y3112218D02*
X54805228Y3074122D01*
X54805228Y3074122D02*
X54538561Y3074122D01*
X54538561Y3074122D02*
X54386180Y3112218D01*
X54386180Y3112218D02*
X54309990Y3188408D01*
X54309990Y3188408D02*
X54271895Y3264599D01*
X54271895Y4102694D02*
X54271895Y4178884D01*
X54271895Y4178884D02*
X54309990Y4255075D01*
X54309990Y4255075D02*
X54348085Y4293170D01*
X54348085Y4293170D02*
X54424276Y4331265D01*
X54424276Y4331265D02*
X54576657Y4369360D01*
X54576657Y4369360D02*
X54767133Y4369360D01*
X54767133Y4369360D02*
X54919514Y4331265D01*
X54919514Y4331265D02*
X54995704Y4293170D01*
X54995704Y4293170D02*
X55033800Y4255075D01*
X55033800Y4255075D02*
X55071895Y4178884D01*
X55071895Y4178884D02*
X55071895Y4102694D01*
X55071895Y4102694D02*
X55033800Y4026503D01*
X55033800Y4026503D02*
X54995704Y3988408D01*
X54995704Y3988408D02*
X54919514Y3950313D01*
X54919514Y3950313D02*
X54767133Y3912217D01*
X54767133Y3912217D02*
X54576657Y3912217D01*
X54576657Y3912217D02*
X54424276Y3950313D01*
X54424276Y3950313D02*
X54348085Y3988408D01*
X54348085Y3988408D02*
X54309990Y4026503D01*
X54309990Y4026503D02*
X54271895Y4102694D01*
X31010714Y13485105D02*
X30629762Y13485105D01*
X30629762Y13485105D02*
X30591666Y13104153D01*
X30591666Y13104153D02*
X30629762Y13142248D01*
X30629762Y13142248D02*
X30705952Y13180343D01*
X30705952Y13180343D02*
X30896428Y13180343D01*
X30896428Y13180343D02*
X30972619Y13142248D01*
X30972619Y13142248D02*
X31010714Y13104153D01*
X31010714Y13104153D02*
X31048809Y13027962D01*
X31048809Y13027962D02*
X31048809Y12837486D01*
X31048809Y12837486D02*
X31010714Y12761296D01*
X31010714Y12761296D02*
X30972619Y12723200D01*
X30972619Y12723200D02*
X30896428Y12685105D01*
X30896428Y12685105D02*
X30705952Y12685105D01*
X30705952Y12685105D02*
X30629762Y12723200D01*
X30629762Y12723200D02*
X30591666Y12761296D01*
X31391667Y12685105D02*
X31391667Y13485105D01*
X31467857Y12989867D02*
X31696429Y12685105D01*
X31696429Y13218439D02*
X31391667Y12913677D01*
X32458333Y12685105D02*
X32001190Y12685105D01*
X32229762Y12685105D02*
X32229762Y13485105D01*
X32229762Y13485105D02*
X32153571Y13370820D01*
X32153571Y13370820D02*
X32077381Y13294629D01*
X32077381Y13294629D02*
X32001190Y13256534D01*
X78928570Y24258915D02*
X78966666Y24297010D01*
X78966666Y24297010D02*
X79042856Y24335105D01*
X79042856Y24335105D02*
X79233332Y24335105D01*
X79233332Y24335105D02*
X79309523Y24297010D01*
X79309523Y24297010D02*
X79347618Y24258915D01*
X79347618Y24258915D02*
X79385713Y24182724D01*
X79385713Y24182724D02*
X79385713Y24106534D01*
X79385713Y24106534D02*
X79347618Y23992248D01*
X79347618Y23992248D02*
X78890475Y23535105D01*
X78890475Y23535105D02*
X79385713Y23535105D01*
X79690475Y24258915D02*
X79728571Y24297010D01*
X79728571Y24297010D02*
X79804761Y24335105D01*
X79804761Y24335105D02*
X79995237Y24335105D01*
X79995237Y24335105D02*
X80071428Y24297010D01*
X80071428Y24297010D02*
X80109523Y24258915D01*
X80109523Y24258915D02*
X80147618Y24182724D01*
X80147618Y24182724D02*
X80147618Y24106534D01*
X80147618Y24106534D02*
X80109523Y23992248D01*
X80109523Y23992248D02*
X79652380Y23535105D01*
X79652380Y23535105D02*
X80147618Y23535105D01*
X80833333Y24068439D02*
X80833333Y23535105D01*
X80490476Y24068439D02*
X80490476Y23649391D01*
X80490476Y23649391D02*
X80528571Y23573200D01*
X80528571Y23573200D02*
X80604761Y23535105D01*
X80604761Y23535105D02*
X80719047Y23535105D01*
X80719047Y23535105D02*
X80795238Y23573200D01*
X80795238Y23573200D02*
X80833333Y23611296D01*
X19566666Y4985105D02*
X19109523Y4985105D01*
X19338095Y4985105D02*
X19338095Y5785105D01*
X19338095Y5785105D02*
X19261904Y5670820D01*
X19261904Y5670820D02*
X19185714Y5594629D01*
X19185714Y5594629D02*
X19109523Y5556534D01*
X20061905Y5785105D02*
X20138095Y5785105D01*
X20138095Y5785105D02*
X20214286Y5747010D01*
X20214286Y5747010D02*
X20252381Y5708915D01*
X20252381Y5708915D02*
X20290476Y5632724D01*
X20290476Y5632724D02*
X20328571Y5480343D01*
X20328571Y5480343D02*
X20328571Y5289867D01*
X20328571Y5289867D02*
X20290476Y5137486D01*
X20290476Y5137486D02*
X20252381Y5061296D01*
X20252381Y5061296D02*
X20214286Y5023200D01*
X20214286Y5023200D02*
X20138095Y4985105D01*
X20138095Y4985105D02*
X20061905Y4985105D01*
X20061905Y4985105D02*
X19985714Y5023200D01*
X19985714Y5023200D02*
X19947619Y5061296D01*
X19947619Y5061296D02*
X19909524Y5137486D01*
X19909524Y5137486D02*
X19871428Y5289867D01*
X19871428Y5289867D02*
X19871428Y5480343D01*
X19871428Y5480343D02*
X19909524Y5632724D01*
X19909524Y5632724D02*
X19947619Y5708915D01*
X19947619Y5708915D02*
X19985714Y5747010D01*
X19985714Y5747010D02*
X20061905Y5785105D01*
X20823810Y5785105D02*
X20900000Y5785105D01*
X20900000Y5785105D02*
X20976191Y5747010D01*
X20976191Y5747010D02*
X21014286Y5708915D01*
X21014286Y5708915D02*
X21052381Y5632724D01*
X21052381Y5632724D02*
X21090476Y5480343D01*
X21090476Y5480343D02*
X21090476Y5289867D01*
X21090476Y5289867D02*
X21052381Y5137486D01*
X21052381Y5137486D02*
X21014286Y5061296D01*
X21014286Y5061296D02*
X20976191Y5023200D01*
X20976191Y5023200D02*
X20900000Y4985105D01*
X20900000Y4985105D02*
X20823810Y4985105D01*
X20823810Y4985105D02*
X20747619Y5023200D01*
X20747619Y5023200D02*
X20709524Y5061296D01*
X20709524Y5061296D02*
X20671429Y5137486D01*
X20671429Y5137486D02*
X20633333Y5289867D01*
X20633333Y5289867D02*
X20633333Y5480343D01*
X20633333Y5480343D02*
X20671429Y5632724D01*
X20671429Y5632724D02*
X20709524Y5708915D01*
X20709524Y5708915D02*
X20747619Y5747010D01*
X20747619Y5747010D02*
X20823810Y5785105D01*
X23528571Y1318439D02*
X23528571Y785105D01*
X23338095Y1623200D02*
X23147618Y1051772D01*
X23147618Y1051772D02*
X23642857Y1051772D01*
X23871428Y1585105D02*
X24404762Y1585105D01*
X24404762Y1585105D02*
X24061904Y785105D01*
X24861905Y1585105D02*
X24938095Y1585105D01*
X24938095Y1585105D02*
X25014286Y1547010D01*
X25014286Y1547010D02*
X25052381Y1508915D01*
X25052381Y1508915D02*
X25090476Y1432724D01*
X25090476Y1432724D02*
X25128571Y1280343D01*
X25128571Y1280343D02*
X25128571Y1089867D01*
X25128571Y1089867D02*
X25090476Y937486D01*
X25090476Y937486D02*
X25052381Y861296D01*
X25052381Y861296D02*
X25014286Y823200D01*
X25014286Y823200D02*
X24938095Y785105D01*
X24938095Y785105D02*
X24861905Y785105D01*
X24861905Y785105D02*
X24785714Y823200D01*
X24785714Y823200D02*
X24747619Y861296D01*
X24747619Y861296D02*
X24709524Y937486D01*
X24709524Y937486D02*
X24671428Y1089867D01*
X24671428Y1089867D02*
X24671428Y1280343D01*
X24671428Y1280343D02*
X24709524Y1432724D01*
X24709524Y1432724D02*
X24747619Y1508915D01*
X24747619Y1508915D02*
X24785714Y1547010D01*
X24785714Y1547010D02*
X24861905Y1585105D01*
X25471429Y1318439D02*
X25471429Y785105D01*
X25471429Y1242248D02*
X25509524Y1280343D01*
X25509524Y1280343D02*
X25585714Y1318439D01*
X25585714Y1318439D02*
X25700000Y1318439D01*
X25700000Y1318439D02*
X25776191Y1280343D01*
X25776191Y1280343D02*
X25814286Y1204153D01*
X25814286Y1204153D02*
X25814286Y785105D01*
X77317856Y25360105D02*
X76860713Y25360105D01*
X77089285Y25360105D02*
X77089285Y26160105D01*
X77089285Y26160105D02*
X77013094Y26045820D01*
X77013094Y26045820D02*
X76936904Y25969629D01*
X76936904Y25969629D02*
X76860713Y25931534D01*
X77813095Y26160105D02*
X77889285Y26160105D01*
X77889285Y26160105D02*
X77965476Y26122010D01*
X77965476Y26122010D02*
X78003571Y26083915D01*
X78003571Y26083915D02*
X78041666Y26007724D01*
X78041666Y26007724D02*
X78079761Y25855343D01*
X78079761Y25855343D02*
X78079761Y25664867D01*
X78079761Y25664867D02*
X78041666Y25512486D01*
X78041666Y25512486D02*
X78003571Y25436296D01*
X78003571Y25436296D02*
X77965476Y25398200D01*
X77965476Y25398200D02*
X77889285Y25360105D01*
X77889285Y25360105D02*
X77813095Y25360105D01*
X77813095Y25360105D02*
X77736904Y25398200D01*
X77736904Y25398200D02*
X77698809Y25436296D01*
X77698809Y25436296D02*
X77660714Y25512486D01*
X77660714Y25512486D02*
X77622618Y25664867D01*
X77622618Y25664867D02*
X77622618Y25855343D01*
X77622618Y25855343D02*
X77660714Y26007724D01*
X77660714Y26007724D02*
X77698809Y26083915D01*
X77698809Y26083915D02*
X77736904Y26122010D01*
X77736904Y26122010D02*
X77813095Y26160105D01*
X78575000Y26160105D02*
X78651190Y26160105D01*
X78651190Y26160105D02*
X78727381Y26122010D01*
X78727381Y26122010D02*
X78765476Y26083915D01*
X78765476Y26083915D02*
X78803571Y26007724D01*
X78803571Y26007724D02*
X78841666Y25855343D01*
X78841666Y25855343D02*
X78841666Y25664867D01*
X78841666Y25664867D02*
X78803571Y25512486D01*
X78803571Y25512486D02*
X78765476Y25436296D01*
X78765476Y25436296D02*
X78727381Y25398200D01*
X78727381Y25398200D02*
X78651190Y25360105D01*
X78651190Y25360105D02*
X78575000Y25360105D01*
X78575000Y25360105D02*
X78498809Y25398200D01*
X78498809Y25398200D02*
X78460714Y25436296D01*
X78460714Y25436296D02*
X78422619Y25512486D01*
X78422619Y25512486D02*
X78384523Y25664867D01*
X78384523Y25664867D02*
X78384523Y25855343D01*
X78384523Y25855343D02*
X78422619Y26007724D01*
X78422619Y26007724D02*
X78460714Y26083915D01*
X78460714Y26083915D02*
X78498809Y26122010D01*
X78498809Y26122010D02*
X78575000Y26160105D01*
X79184524Y25360105D02*
X79184524Y26160105D01*
X79260714Y25664867D02*
X79489286Y25360105D01*
X79489286Y25893439D02*
X79184524Y25588677D01*
X44116666Y9008915D02*
X44154762Y9047010D01*
X44154762Y9047010D02*
X44230952Y9085105D01*
X44230952Y9085105D02*
X44421428Y9085105D01*
X44421428Y9085105D02*
X44497619Y9047010D01*
X44497619Y9047010D02*
X44535714Y9008915D01*
X44535714Y9008915D02*
X44573809Y8932724D01*
X44573809Y8932724D02*
X44573809Y8856534D01*
X44573809Y8856534D02*
X44535714Y8742248D01*
X44535714Y8742248D02*
X44078571Y8285105D01*
X44078571Y8285105D02*
X44573809Y8285105D01*
X44878571Y9008915D02*
X44916667Y9047010D01*
X44916667Y9047010D02*
X44992857Y9085105D01*
X44992857Y9085105D02*
X45183333Y9085105D01*
X45183333Y9085105D02*
X45259524Y9047010D01*
X45259524Y9047010D02*
X45297619Y9008915D01*
X45297619Y9008915D02*
X45335714Y8932724D01*
X45335714Y8932724D02*
X45335714Y8856534D01*
X45335714Y8856534D02*
X45297619Y8742248D01*
X45297619Y8742248D02*
X44840476Y8285105D01*
X44840476Y8285105D02*
X45335714Y8285105D01*
X45678572Y8285105D02*
X45678572Y9085105D01*
X45754762Y8589867D02*
X45983334Y8285105D01*
X45983334Y8818439D02*
X45678572Y8513677D01*
X46817856Y6760105D02*
X46360713Y6760105D01*
X46589285Y6760105D02*
X46589285Y7560105D01*
X46589285Y7560105D02*
X46513094Y7445820D01*
X46513094Y7445820D02*
X46436904Y7369629D01*
X46436904Y7369629D02*
X46360713Y7331534D01*
X47313095Y7560105D02*
X47389285Y7560105D01*
X47389285Y7560105D02*
X47465476Y7522010D01*
X47465476Y7522010D02*
X47503571Y7483915D01*
X47503571Y7483915D02*
X47541666Y7407724D01*
X47541666Y7407724D02*
X47579761Y7255343D01*
X47579761Y7255343D02*
X47579761Y7064867D01*
X47579761Y7064867D02*
X47541666Y6912486D01*
X47541666Y6912486D02*
X47503571Y6836296D01*
X47503571Y6836296D02*
X47465476Y6798200D01*
X47465476Y6798200D02*
X47389285Y6760105D01*
X47389285Y6760105D02*
X47313095Y6760105D01*
X47313095Y6760105D02*
X47236904Y6798200D01*
X47236904Y6798200D02*
X47198809Y6836296D01*
X47198809Y6836296D02*
X47160714Y6912486D01*
X47160714Y6912486D02*
X47122618Y7064867D01*
X47122618Y7064867D02*
X47122618Y7255343D01*
X47122618Y7255343D02*
X47160714Y7407724D01*
X47160714Y7407724D02*
X47198809Y7483915D01*
X47198809Y7483915D02*
X47236904Y7522010D01*
X47236904Y7522010D02*
X47313095Y7560105D01*
X48075000Y7560105D02*
X48151190Y7560105D01*
X48151190Y7560105D02*
X48227381Y7522010D01*
X48227381Y7522010D02*
X48265476Y7483915D01*
X48265476Y7483915D02*
X48303571Y7407724D01*
X48303571Y7407724D02*
X48341666Y7255343D01*
X48341666Y7255343D02*
X48341666Y7064867D01*
X48341666Y7064867D02*
X48303571Y6912486D01*
X48303571Y6912486D02*
X48265476Y6836296D01*
X48265476Y6836296D02*
X48227381Y6798200D01*
X48227381Y6798200D02*
X48151190Y6760105D01*
X48151190Y6760105D02*
X48075000Y6760105D01*
X48075000Y6760105D02*
X47998809Y6798200D01*
X47998809Y6798200D02*
X47960714Y6836296D01*
X47960714Y6836296D02*
X47922619Y6912486D01*
X47922619Y6912486D02*
X47884523Y7064867D01*
X47884523Y7064867D02*
X47884523Y7255343D01*
X47884523Y7255343D02*
X47922619Y7407724D01*
X47922619Y7407724D02*
X47960714Y7483915D01*
X47960714Y7483915D02*
X47998809Y7522010D01*
X47998809Y7522010D02*
X48075000Y7560105D01*
X48684524Y6760105D02*
X48684524Y7560105D01*
X48760714Y7064867D02*
X48989286Y6760105D01*
X48989286Y7293439D02*
X48684524Y6988677D01*
X17254761Y835105D02*
X16797618Y835105D01*
X17026190Y835105D02*
X17026190Y1635105D01*
X17026190Y1635105D02*
X16949999Y1520820D01*
X16949999Y1520820D02*
X16873809Y1444629D01*
X16873809Y1444629D02*
X16797618Y1406534D01*
X17750000Y1635105D02*
X17826190Y1635105D01*
X17826190Y1635105D02*
X17902381Y1597010D01*
X17902381Y1597010D02*
X17940476Y1558915D01*
X17940476Y1558915D02*
X17978571Y1482724D01*
X17978571Y1482724D02*
X18016666Y1330343D01*
X18016666Y1330343D02*
X18016666Y1139867D01*
X18016666Y1139867D02*
X17978571Y987486D01*
X17978571Y987486D02*
X17940476Y911296D01*
X17940476Y911296D02*
X17902381Y873200D01*
X17902381Y873200D02*
X17826190Y835105D01*
X17826190Y835105D02*
X17750000Y835105D01*
X17750000Y835105D02*
X17673809Y873200D01*
X17673809Y873200D02*
X17635714Y911296D01*
X17635714Y911296D02*
X17597619Y987486D01*
X17597619Y987486D02*
X17559523Y1139867D01*
X17559523Y1139867D02*
X17559523Y1330343D01*
X17559523Y1330343D02*
X17597619Y1482724D01*
X17597619Y1482724D02*
X17635714Y1558915D01*
X17635714Y1558915D02*
X17673809Y1597010D01*
X17673809Y1597010D02*
X17750000Y1635105D01*
X18511905Y1635105D02*
X18588095Y1635105D01*
X18588095Y1635105D02*
X18664286Y1597010D01*
X18664286Y1597010D02*
X18702381Y1558915D01*
X18702381Y1558915D02*
X18740476Y1482724D01*
X18740476Y1482724D02*
X18778571Y1330343D01*
X18778571Y1330343D02*
X18778571Y1139867D01*
X18778571Y1139867D02*
X18740476Y987486D01*
X18740476Y987486D02*
X18702381Y911296D01*
X18702381Y911296D02*
X18664286Y873200D01*
X18664286Y873200D02*
X18588095Y835105D01*
X18588095Y835105D02*
X18511905Y835105D01*
X18511905Y835105D02*
X18435714Y873200D01*
X18435714Y873200D02*
X18397619Y911296D01*
X18397619Y911296D02*
X18359524Y987486D01*
X18359524Y987486D02*
X18321428Y1139867D01*
X18321428Y1139867D02*
X18321428Y1330343D01*
X18321428Y1330343D02*
X18359524Y1482724D01*
X18359524Y1482724D02*
X18397619Y1558915D01*
X18397619Y1558915D02*
X18435714Y1597010D01*
X18435714Y1597010D02*
X18511905Y1635105D01*
X19121429Y1368439D02*
X19121429Y835105D01*
X19121429Y1292248D02*
X19159524Y1330343D01*
X19159524Y1330343D02*
X19235714Y1368439D01*
X19235714Y1368439D02*
X19350000Y1368439D01*
X19350000Y1368439D02*
X19426191Y1330343D01*
X19426191Y1330343D02*
X19464286Y1254153D01*
X19464286Y1254153D02*
X19464286Y835105D01*
X20754761Y785105D02*
X20297618Y785105D01*
X20526190Y785105D02*
X20526190Y1585105D01*
X20526190Y1585105D02*
X20449999Y1470820D01*
X20449999Y1470820D02*
X20373809Y1394629D01*
X20373809Y1394629D02*
X20297618Y1356534D01*
X21250000Y1585105D02*
X21326190Y1585105D01*
X21326190Y1585105D02*
X21402381Y1547010D01*
X21402381Y1547010D02*
X21440476Y1508915D01*
X21440476Y1508915D02*
X21478571Y1432724D01*
X21478571Y1432724D02*
X21516666Y1280343D01*
X21516666Y1280343D02*
X21516666Y1089867D01*
X21516666Y1089867D02*
X21478571Y937486D01*
X21478571Y937486D02*
X21440476Y861296D01*
X21440476Y861296D02*
X21402381Y823200D01*
X21402381Y823200D02*
X21326190Y785105D01*
X21326190Y785105D02*
X21250000Y785105D01*
X21250000Y785105D02*
X21173809Y823200D01*
X21173809Y823200D02*
X21135714Y861296D01*
X21135714Y861296D02*
X21097619Y937486D01*
X21097619Y937486D02*
X21059523Y1089867D01*
X21059523Y1089867D02*
X21059523Y1280343D01*
X21059523Y1280343D02*
X21097619Y1432724D01*
X21097619Y1432724D02*
X21135714Y1508915D01*
X21135714Y1508915D02*
X21173809Y1547010D01*
X21173809Y1547010D02*
X21250000Y1585105D01*
X22011905Y1585105D02*
X22088095Y1585105D01*
X22088095Y1585105D02*
X22164286Y1547010D01*
X22164286Y1547010D02*
X22202381Y1508915D01*
X22202381Y1508915D02*
X22240476Y1432724D01*
X22240476Y1432724D02*
X22278571Y1280343D01*
X22278571Y1280343D02*
X22278571Y1089867D01*
X22278571Y1089867D02*
X22240476Y937486D01*
X22240476Y937486D02*
X22202381Y861296D01*
X22202381Y861296D02*
X22164286Y823200D01*
X22164286Y823200D02*
X22088095Y785105D01*
X22088095Y785105D02*
X22011905Y785105D01*
X22011905Y785105D02*
X21935714Y823200D01*
X21935714Y823200D02*
X21897619Y861296D01*
X21897619Y861296D02*
X21859524Y937486D01*
X21859524Y937486D02*
X21821428Y1089867D01*
X21821428Y1089867D02*
X21821428Y1280343D01*
X21821428Y1280343D02*
X21859524Y1432724D01*
X21859524Y1432724D02*
X21897619Y1508915D01*
X21897619Y1508915D02*
X21935714Y1547010D01*
X21935714Y1547010D02*
X22011905Y1585105D01*
X22621429Y1318439D02*
X22621429Y785105D01*
X22621429Y1242248D02*
X22659524Y1280343D01*
X22659524Y1280343D02*
X22735714Y1318439D01*
X22735714Y1318439D02*
X22850000Y1318439D01*
X22850000Y1318439D02*
X22926191Y1280343D01*
X22926191Y1280343D02*
X22964286Y1204153D01*
X22964286Y1204153D02*
X22964286Y785105D01*
X79004761Y21760105D02*
X78547618Y21760105D01*
X78776190Y21760105D02*
X78776190Y22560105D01*
X78776190Y22560105D02*
X78699999Y22445820D01*
X78699999Y22445820D02*
X78623809Y22369629D01*
X78623809Y22369629D02*
X78547618Y22331534D01*
X79500000Y22560105D02*
X79576190Y22560105D01*
X79576190Y22560105D02*
X79652381Y22522010D01*
X79652381Y22522010D02*
X79690476Y22483915D01*
X79690476Y22483915D02*
X79728571Y22407724D01*
X79728571Y22407724D02*
X79766666Y22255343D01*
X79766666Y22255343D02*
X79766666Y22064867D01*
X79766666Y22064867D02*
X79728571Y21912486D01*
X79728571Y21912486D02*
X79690476Y21836296D01*
X79690476Y21836296D02*
X79652381Y21798200D01*
X79652381Y21798200D02*
X79576190Y21760105D01*
X79576190Y21760105D02*
X79500000Y21760105D01*
X79500000Y21760105D02*
X79423809Y21798200D01*
X79423809Y21798200D02*
X79385714Y21836296D01*
X79385714Y21836296D02*
X79347619Y21912486D01*
X79347619Y21912486D02*
X79309523Y22064867D01*
X79309523Y22064867D02*
X79309523Y22255343D01*
X79309523Y22255343D02*
X79347619Y22407724D01*
X79347619Y22407724D02*
X79385714Y22483915D01*
X79385714Y22483915D02*
X79423809Y22522010D01*
X79423809Y22522010D02*
X79500000Y22560105D01*
X80261905Y22560105D02*
X80338095Y22560105D01*
X80338095Y22560105D02*
X80414286Y22522010D01*
X80414286Y22522010D02*
X80452381Y22483915D01*
X80452381Y22483915D02*
X80490476Y22407724D01*
X80490476Y22407724D02*
X80528571Y22255343D01*
X80528571Y22255343D02*
X80528571Y22064867D01*
X80528571Y22064867D02*
X80490476Y21912486D01*
X80490476Y21912486D02*
X80452381Y21836296D01*
X80452381Y21836296D02*
X80414286Y21798200D01*
X80414286Y21798200D02*
X80338095Y21760105D01*
X80338095Y21760105D02*
X80261905Y21760105D01*
X80261905Y21760105D02*
X80185714Y21798200D01*
X80185714Y21798200D02*
X80147619Y21836296D01*
X80147619Y21836296D02*
X80109524Y21912486D01*
X80109524Y21912486D02*
X80071428Y22064867D01*
X80071428Y22064867D02*
X80071428Y22255343D01*
X80071428Y22255343D02*
X80109524Y22407724D01*
X80109524Y22407724D02*
X80147619Y22483915D01*
X80147619Y22483915D02*
X80185714Y22522010D01*
X80185714Y22522010D02*
X80261905Y22560105D01*
X80871429Y22293439D02*
X80871429Y21760105D01*
X80871429Y22217248D02*
X80909524Y22255343D01*
X80909524Y22255343D02*
X80985714Y22293439D01*
X80985714Y22293439D02*
X81100000Y22293439D01*
X81100000Y22293439D02*
X81176191Y22255343D01*
X81176191Y22255343D02*
X81214286Y22179153D01*
X81214286Y22179153D02*
X81214286Y21760105D01*
X50391666Y14735105D02*
X49934523Y14735105D01*
X50163095Y14735105D02*
X50163095Y15535105D01*
X50163095Y15535105D02*
X50086904Y15420820D01*
X50086904Y15420820D02*
X50010714Y15344629D01*
X50010714Y15344629D02*
X49934523Y15306534D01*
X51077381Y15268439D02*
X51077381Y14735105D01*
X50734524Y15268439D02*
X50734524Y14849391D01*
X50734524Y14849391D02*
X50772619Y14773200D01*
X50772619Y14773200D02*
X50848809Y14735105D01*
X50848809Y14735105D02*
X50963095Y14735105D01*
X50963095Y14735105D02*
X51039286Y14773200D01*
X51039286Y14773200D02*
X51077381Y14811296D01*
X49189895Y8665476D02*
X49189895Y9160714D01*
X49189895Y9160714D02*
X49494657Y8894048D01*
X49494657Y8894048D02*
X49494657Y9008333D01*
X49494657Y9008333D02*
X49532752Y9084524D01*
X49532752Y9084524D02*
X49570847Y9122619D01*
X49570847Y9122619D02*
X49647038Y9160714D01*
X49647038Y9160714D02*
X49837514Y9160714D01*
X49837514Y9160714D02*
X49913704Y9122619D01*
X49913704Y9122619D02*
X49951800Y9084524D01*
X49951800Y9084524D02*
X49989895Y9008333D01*
X49989895Y9008333D02*
X49989895Y8779762D01*
X49989895Y8779762D02*
X49951800Y8703571D01*
X49951800Y8703571D02*
X49913704Y8665476D01*
X49189895Y9427381D02*
X49189895Y9922619D01*
X49189895Y9922619D02*
X49494657Y9655953D01*
X49494657Y9655953D02*
X49494657Y9770238D01*
X49494657Y9770238D02*
X49532752Y9846429D01*
X49532752Y9846429D02*
X49570847Y9884524D01*
X49570847Y9884524D02*
X49647038Y9922619D01*
X49647038Y9922619D02*
X49837514Y9922619D01*
X49837514Y9922619D02*
X49913704Y9884524D01*
X49913704Y9884524D02*
X49951800Y9846429D01*
X49951800Y9846429D02*
X49989895Y9770238D01*
X49989895Y9770238D02*
X49989895Y9541667D01*
X49989895Y9541667D02*
X49951800Y9465476D01*
X49951800Y9465476D02*
X49913704Y9427381D01*
X49456561Y10265477D02*
X50256561Y10265477D01*
X49494657Y10265477D02*
X49456561Y10341667D01*
X49456561Y10341667D02*
X49456561Y10494048D01*
X49456561Y10494048D02*
X49494657Y10570239D01*
X49494657Y10570239D02*
X49532752Y10608334D01*
X49532752Y10608334D02*
X49608942Y10646429D01*
X49608942Y10646429D02*
X49837514Y10646429D01*
X49837514Y10646429D02*
X49913704Y10608334D01*
X49913704Y10608334D02*
X49951800Y10570239D01*
X49951800Y10570239D02*
X49989895Y10494048D01*
X49989895Y10494048D02*
X49989895Y10341667D01*
X49989895Y10341667D02*
X49951800Y10265477D01*
X54452395Y14175715D02*
X54452395Y13794763D01*
X54452395Y13794763D02*
X54833347Y13756667D01*
X54833347Y13756667D02*
X54795252Y13794763D01*
X54795252Y13794763D02*
X54757157Y13870953D01*
X54757157Y13870953D02*
X54757157Y14061429D01*
X54757157Y14061429D02*
X54795252Y14137620D01*
X54795252Y14137620D02*
X54833347Y14175715D01*
X54833347Y14175715D02*
X54909538Y14213810D01*
X54909538Y14213810D02*
X55100014Y14213810D01*
X55100014Y14213810D02*
X55176204Y14175715D01*
X55176204Y14175715D02*
X55214300Y14137620D01*
X55214300Y14137620D02*
X55252395Y14061429D01*
X55252395Y14061429D02*
X55252395Y13870953D01*
X55252395Y13870953D02*
X55214300Y13794763D01*
X55214300Y13794763D02*
X55176204Y13756667D01*
X55252395Y14556668D02*
X54452395Y14556668D01*
X54947633Y14632858D02*
X55252395Y14861430D01*
X54719061Y14861430D02*
X55023823Y14556668D01*
X55252395Y15623334D02*
X55252395Y15166191D01*
X55252395Y15394763D02*
X54452395Y15394763D01*
X54452395Y15394763D02*
X54566680Y15318572D01*
X54566680Y15318572D02*
X54642871Y15242382D01*
X54642871Y15242382D02*
X54680966Y15166191D01*
X65364895Y24971429D02*
X65364895Y24514286D01*
X65364895Y24742858D02*
X64564895Y24742858D01*
X64564895Y24742858D02*
X64679180Y24666667D01*
X64679180Y24666667D02*
X64755371Y24590477D01*
X64755371Y24590477D02*
X64793466Y24514286D01*
X65364895Y25314287D02*
X64564895Y25314287D01*
X64564895Y25314287D02*
X65136323Y25580953D01*
X65136323Y25580953D02*
X64564895Y25847620D01*
X64564895Y25847620D02*
X65364895Y25847620D01*
X69371428Y23160105D02*
X69904762Y23160105D01*
X69904762Y23160105D02*
X69561904Y22360105D01*
X70209524Y22893439D02*
X70209524Y22093439D01*
X70209524Y22855343D02*
X70285714Y22893439D01*
X70285714Y22893439D02*
X70438095Y22893439D01*
X70438095Y22893439D02*
X70514286Y22855343D01*
X70514286Y22855343D02*
X70552381Y22817248D01*
X70552381Y22817248D02*
X70590476Y22741058D01*
X70590476Y22741058D02*
X70590476Y22512486D01*
X70590476Y22512486D02*
X70552381Y22436296D01*
X70552381Y22436296D02*
X70514286Y22398200D01*
X70514286Y22398200D02*
X70438095Y22360105D01*
X70438095Y22360105D02*
X70285714Y22360105D01*
X70285714Y22360105D02*
X70209524Y22398200D01*
X39614895Y15516667D02*
X39614895Y15059524D01*
X39614895Y15288096D02*
X38814895Y15288096D01*
X38814895Y15288096D02*
X38929180Y15211905D01*
X38929180Y15211905D02*
X39005371Y15135715D01*
X39005371Y15135715D02*
X39043466Y15059524D01*
X39081561Y16202382D02*
X39614895Y16202382D01*
X39081561Y15859525D02*
X39500609Y15859525D01*
X39500609Y15859525D02*
X39576800Y15897620D01*
X39576800Y15897620D02*
X39614895Y15973810D01*
X39614895Y15973810D02*
X39614895Y16088096D01*
X39614895Y16088096D02*
X39576800Y16164287D01*
X39576800Y16164287D02*
X39538704Y16202382D01*
X36964895Y13035714D02*
X36964895Y12578571D01*
X36964895Y12807143D02*
X36164895Y12807143D01*
X36164895Y12807143D02*
X36279180Y12730952D01*
X36279180Y12730952D02*
X36355371Y12654762D01*
X36355371Y12654762D02*
X36393466Y12578571D01*
X36164895Y13530953D02*
X36164895Y13607143D01*
X36164895Y13607143D02*
X36202990Y13683334D01*
X36202990Y13683334D02*
X36241085Y13721429D01*
X36241085Y13721429D02*
X36317276Y13759524D01*
X36317276Y13759524D02*
X36469657Y13797619D01*
X36469657Y13797619D02*
X36660133Y13797619D01*
X36660133Y13797619D02*
X36812514Y13759524D01*
X36812514Y13759524D02*
X36888704Y13721429D01*
X36888704Y13721429D02*
X36926800Y13683334D01*
X36926800Y13683334D02*
X36964895Y13607143D01*
X36964895Y13607143D02*
X36964895Y13530953D01*
X36964895Y13530953D02*
X36926800Y13454762D01*
X36926800Y13454762D02*
X36888704Y13416667D01*
X36888704Y13416667D02*
X36812514Y13378572D01*
X36812514Y13378572D02*
X36660133Y13340476D01*
X36660133Y13340476D02*
X36469657Y13340476D01*
X36469657Y13340476D02*
X36317276Y13378572D01*
X36317276Y13378572D02*
X36241085Y13416667D01*
X36241085Y13416667D02*
X36202990Y13454762D01*
X36202990Y13454762D02*
X36164895Y13530953D01*
X36431561Y14483334D02*
X36964895Y14483334D01*
X36431561Y14140477D02*
X36850609Y14140477D01*
X36850609Y14140477D02*
X36926800Y14178572D01*
X36926800Y14178572D02*
X36964895Y14254762D01*
X36964895Y14254762D02*
X36964895Y14369048D01*
X36964895Y14369048D02*
X36926800Y14445239D01*
X36926800Y14445239D02*
X36888704Y14483334D01*
X51991666Y14735105D02*
X51534523Y14735105D01*
X51763095Y14735105D02*
X51763095Y15535105D01*
X51763095Y15535105D02*
X51686904Y15420820D01*
X51686904Y15420820D02*
X51610714Y15344629D01*
X51610714Y15344629D02*
X51534523Y15306534D01*
X52677381Y15268439D02*
X52677381Y14735105D01*
X52334524Y15268439D02*
X52334524Y14849391D01*
X52334524Y14849391D02*
X52372619Y14773200D01*
X52372619Y14773200D02*
X52448809Y14735105D01*
X52448809Y14735105D02*
X52563095Y14735105D01*
X52563095Y14735105D02*
X52639286Y14773200D01*
X52639286Y14773200D02*
X52677381Y14811296D01*
X48014895Y16966667D02*
X48014895Y16509524D01*
X48014895Y16738096D02*
X47214895Y16738096D01*
X47214895Y16738096D02*
X47329180Y16661905D01*
X47329180Y16661905D02*
X47405371Y16585715D01*
X47405371Y16585715D02*
X47443466Y16509524D01*
X47481561Y17652382D02*
X48014895Y17652382D01*
X47481561Y17309525D02*
X47900609Y17309525D01*
X47900609Y17309525D02*
X47976800Y17347620D01*
X47976800Y17347620D02*
X48014895Y17423810D01*
X48014895Y17423810D02*
X48014895Y17538096D01*
X48014895Y17538096D02*
X47976800Y17614287D01*
X47976800Y17614287D02*
X47938704Y17652382D01*
X77354761Y26885105D02*
X76897618Y26885105D01*
X77126190Y26885105D02*
X77126190Y27685105D01*
X77126190Y27685105D02*
X77049999Y27570820D01*
X77049999Y27570820D02*
X76973809Y27494629D01*
X76973809Y27494629D02*
X76897618Y27456534D01*
X77850000Y27685105D02*
X77926190Y27685105D01*
X77926190Y27685105D02*
X78002381Y27647010D01*
X78002381Y27647010D02*
X78040476Y27608915D01*
X78040476Y27608915D02*
X78078571Y27532724D01*
X78078571Y27532724D02*
X78116666Y27380343D01*
X78116666Y27380343D02*
X78116666Y27189867D01*
X78116666Y27189867D02*
X78078571Y27037486D01*
X78078571Y27037486D02*
X78040476Y26961296D01*
X78040476Y26961296D02*
X78002381Y26923200D01*
X78002381Y26923200D02*
X77926190Y26885105D01*
X77926190Y26885105D02*
X77850000Y26885105D01*
X77850000Y26885105D02*
X77773809Y26923200D01*
X77773809Y26923200D02*
X77735714Y26961296D01*
X77735714Y26961296D02*
X77697619Y27037486D01*
X77697619Y27037486D02*
X77659523Y27189867D01*
X77659523Y27189867D02*
X77659523Y27380343D01*
X77659523Y27380343D02*
X77697619Y27532724D01*
X77697619Y27532724D02*
X77735714Y27608915D01*
X77735714Y27608915D02*
X77773809Y27647010D01*
X77773809Y27647010D02*
X77850000Y27685105D01*
X78611905Y27685105D02*
X78688095Y27685105D01*
X78688095Y27685105D02*
X78764286Y27647010D01*
X78764286Y27647010D02*
X78802381Y27608915D01*
X78802381Y27608915D02*
X78840476Y27532724D01*
X78840476Y27532724D02*
X78878571Y27380343D01*
X78878571Y27380343D02*
X78878571Y27189867D01*
X78878571Y27189867D02*
X78840476Y27037486D01*
X78840476Y27037486D02*
X78802381Y26961296D01*
X78802381Y26961296D02*
X78764286Y26923200D01*
X78764286Y26923200D02*
X78688095Y26885105D01*
X78688095Y26885105D02*
X78611905Y26885105D01*
X78611905Y26885105D02*
X78535714Y26923200D01*
X78535714Y26923200D02*
X78497619Y26961296D01*
X78497619Y26961296D02*
X78459524Y27037486D01*
X78459524Y27037486D02*
X78421428Y27189867D01*
X78421428Y27189867D02*
X78421428Y27380343D01*
X78421428Y27380343D02*
X78459524Y27532724D01*
X78459524Y27532724D02*
X78497619Y27608915D01*
X78497619Y27608915D02*
X78535714Y27647010D01*
X78535714Y27647010D02*
X78611905Y27685105D01*
X79221429Y27418439D02*
X79221429Y26885105D01*
X79221429Y27342248D02*
X79259524Y27380343D01*
X79259524Y27380343D02*
X79335714Y27418439D01*
X79335714Y27418439D02*
X79450000Y27418439D01*
X79450000Y27418439D02*
X79526191Y27380343D01*
X79526191Y27380343D02*
X79564286Y27304153D01*
X79564286Y27304153D02*
X79564286Y26885105D01*
X8996115Y10291467D02*
X8234211Y10291467D01*
X24996115Y10291467D02*
X24234211Y10291467D01*
X24615163Y10672420D02*
X24615163Y9910515D01*
X31191085Y15888095D02*
X31152990Y15926191D01*
X31152990Y15926191D02*
X31114895Y16002381D01*
X31114895Y16002381D02*
X31114895Y16192857D01*
X31114895Y16192857D02*
X31152990Y16269048D01*
X31152990Y16269048D02*
X31191085Y16307143D01*
X31191085Y16307143D02*
X31267276Y16345238D01*
X31267276Y16345238D02*
X31343466Y16345238D01*
X31343466Y16345238D02*
X31457752Y16307143D01*
X31457752Y16307143D02*
X31914895Y15850000D01*
X31914895Y15850000D02*
X31914895Y16345238D01*
X31838704Y16688096D02*
X31876800Y16726191D01*
X31876800Y16726191D02*
X31914895Y16688096D01*
X31914895Y16688096D02*
X31876800Y16650000D01*
X31876800Y16650000D02*
X31838704Y16688096D01*
X31838704Y16688096D02*
X31914895Y16688096D01*
X31191085Y17030952D02*
X31152990Y17069048D01*
X31152990Y17069048D02*
X31114895Y17145238D01*
X31114895Y17145238D02*
X31114895Y17335714D01*
X31114895Y17335714D02*
X31152990Y17411905D01*
X31152990Y17411905D02*
X31191085Y17450000D01*
X31191085Y17450000D02*
X31267276Y17488095D01*
X31267276Y17488095D02*
X31343466Y17488095D01*
X31343466Y17488095D02*
X31457752Y17450000D01*
X31457752Y17450000D02*
X31914895Y16992857D01*
X31914895Y16992857D02*
X31914895Y17488095D01*
X31381561Y18173810D02*
X31914895Y18173810D01*
X31381561Y17830953D02*
X31800609Y17830953D01*
X31800609Y17830953D02*
X31876800Y17869048D01*
X31876800Y17869048D02*
X31914895Y17945238D01*
X31914895Y17945238D02*
X31914895Y18059524D01*
X31914895Y18059524D02*
X31876800Y18135715D01*
X31876800Y18135715D02*
X31838704Y18173810D01*
X36685714Y9960105D02*
X36304762Y9960105D01*
X36304762Y9960105D02*
X36266666Y9579153D01*
X36266666Y9579153D02*
X36304762Y9617248D01*
X36304762Y9617248D02*
X36380952Y9655343D01*
X36380952Y9655343D02*
X36571428Y9655343D01*
X36571428Y9655343D02*
X36647619Y9617248D01*
X36647619Y9617248D02*
X36685714Y9579153D01*
X36685714Y9579153D02*
X36723809Y9502962D01*
X36723809Y9502962D02*
X36723809Y9312486D01*
X36723809Y9312486D02*
X36685714Y9236296D01*
X36685714Y9236296D02*
X36647619Y9198200D01*
X36647619Y9198200D02*
X36571428Y9160105D01*
X36571428Y9160105D02*
X36380952Y9160105D01*
X36380952Y9160105D02*
X36304762Y9198200D01*
X36304762Y9198200D02*
X36266666Y9236296D01*
X37066667Y9160105D02*
X37066667Y9960105D01*
X37142857Y9464867D02*
X37371429Y9160105D01*
X37371429Y9693439D02*
X37066667Y9388677D01*
X38133333Y9160105D02*
X37676190Y9160105D01*
X37904762Y9160105D02*
X37904762Y9960105D01*
X37904762Y9960105D02*
X37828571Y9845820D01*
X37828571Y9845820D02*
X37752381Y9769629D01*
X37752381Y9769629D02*
X37676190Y9731534D01*
X45703895Y16884667D02*
X45703895Y16427524D01*
X45703895Y16656096D02*
X44903895Y16656096D01*
X44903895Y16656096D02*
X45018180Y16579905D01*
X45018180Y16579905D02*
X45094371Y16503715D01*
X45094371Y16503715D02*
X45132466Y16427524D01*
X45170561Y17570382D02*
X45703895Y17570382D01*
X45170561Y17227525D02*
X45589609Y17227525D01*
X45589609Y17227525D02*
X45665800Y17265620D01*
X45665800Y17265620D02*
X45703895Y17341810D01*
X45703895Y17341810D02*
X45703895Y17456096D01*
X45703895Y17456096D02*
X45665800Y17532287D01*
X45665800Y17532287D02*
X45627704Y17570382D01*
X36914895Y15647619D02*
X36914895Y16142857D01*
X36914895Y16142857D02*
X37219657Y15876191D01*
X37219657Y15876191D02*
X37219657Y15990476D01*
X37219657Y15990476D02*
X37257752Y16066667D01*
X37257752Y16066667D02*
X37295847Y16104762D01*
X37295847Y16104762D02*
X37372038Y16142857D01*
X37372038Y16142857D02*
X37562514Y16142857D01*
X37562514Y16142857D02*
X37638704Y16104762D01*
X37638704Y16104762D02*
X37676800Y16066667D01*
X37676800Y16066667D02*
X37714895Y15990476D01*
X37714895Y15990476D02*
X37714895Y15761905D01*
X37714895Y15761905D02*
X37676800Y15685714D01*
X37676800Y15685714D02*
X37638704Y15647619D01*
X37714895Y16523810D02*
X37714895Y16676191D01*
X37714895Y16676191D02*
X37676800Y16752381D01*
X37676800Y16752381D02*
X37638704Y16790477D01*
X37638704Y16790477D02*
X37524419Y16866667D01*
X37524419Y16866667D02*
X37372038Y16904762D01*
X37372038Y16904762D02*
X37067276Y16904762D01*
X37067276Y16904762D02*
X36991085Y16866667D01*
X36991085Y16866667D02*
X36952990Y16828572D01*
X36952990Y16828572D02*
X36914895Y16752381D01*
X36914895Y16752381D02*
X36914895Y16600000D01*
X36914895Y16600000D02*
X36952990Y16523810D01*
X36952990Y16523810D02*
X36991085Y16485715D01*
X36991085Y16485715D02*
X37067276Y16447619D01*
X37067276Y16447619D02*
X37257752Y16447619D01*
X37257752Y16447619D02*
X37333942Y16485715D01*
X37333942Y16485715D02*
X37372038Y16523810D01*
X37372038Y16523810D02*
X37410133Y16600000D01*
X37410133Y16600000D02*
X37410133Y16752381D01*
X37410133Y16752381D02*
X37372038Y16828572D01*
X37372038Y16828572D02*
X37333942Y16866667D01*
X37333942Y16866667D02*
X37257752Y16904762D01*
X36914895Y17400001D02*
X36914895Y17476191D01*
X36914895Y17476191D02*
X36952990Y17552382D01*
X36952990Y17552382D02*
X36991085Y17590477D01*
X36991085Y17590477D02*
X37067276Y17628572D01*
X37067276Y17628572D02*
X37219657Y17666667D01*
X37219657Y17666667D02*
X37410133Y17666667D01*
X37410133Y17666667D02*
X37562514Y17628572D01*
X37562514Y17628572D02*
X37638704Y17590477D01*
X37638704Y17590477D02*
X37676800Y17552382D01*
X37676800Y17552382D02*
X37714895Y17476191D01*
X37714895Y17476191D02*
X37714895Y17400001D01*
X37714895Y17400001D02*
X37676800Y17323810D01*
X37676800Y17323810D02*
X37638704Y17285715D01*
X37638704Y17285715D02*
X37562514Y17247620D01*
X37562514Y17247620D02*
X37410133Y17209524D01*
X37410133Y17209524D02*
X37219657Y17209524D01*
X37219657Y17209524D02*
X37067276Y17247620D01*
X37067276Y17247620D02*
X36991085Y17285715D01*
X36991085Y17285715D02*
X36952990Y17323810D01*
X36952990Y17323810D02*
X36914895Y17400001D01*
X37714895Y18009525D02*
X36914895Y18009525D01*
X37410133Y18085715D02*
X37714895Y18314287D01*
X37181561Y18314287D02*
X37486323Y18009525D01*
X33263094Y15283915D02*
X33301190Y15322010D01*
X33301190Y15322010D02*
X33377380Y15360105D01*
X33377380Y15360105D02*
X33567856Y15360105D01*
X33567856Y15360105D02*
X33644047Y15322010D01*
X33644047Y15322010D02*
X33682142Y15283915D01*
X33682142Y15283915D02*
X33720237Y15207724D01*
X33720237Y15207724D02*
X33720237Y15131534D01*
X33720237Y15131534D02*
X33682142Y15017248D01*
X33682142Y15017248D02*
X33224999Y14560105D01*
X33224999Y14560105D02*
X33720237Y14560105D01*
X34063095Y14636296D02*
X34101190Y14598200D01*
X34101190Y14598200D02*
X34063095Y14560105D01*
X34063095Y14560105D02*
X34024999Y14598200D01*
X34024999Y14598200D02*
X34063095Y14636296D01*
X34063095Y14636296D02*
X34063095Y14560105D01*
X34405951Y15283915D02*
X34444047Y15322010D01*
X34444047Y15322010D02*
X34520237Y15360105D01*
X34520237Y15360105D02*
X34710713Y15360105D01*
X34710713Y15360105D02*
X34786904Y15322010D01*
X34786904Y15322010D02*
X34824999Y15283915D01*
X34824999Y15283915D02*
X34863094Y15207724D01*
X34863094Y15207724D02*
X34863094Y15131534D01*
X34863094Y15131534D02*
X34824999Y15017248D01*
X34824999Y15017248D02*
X34367856Y14560105D01*
X34367856Y14560105D02*
X34863094Y14560105D01*
X35548809Y15093439D02*
X35548809Y14560105D01*
X35205952Y15093439D02*
X35205952Y14674391D01*
X35205952Y14674391D02*
X35244047Y14598200D01*
X35244047Y14598200D02*
X35320237Y14560105D01*
X35320237Y14560105D02*
X35434523Y14560105D01*
X35434523Y14560105D02*
X35510714Y14598200D01*
X35510714Y14598200D02*
X35548809Y14636296D01*
X47131561Y11600001D02*
X47664895Y11600001D01*
X46826800Y11409525D02*
X47398228Y11219048D01*
X47398228Y11219048D02*
X47398228Y11714287D01*
X47588704Y12019049D02*
X47626800Y12057144D01*
X47626800Y12057144D02*
X47664895Y12019049D01*
X47664895Y12019049D02*
X47626800Y11980953D01*
X47626800Y11980953D02*
X47588704Y12019049D01*
X47588704Y12019049D02*
X47664895Y12019049D01*
X46864895Y12323810D02*
X46864895Y12857144D01*
X46864895Y12857144D02*
X47664895Y12514286D01*
X47131561Y13504763D02*
X47664895Y13504763D01*
X47131561Y13161906D02*
X47550609Y13161906D01*
X47550609Y13161906D02*
X47626800Y13200001D01*
X47626800Y13200001D02*
X47664895Y13276191D01*
X47664895Y13276191D02*
X47664895Y13390477D01*
X47664895Y13390477D02*
X47626800Y13466668D01*
X47626800Y13466668D02*
X47588704Y13504763D01*
X47664895Y13885716D02*
X46864895Y13885716D01*
X47245847Y13885716D02*
X47245847Y14342859D01*
X47664895Y14342859D02*
X46864895Y14342859D01*
X54060714Y8160105D02*
X53679762Y8160105D01*
X53679762Y8160105D02*
X53641666Y7779153D01*
X53641666Y7779153D02*
X53679762Y7817248D01*
X53679762Y7817248D02*
X53755952Y7855343D01*
X53755952Y7855343D02*
X53946428Y7855343D01*
X53946428Y7855343D02*
X54022619Y7817248D01*
X54022619Y7817248D02*
X54060714Y7779153D01*
X54060714Y7779153D02*
X54098809Y7702962D01*
X54098809Y7702962D02*
X54098809Y7512486D01*
X54098809Y7512486D02*
X54060714Y7436296D01*
X54060714Y7436296D02*
X54022619Y7398200D01*
X54022619Y7398200D02*
X53946428Y7360105D01*
X53946428Y7360105D02*
X53755952Y7360105D01*
X53755952Y7360105D02*
X53679762Y7398200D01*
X53679762Y7398200D02*
X53641666Y7436296D01*
X54441667Y7360105D02*
X54441667Y8160105D01*
X54517857Y7664867D02*
X54746429Y7360105D01*
X54746429Y7893439D02*
X54441667Y7588677D01*
X55508333Y7360105D02*
X55051190Y7360105D01*
X55279762Y7360105D02*
X55279762Y8160105D01*
X55279762Y8160105D02*
X55203571Y8045820D01*
X55203571Y8045820D02*
X55127381Y7969629D01*
X55127381Y7969629D02*
X55051190Y7931534D01*
X41360714Y9860105D02*
X40979762Y9860105D01*
X40979762Y9860105D02*
X40941666Y9479153D01*
X40941666Y9479153D02*
X40979762Y9517248D01*
X40979762Y9517248D02*
X41055952Y9555343D01*
X41055952Y9555343D02*
X41246428Y9555343D01*
X41246428Y9555343D02*
X41322619Y9517248D01*
X41322619Y9517248D02*
X41360714Y9479153D01*
X41360714Y9479153D02*
X41398809Y9402962D01*
X41398809Y9402962D02*
X41398809Y9212486D01*
X41398809Y9212486D02*
X41360714Y9136296D01*
X41360714Y9136296D02*
X41322619Y9098200D01*
X41322619Y9098200D02*
X41246428Y9060105D01*
X41246428Y9060105D02*
X41055952Y9060105D01*
X41055952Y9060105D02*
X40979762Y9098200D01*
X40979762Y9098200D02*
X40941666Y9136296D01*
X41741667Y9060105D02*
X41741667Y9860105D01*
X41817857Y9364867D02*
X42046429Y9060105D01*
X42046429Y9593439D02*
X41741667Y9288677D01*
X42808333Y9060105D02*
X42351190Y9060105D01*
X42579762Y9060105D02*
X42579762Y9860105D01*
X42579762Y9860105D02*
X42503571Y9745820D01*
X42503571Y9745820D02*
X42427381Y9669629D01*
X42427381Y9669629D02*
X42351190Y9631534D01*
X55927395Y14175715D02*
X55927395Y13794763D01*
X55927395Y13794763D02*
X56308347Y13756667D01*
X56308347Y13756667D02*
X56270252Y13794763D01*
X56270252Y13794763D02*
X56232157Y13870953D01*
X56232157Y13870953D02*
X56232157Y14061429D01*
X56232157Y14061429D02*
X56270252Y14137620D01*
X56270252Y14137620D02*
X56308347Y14175715D01*
X56308347Y14175715D02*
X56384538Y14213810D01*
X56384538Y14213810D02*
X56575014Y14213810D01*
X56575014Y14213810D02*
X56651204Y14175715D01*
X56651204Y14175715D02*
X56689300Y14137620D01*
X56689300Y14137620D02*
X56727395Y14061429D01*
X56727395Y14061429D02*
X56727395Y13870953D01*
X56727395Y13870953D02*
X56689300Y13794763D01*
X56689300Y13794763D02*
X56651204Y13756667D01*
X56727395Y14556668D02*
X55927395Y14556668D01*
X56422633Y14632858D02*
X56727395Y14861430D01*
X56194061Y14861430D02*
X56498823Y14556668D01*
X56727395Y15623334D02*
X56727395Y15166191D01*
X56727395Y15394763D02*
X55927395Y15394763D01*
X55927395Y15394763D02*
X56041680Y15318572D01*
X56041680Y15318572D02*
X56117871Y15242382D01*
X56117871Y15242382D02*
X56155966Y15166191D01*
X35189895Y7816667D02*
X35189895Y7359524D01*
X35189895Y7588096D02*
X34389895Y7588096D01*
X34389895Y7588096D02*
X34504180Y7511905D01*
X34504180Y7511905D02*
X34580371Y7435715D01*
X34580371Y7435715D02*
X34618466Y7359524D01*
X34656561Y8502382D02*
X35189895Y8502382D01*
X34656561Y8159525D02*
X35075609Y8159525D01*
X35075609Y8159525D02*
X35151800Y8197620D01*
X35151800Y8197620D02*
X35189895Y8273810D01*
X35189895Y8273810D02*
X35189895Y8388096D01*
X35189895Y8388096D02*
X35151800Y8464287D01*
X35151800Y8464287D02*
X35113704Y8502382D01*
X12604761Y1635105D02*
X12147618Y1635105D01*
X12376190Y1635105D02*
X12376190Y2435105D01*
X12376190Y2435105D02*
X12299999Y2320820D01*
X12299999Y2320820D02*
X12223809Y2244629D01*
X12223809Y2244629D02*
X12147618Y2206534D01*
X12947619Y1635105D02*
X12947619Y2435105D01*
X13023809Y1939867D02*
X13252381Y1635105D01*
X13252381Y2168439D02*
X12947619Y1863677D01*
X63839895Y24971429D02*
X63839895Y24514286D01*
X63839895Y24742858D02*
X63039895Y24742858D01*
X63039895Y24742858D02*
X63154180Y24666667D01*
X63154180Y24666667D02*
X63230371Y24590477D01*
X63230371Y24590477D02*
X63268466Y24514286D01*
X63839895Y25314287D02*
X63039895Y25314287D01*
X63039895Y25314287D02*
X63611323Y25580953D01*
X63611323Y25580953D02*
X63039895Y25847620D01*
X63039895Y25847620D02*
X63839895Y25847620D01*
X50178570Y10008915D02*
X50216666Y10047010D01*
X50216666Y10047010D02*
X50292856Y10085105D01*
X50292856Y10085105D02*
X50483332Y10085105D01*
X50483332Y10085105D02*
X50559523Y10047010D01*
X50559523Y10047010D02*
X50597618Y10008915D01*
X50597618Y10008915D02*
X50635713Y9932724D01*
X50635713Y9932724D02*
X50635713Y9856534D01*
X50635713Y9856534D02*
X50597618Y9742248D01*
X50597618Y9742248D02*
X50140475Y9285105D01*
X50140475Y9285105D02*
X50635713Y9285105D01*
X50940475Y10008915D02*
X50978571Y10047010D01*
X50978571Y10047010D02*
X51054761Y10085105D01*
X51054761Y10085105D02*
X51245237Y10085105D01*
X51245237Y10085105D02*
X51321428Y10047010D01*
X51321428Y10047010D02*
X51359523Y10008915D01*
X51359523Y10008915D02*
X51397618Y9932724D01*
X51397618Y9932724D02*
X51397618Y9856534D01*
X51397618Y9856534D02*
X51359523Y9742248D01*
X51359523Y9742248D02*
X50902380Y9285105D01*
X50902380Y9285105D02*
X51397618Y9285105D01*
X52083333Y9818439D02*
X52083333Y9285105D01*
X51740476Y9818439D02*
X51740476Y9399391D01*
X51740476Y9399391D02*
X51778571Y9323200D01*
X51778571Y9323200D02*
X51854761Y9285105D01*
X51854761Y9285105D02*
X51969047Y9285105D01*
X51969047Y9285105D02*
X52045238Y9323200D01*
X52045238Y9323200D02*
X52083333Y9361296D01*
X73596428Y22435105D02*
X73139285Y22435105D01*
X73367857Y22435105D02*
X73367857Y23235105D01*
X73367857Y23235105D02*
X73291666Y23120820D01*
X73291666Y23120820D02*
X73215476Y23044629D01*
X73215476Y23044629D02*
X73139285Y23006534D01*
X73939286Y22435105D02*
X73939286Y23235105D01*
X73939286Y23235105D02*
X74205952Y22663677D01*
X74205952Y22663677D02*
X74472619Y23235105D01*
X74472619Y23235105D02*
X74472619Y22435105D01*
X22900000Y5835105D02*
X22976190Y5835105D01*
X22976190Y5835105D02*
X23052381Y5797010D01*
X23052381Y5797010D02*
X23090476Y5758915D01*
X23090476Y5758915D02*
X23128571Y5682724D01*
X23128571Y5682724D02*
X23166666Y5530343D01*
X23166666Y5530343D02*
X23166666Y5339867D01*
X23166666Y5339867D02*
X23128571Y5187486D01*
X23128571Y5187486D02*
X23090476Y5111296D01*
X23090476Y5111296D02*
X23052381Y5073200D01*
X23052381Y5073200D02*
X22976190Y5035105D01*
X22976190Y5035105D02*
X22900000Y5035105D01*
X22900000Y5035105D02*
X22823809Y5073200D01*
X22823809Y5073200D02*
X22785714Y5111296D01*
X22785714Y5111296D02*
X22747619Y5187486D01*
X22747619Y5187486D02*
X22709523Y5339867D01*
X22709523Y5339867D02*
X22709523Y5530343D01*
X22709523Y5530343D02*
X22747619Y5682724D01*
X22747619Y5682724D02*
X22785714Y5758915D01*
X22785714Y5758915D02*
X22823809Y5797010D01*
X22823809Y5797010D02*
X22900000Y5835105D01*
X23966667Y5035105D02*
X23700000Y5416058D01*
X23509524Y5035105D02*
X23509524Y5835105D01*
X23509524Y5835105D02*
X23814286Y5835105D01*
X23814286Y5835105D02*
X23890476Y5797010D01*
X23890476Y5797010D02*
X23928571Y5758915D01*
X23928571Y5758915D02*
X23966667Y5682724D01*
X23966667Y5682724D02*
X23966667Y5568439D01*
X23966667Y5568439D02*
X23928571Y5492248D01*
X23928571Y5492248D02*
X23890476Y5454153D01*
X23890476Y5454153D02*
X23814286Y5416058D01*
X23814286Y5416058D02*
X23509524Y5416058D01*
X24461905Y5835105D02*
X24538095Y5835105D01*
X24538095Y5835105D02*
X24614286Y5797010D01*
X24614286Y5797010D02*
X24652381Y5758915D01*
X24652381Y5758915D02*
X24690476Y5682724D01*
X24690476Y5682724D02*
X24728571Y5530343D01*
X24728571Y5530343D02*
X24728571Y5339867D01*
X24728571Y5339867D02*
X24690476Y5187486D01*
X24690476Y5187486D02*
X24652381Y5111296D01*
X24652381Y5111296D02*
X24614286Y5073200D01*
X24614286Y5073200D02*
X24538095Y5035105D01*
X24538095Y5035105D02*
X24461905Y5035105D01*
X24461905Y5035105D02*
X24385714Y5073200D01*
X24385714Y5073200D02*
X24347619Y5111296D01*
X24347619Y5111296D02*
X24309524Y5187486D01*
X24309524Y5187486D02*
X24271428Y5339867D01*
X24271428Y5339867D02*
X24271428Y5530343D01*
X24271428Y5530343D02*
X24309524Y5682724D01*
X24309524Y5682724D02*
X24347619Y5758915D01*
X24347619Y5758915D02*
X24385714Y5797010D01*
X24385714Y5797010D02*
X24461905Y5835105D01*
X25033333Y5758915D02*
X25071429Y5797010D01*
X25071429Y5797010D02*
X25147619Y5835105D01*
X25147619Y5835105D02*
X25338095Y5835105D01*
X25338095Y5835105D02*
X25414286Y5797010D01*
X25414286Y5797010D02*
X25452381Y5758915D01*
X25452381Y5758915D02*
X25490476Y5682724D01*
X25490476Y5682724D02*
X25490476Y5606534D01*
X25490476Y5606534D02*
X25452381Y5492248D01*
X25452381Y5492248D02*
X24995238Y5035105D01*
X24995238Y5035105D02*
X25490476Y5035105D01*
X70346428Y27135105D02*
X70879762Y27135105D01*
X70879762Y27135105D02*
X70536904Y26335105D01*
X71184524Y26868439D02*
X71184524Y26068439D01*
X71184524Y26830343D02*
X71260714Y26868439D01*
X71260714Y26868439D02*
X71413095Y26868439D01*
X71413095Y26868439D02*
X71489286Y26830343D01*
X71489286Y26830343D02*
X71527381Y26792248D01*
X71527381Y26792248D02*
X71565476Y26716058D01*
X71565476Y26716058D02*
X71565476Y26487486D01*
X71565476Y26487486D02*
X71527381Y26411296D01*
X71527381Y26411296D02*
X71489286Y26373200D01*
X71489286Y26373200D02*
X71413095Y26335105D01*
X71413095Y26335105D02*
X71260714Y26335105D01*
X71260714Y26335105D02*
X71184524Y26373200D01*
X52303570Y10008915D02*
X52341666Y10047010D01*
X52341666Y10047010D02*
X52417856Y10085105D01*
X52417856Y10085105D02*
X52608332Y10085105D01*
X52608332Y10085105D02*
X52684523Y10047010D01*
X52684523Y10047010D02*
X52722618Y10008915D01*
X52722618Y10008915D02*
X52760713Y9932724D01*
X52760713Y9932724D02*
X52760713Y9856534D01*
X52760713Y9856534D02*
X52722618Y9742248D01*
X52722618Y9742248D02*
X52265475Y9285105D01*
X52265475Y9285105D02*
X52760713Y9285105D01*
X53065475Y10008915D02*
X53103571Y10047010D01*
X53103571Y10047010D02*
X53179761Y10085105D01*
X53179761Y10085105D02*
X53370237Y10085105D01*
X53370237Y10085105D02*
X53446428Y10047010D01*
X53446428Y10047010D02*
X53484523Y10008915D01*
X53484523Y10008915D02*
X53522618Y9932724D01*
X53522618Y9932724D02*
X53522618Y9856534D01*
X53522618Y9856534D02*
X53484523Y9742248D01*
X53484523Y9742248D02*
X53027380Y9285105D01*
X53027380Y9285105D02*
X53522618Y9285105D01*
X54208333Y9818439D02*
X54208333Y9285105D01*
X53865476Y9818439D02*
X53865476Y9399391D01*
X53865476Y9399391D02*
X53903571Y9323200D01*
X53903571Y9323200D02*
X53979761Y9285105D01*
X53979761Y9285105D02*
X54094047Y9285105D01*
X54094047Y9285105D02*
X54170238Y9323200D01*
X54170238Y9323200D02*
X54208333Y9361296D01*
X58589895Y12073810D02*
X58589895Y11616667D01*
X58589895Y11845239D02*
X57789895Y11845239D01*
X57789895Y11845239D02*
X57904180Y11769048D01*
X57904180Y11769048D02*
X57980371Y11692858D01*
X57980371Y11692858D02*
X58018466Y11616667D01*
X57789895Y12569049D02*
X57789895Y12645239D01*
X57789895Y12645239D02*
X57827990Y12721430D01*
X57827990Y12721430D02*
X57866085Y12759525D01*
X57866085Y12759525D02*
X57942276Y12797620D01*
X57942276Y12797620D02*
X58094657Y12835715D01*
X58094657Y12835715D02*
X58285133Y12835715D01*
X58285133Y12835715D02*
X58437514Y12797620D01*
X58437514Y12797620D02*
X58513704Y12759525D01*
X58513704Y12759525D02*
X58551800Y12721430D01*
X58551800Y12721430D02*
X58589895Y12645239D01*
X58589895Y12645239D02*
X58589895Y12569049D01*
X58589895Y12569049D02*
X58551800Y12492858D01*
X58551800Y12492858D02*
X58513704Y12454763D01*
X58513704Y12454763D02*
X58437514Y12416668D01*
X58437514Y12416668D02*
X58285133Y12378572D01*
X58285133Y12378572D02*
X58094657Y12378572D01*
X58094657Y12378572D02*
X57942276Y12416668D01*
X57942276Y12416668D02*
X57866085Y12454763D01*
X57866085Y12454763D02*
X57827990Y12492858D01*
X57827990Y12492858D02*
X57789895Y12569049D01*
X58589895Y13178573D02*
X57789895Y13178573D01*
X58285133Y13254763D02*
X58589895Y13483335D01*
X58056561Y13483335D02*
X58361323Y13178573D01*
X30297618Y1204153D02*
X30411904Y1166058D01*
X30411904Y1166058D02*
X30449999Y1127962D01*
X30449999Y1127962D02*
X30488095Y1051772D01*
X30488095Y1051772D02*
X30488095Y937486D01*
X30488095Y937486D02*
X30449999Y861296D01*
X30449999Y861296D02*
X30411904Y823200D01*
X30411904Y823200D02*
X30335714Y785105D01*
X30335714Y785105D02*
X30030952Y785105D01*
X30030952Y785105D02*
X30030952Y1585105D01*
X30030952Y1585105D02*
X30297618Y1585105D01*
X30297618Y1585105D02*
X30373809Y1547010D01*
X30373809Y1547010D02*
X30411904Y1508915D01*
X30411904Y1508915D02*
X30449999Y1432724D01*
X30449999Y1432724D02*
X30449999Y1356534D01*
X30449999Y1356534D02*
X30411904Y1280343D01*
X30411904Y1280343D02*
X30373809Y1242248D01*
X30373809Y1242248D02*
X30297618Y1204153D01*
X30297618Y1204153D02*
X30030952Y1204153D01*
X30792856Y1013677D02*
X31173809Y1013677D01*
X30716666Y785105D02*
X30983333Y1585105D01*
X30983333Y1585105D02*
X31249999Y785105D01*
X31402380Y1585105D02*
X31859523Y1585105D01*
X31630951Y785105D02*
X31630951Y1585105D01*
X32507142Y1585105D02*
X32126190Y1585105D01*
X32126190Y1585105D02*
X32088094Y1204153D01*
X32088094Y1204153D02*
X32126190Y1242248D01*
X32126190Y1242248D02*
X32202380Y1280343D01*
X32202380Y1280343D02*
X32392856Y1280343D01*
X32392856Y1280343D02*
X32469047Y1242248D01*
X32469047Y1242248D02*
X32507142Y1204153D01*
X32507142Y1204153D02*
X32545237Y1127962D01*
X32545237Y1127962D02*
X32545237Y937486D01*
X32545237Y937486D02*
X32507142Y861296D01*
X32507142Y861296D02*
X32469047Y823200D01*
X32469047Y823200D02*
X32392856Y785105D01*
X32392856Y785105D02*
X32202380Y785105D01*
X32202380Y785105D02*
X32126190Y823200D01*
X32126190Y823200D02*
X32088094Y861296D01*
X33230952Y1318439D02*
X33230952Y785105D01*
X33040476Y1623200D02*
X32849999Y1051772D01*
X32849999Y1051772D02*
X33345238Y1051772D01*
X34107143Y861296D02*
X34069047Y823200D01*
X34069047Y823200D02*
X33954762Y785105D01*
X33954762Y785105D02*
X33878571Y785105D01*
X33878571Y785105D02*
X33764285Y823200D01*
X33764285Y823200D02*
X33688095Y899391D01*
X33688095Y899391D02*
X33650000Y975581D01*
X33650000Y975581D02*
X33611904Y1127962D01*
X33611904Y1127962D02*
X33611904Y1242248D01*
X33611904Y1242248D02*
X33650000Y1394629D01*
X33650000Y1394629D02*
X33688095Y1470820D01*
X33688095Y1470820D02*
X33764285Y1547010D01*
X33764285Y1547010D02*
X33878571Y1585105D01*
X33878571Y1585105D02*
X33954762Y1585105D01*
X33954762Y1585105D02*
X34069047Y1547010D01*
X34069047Y1547010D02*
X34107143Y1508915D01*
D12*
%TO.C,R14*%
X34337258Y12165000D02*
X33862742Y12165000D01*
X34337258Y13210000D02*
X33862742Y13210000D01*
%TO.C,U6*%
X9935000Y4736875D02*
X8135000Y4736875D01*
X9935000Y4736875D02*
X10735000Y4736875D01*
X9935000Y1616875D02*
X9135000Y1616875D01*
X9935000Y1616875D02*
X10735000Y1616875D01*
%TO.C,C7*%
X76813748Y24660000D02*
X77336252Y24660000D01*
X76813748Y23190000D02*
X77336252Y23190000D01*
%TO.C,R6*%
X20662500Y3479758D02*
X20662500Y3005242D01*
X19617500Y3479758D02*
X19617500Y3005242D01*
%TO.C,C22*%
X23920000Y3380580D02*
X23920000Y3099420D01*
X22900000Y3380580D02*
X22900000Y3099420D01*
%TO.C,R2*%
X75512258Y25202500D02*
X75037742Y25202500D01*
X75512258Y26247500D02*
X75037742Y26247500D01*
%TO.C,U3*%
X42312500Y11690000D02*
X44112500Y11690000D01*
X42312500Y11690000D02*
X41512500Y11690000D01*
X42312500Y14810000D02*
X43112500Y14810000D01*
X42312500Y14810000D02*
X41512500Y14810000D01*
%TO.C,R8*%
X44887258Y9377500D02*
X44412742Y9377500D01*
X44887258Y10422500D02*
X44412742Y10422500D01*
%TO.C,R7*%
X47400242Y8967500D02*
X47874758Y8967500D01*
X47400242Y7922500D02*
X47874758Y7922500D01*
%TO.C,C14*%
X17875000Y3236295D02*
X17875000Y3517455D01*
X18895000Y3236295D02*
X18895000Y3517455D01*
%TO.C,C21*%
X22460000Y3380580D02*
X22460000Y3099420D01*
X21440000Y3380580D02*
X21440000Y3099420D01*
%TO.C,C8*%
X76784420Y22635000D02*
X77065580Y22635000D01*
X76784420Y21615000D02*
X77065580Y21615000D01*
%TO.C,C2*%
X50810000Y17140580D02*
X50810000Y16859420D01*
X49790000Y17140580D02*
X49790000Y16859420D01*
%TO.C,C17*%
X47778080Y9410000D02*
X47496920Y9410000D01*
X47778080Y10430000D02*
X47496920Y10430000D01*
%TO.C,R9*%
X55410000Y12387258D02*
X55410000Y11912742D01*
X54365000Y12387258D02*
X54365000Y11912742D01*
D10*
%TO.C,U2*%
X84925000Y20400000D02*
X78125000Y20400000D01*
X60225000Y20400000D02*
X59425000Y20400000D01*
X59425000Y20400000D02*
X59425000Y19200000D01*
X84925000Y2400000D02*
X84925000Y20400000D01*
X84925000Y2400000D02*
X78125000Y2400000D01*
X78925000Y2400000D02*
X78925000Y20400000D01*
X60225000Y2400000D02*
X59425000Y2400000D01*
X59425000Y2400000D02*
X59425000Y3600000D01*
%TO.C,U1*%
X31500000Y25650000D02*
X31500000Y22500000D01*
X31500000Y22500000D02*
X31500000Y20250000D01*
X35500000Y25650000D02*
X31500000Y25650000D01*
X35500000Y24700000D02*
X35500000Y25650000D01*
X49500000Y25650000D02*
X49500000Y24700000D01*
X49500000Y24700000D02*
X35500000Y24700000D01*
X53500000Y25650000D02*
X49500000Y25650000D01*
X53500000Y22700000D02*
X31500000Y22700000D01*
X53500000Y22500000D02*
X53500000Y25650000D01*
X53500000Y20250000D02*
X31500000Y20250000D01*
X53500000Y20250000D02*
X53500000Y22500000D01*
D12*
%TO.C,R5*%
X65522500Y23037258D02*
X65522500Y22562742D01*
X64477500Y23037258D02*
X64477500Y22562742D01*
%TO.C,C13*%
X67865580Y22165000D02*
X67584420Y22165000D01*
X67865580Y23185000D02*
X67584420Y23185000D01*
%TO.C,C15*%
X39760000Y13540580D02*
X39760000Y13259420D01*
X38740000Y13540580D02*
X38740000Y13259420D01*
%TO.C,C16*%
X38210000Y13540580D02*
X38210000Y13259420D01*
X37190000Y13540580D02*
X37190000Y13259420D01*
%TO.C,C1*%
X52460000Y17140580D02*
X52460000Y16859420D01*
X51440000Y17140580D02*
X51440000Y16859420D01*
D10*
%TO.C,U7*%
X28302820Y2093125D02*
X28552820Y2093125D01*
X25302820Y2193125D02*
X25302820Y4193125D01*
X28802820Y4193125D02*
X28802820Y2693125D01*
D12*
%TO.C,J2*%
X56335000Y4285000D02*
X56335000Y5585000D01*
X56335000Y5585000D02*
X55285000Y5585000D01*
X55285000Y5585000D02*
X55285000Y6425000D01*
X55165000Y2365000D02*
X54585000Y2365000D01*
X54585000Y895000D02*
X49865000Y895000D01*
X54585000Y2365000D02*
X54585000Y895000D01*
X49865000Y895000D02*
X49865000Y2365000D01*
X49865000Y2365000D02*
X49285000Y2365000D01*
X48115000Y4285000D02*
X48115000Y5585000D01*
X48115000Y5585000D02*
X49165000Y5585000D01*
%TO.C,C3*%
X48290000Y16859420D02*
X48290000Y17140580D01*
X49310000Y16859420D02*
X49310000Y17140580D01*
%TO.C,C9*%
X75134420Y27785000D02*
X75415580Y27785000D01*
X75134420Y26765000D02*
X75415580Y26765000D01*
%TO.C,C6*%
X32290000Y16859420D02*
X32290000Y17140580D01*
X33310000Y16859420D02*
X33310000Y17140580D01*
%TO.C,R19*%
X36987742Y11347500D02*
X37462258Y11347500D01*
X36987742Y10302500D02*
X37462258Y10302500D01*
%TO.C,U4*%
X31975000Y11797500D02*
X30175000Y11797500D01*
X31975000Y11797500D02*
X32775000Y11797500D01*
X31975000Y8677500D02*
X31175000Y8677500D01*
X31975000Y8677500D02*
X32775000Y8677500D01*
%TO.C,C4*%
X45990000Y16859420D02*
X45990000Y17140580D01*
X47010000Y16859420D02*
X47010000Y17140580D01*
%TO.C,R1*%
X36522500Y17237258D02*
X36522500Y16762742D01*
X35477500Y17237258D02*
X35477500Y16762742D01*
%TO.C,Y1*%
X66225000Y25575000D02*
X66225000Y23775000D01*
X67625000Y25625000D02*
X68725000Y25625000D01*
X67625000Y23725000D02*
X68725000Y23725000D01*
%TO.C,C5*%
X33940000Y16859420D02*
X33940000Y17140580D01*
X34960000Y16859420D02*
X34960000Y17140580D01*
%TO.C,R12*%
X56787742Y8197500D02*
X57262258Y8197500D01*
X56787742Y7152500D02*
X57262258Y7152500D01*
%TO.C,R20*%
X40237742Y11247500D02*
X40712258Y11247500D01*
X40237742Y10202500D02*
X40712258Y10202500D01*
%TO.C,R11*%
X56885000Y12387258D02*
X56885000Y11912742D01*
X55840000Y12387258D02*
X55840000Y11912742D01*
%TO.C,Q3*%
X32100000Y5240000D02*
X33775000Y5240000D01*
X32100000Y5240000D02*
X31450000Y5240000D01*
X32100000Y8360000D02*
X32750000Y8360000D01*
X32100000Y8360000D02*
X31450000Y8360000D01*
%TO.C,C19*%
X34340000Y10021920D02*
X34340000Y10303080D01*
X35360000Y10021920D02*
X35360000Y10303080D01*
%TO.C,R15*%
X12237500Y3815242D02*
X12237500Y4289758D01*
X13282500Y3815242D02*
X13282500Y4289758D01*
%TO.C,R4*%
X62977500Y22562742D02*
X62977500Y23037258D01*
X64022500Y22562742D02*
X64022500Y23037258D01*
%TO.C,C20*%
X51495000Y12261252D02*
X51495000Y11738748D01*
X50025000Y12261252D02*
X50025000Y11738748D01*
D10*
%TO.C,M1*%
X50550000Y53062500D02*
X53550000Y53062500D01*
X50550000Y52812500D02*
X50550000Y53062500D01*
X50550000Y31012500D02*
X50550000Y34012500D01*
X50550000Y31012500D02*
X53550000Y31012500D01*
X78550000Y53062500D02*
X81550000Y53062500D01*
X81550000Y53062500D02*
X81550000Y50062500D01*
X81550000Y31012500D02*
X81300000Y31012500D01*
X81550000Y31012500D02*
X81550000Y34012500D01*
D12*
%TO.C,R3*%
X74062258Y23652500D02*
X73587742Y23652500D01*
X74062258Y24697500D02*
X73587742Y24697500D01*
%TO.C,R18*%
X27467258Y4547500D02*
X26992742Y4547500D01*
X27467258Y5592500D02*
X26992742Y5592500D01*
%TO.C,C12*%
X68534420Y27185000D02*
X68815580Y27185000D01*
X68534420Y26165000D02*
X68815580Y26165000D01*
%TO.C,C18*%
X53585000Y12261252D02*
X53585000Y11738748D01*
X52115000Y12261252D02*
X52115000Y11738748D01*
%TO.C,R13*%
X57377500Y9662742D02*
X57377500Y10137258D01*
X58422500Y9662742D02*
X58422500Y10137258D01*
%TO.C,J1*%
X36080000Y3695000D02*
X36080000Y5495000D01*
X36080000Y1595000D02*
X36080000Y445000D01*
X45420000Y3695000D02*
X45420000Y5495000D01*
X45420000Y1595000D02*
X45420000Y445000D01*
%TO.C,U5*%
X15585000Y4736875D02*
X13785000Y4736875D01*
X15585000Y4736875D02*
X16385000Y4736875D01*
X15585000Y1616875D02*
X14785000Y1616875D01*
X15585000Y1616875D02*
X16385000Y1616875D01*
%TO.C,D1*%
X32100000Y4960000D02*
X30425000Y4960000D01*
X32100000Y4960000D02*
X32750000Y4960000D01*
X32100000Y1840000D02*
X31450000Y1840000D01*
X32100000Y1840000D02*
X32750000Y1840000D01*
%TD*%
%LPC*%
D13*
%TO.C,R14*%
X34925000Y12687500D03*
X33275000Y12687500D03*
%TD*%
D14*
%TO.C,U6*%
X8797500Y4126875D03*
X8797500Y3176875D03*
X8797500Y2226875D03*
X11072500Y2226875D03*
X11072500Y3176875D03*
X11072500Y4126875D03*
%TD*%
D15*
%TO.C,C7*%
X76125000Y23925000D03*
X78025000Y23925000D03*
%TD*%
D16*
%TO.C,R6*%
X20140000Y4067500D03*
X20140000Y2417500D03*
%TD*%
D17*
%TO.C,C22*%
X23410000Y4015000D03*
X23410000Y2465000D03*
%TD*%
D13*
%TO.C,R2*%
X76100000Y25725000D03*
X74450000Y25725000D03*
%TD*%
D18*
%TO.C,U3*%
X43450000Y12300000D03*
X43450000Y13250000D03*
X43450000Y14200000D03*
X41175000Y14200000D03*
X41175000Y12300000D03*
%TD*%
D13*
%TO.C,R8*%
X45475000Y9900000D03*
X43825000Y9900000D03*
%TD*%
D19*
%TO.C,R7*%
X46812500Y8445000D03*
X48462500Y8445000D03*
%TD*%
D20*
%TO.C,C14*%
X18385000Y2601875D03*
X18385000Y4151875D03*
%TD*%
D17*
%TO.C,C21*%
X21950000Y4015000D03*
X21950000Y2465000D03*
%TD*%
D21*
%TO.C,C8*%
X76150000Y22125000D03*
X77700000Y22125000D03*
%TD*%
D17*
%TO.C,C2*%
X50300000Y17775000D03*
X50300000Y16225000D03*
%TD*%
D22*
%TO.C,C17*%
X48412500Y9920000D03*
X46862500Y9920000D03*
%TD*%
D16*
%TO.C,R9*%
X54887500Y12975000D03*
X54887500Y11325000D03*
%TD*%
D23*
%TO.C,U2*%
X77435000Y20150000D03*
X76165000Y20150000D03*
X74895000Y20150000D03*
X73625000Y20150000D03*
X72355000Y20150000D03*
X71085000Y20150000D03*
X69815000Y20150000D03*
X68545000Y20150000D03*
X67275000Y20150000D03*
X66005000Y20150000D03*
X64735000Y20150000D03*
X63465000Y20150000D03*
X62195000Y20150000D03*
X60925000Y20150000D03*
D24*
X59675000Y18385000D03*
X59675000Y17115000D03*
X59675000Y15845000D03*
X59675000Y14575000D03*
X59675000Y13305000D03*
X59675000Y12035000D03*
X59675000Y10765000D03*
X59675000Y9495000D03*
X59675000Y8225000D03*
X59675000Y6955000D03*
X59675000Y5685000D03*
X59675000Y4415000D03*
D25*
X60925000Y2650000D03*
X62195000Y2650000D03*
X63465000Y2650000D03*
X64735000Y2650000D03*
X66005000Y2650000D03*
X67275000Y2650000D03*
X68545000Y2650000D03*
X69815000Y2650000D03*
X71085000Y2650000D03*
X72355000Y2650000D03*
X73625000Y2650000D03*
X74895000Y2650000D03*
X76165000Y2650000D03*
X77435000Y2650000D03*
D26*
X71115000Y15400000D03*
X69715000Y15400000D03*
X68315000Y15400000D03*
X71115000Y14000000D03*
X69715000Y14000000D03*
X68315000Y14000000D03*
X71115000Y12600000D03*
X69715000Y12600000D03*
X68315000Y12600000D03*
%TD*%
D27*
%TO.C,U1*%
X52650000Y20650000D03*
X51950000Y20650000D03*
X51250000Y20650000D03*
X50550000Y20650000D03*
X49850000Y20650000D03*
X49150000Y20650000D03*
X48450000Y20650000D03*
X47750000Y20650000D03*
X47050000Y20650000D03*
X46350000Y20650000D03*
X45650000Y20650000D03*
X44950000Y20650000D03*
X44250000Y20650000D03*
X43550000Y20650000D03*
X42850000Y20650000D03*
X42150000Y20650000D03*
X41450000Y20650000D03*
X40750000Y20650000D03*
X40050000Y20650000D03*
X39350000Y20650000D03*
X38650000Y20650000D03*
X37950000Y20650000D03*
X37250000Y20650000D03*
X36550000Y20650000D03*
X35850000Y20650000D03*
X35150000Y20650000D03*
X34450000Y20650000D03*
X33750000Y20650000D03*
X33050000Y20650000D03*
X32350000Y20650000D03*
%TD*%
D16*
%TO.C,R5*%
X65000000Y23625000D03*
X65000000Y21975000D03*
%TD*%
D22*
%TO.C,C13*%
X68500000Y22675000D03*
X66950000Y22675000D03*
%TD*%
D17*
%TO.C,C15*%
X39250000Y14175000D03*
X39250000Y12625000D03*
%TD*%
%TO.C,C16*%
X37700000Y14175000D03*
X37700000Y12625000D03*
%TD*%
%TO.C,C1*%
X51950000Y17775000D03*
X51950000Y16225000D03*
%TD*%
D28*
%TO.C,U7*%
X28277820Y2393125D03*
X28277820Y2793125D03*
X28277820Y3193125D03*
X28277820Y3593125D03*
X28277820Y3993125D03*
X25827820Y3993125D03*
X25827820Y3593125D03*
X25827820Y3193125D03*
X25827820Y2793125D03*
X25827820Y2393125D03*
D29*
X27052820Y3193125D03*
%TD*%
D30*
%TO.C,J2*%
X54725000Y5650000D03*
X53725000Y5650000D03*
X52725000Y5650000D03*
X51725000Y5650000D03*
X50725000Y5650000D03*
X49725000Y5650000D03*
D31*
X56025000Y3125000D03*
X48425000Y3125000D03*
%TD*%
D20*
%TO.C,C3*%
X48800000Y16225000D03*
X48800000Y17775000D03*
%TD*%
D21*
%TO.C,C9*%
X74500000Y27275000D03*
X76050000Y27275000D03*
%TD*%
D32*
%TO.C,BT1*%
X24800000Y7800000D03*
X8800000Y7800000D03*
%TD*%
D20*
%TO.C,C6*%
X32800000Y16225000D03*
X32800000Y17775000D03*
%TD*%
D19*
%TO.C,R19*%
X36400000Y10825000D03*
X38050000Y10825000D03*
%TD*%
D14*
%TO.C,U4*%
X30837500Y11187500D03*
X30837500Y10237500D03*
X30837500Y9287500D03*
X33112500Y9287500D03*
X33112500Y11187500D03*
%TD*%
D20*
%TO.C,C4*%
X46500000Y16225000D03*
X46500000Y17775000D03*
%TD*%
D16*
%TO.C,R1*%
X36000000Y17825000D03*
X36000000Y16175000D03*
%TD*%
D33*
%TO.C,Y1*%
X66925000Y24675000D03*
X69425000Y24675000D03*
%TD*%
D20*
%TO.C,C5*%
X34450000Y16225000D03*
X34450000Y17775000D03*
%TD*%
D34*
%TO.C,L1*%
X48700000Y12900000D03*
X45800000Y12900000D03*
%TD*%
D19*
%TO.C,R12*%
X56200000Y7675000D03*
X57850000Y7675000D03*
%TD*%
%TO.C,R20*%
X39650000Y10725000D03*
X41300000Y10725000D03*
%TD*%
D16*
%TO.C,R11*%
X56362500Y12975000D03*
X56362500Y11325000D03*
%TD*%
D35*
%TO.C,Q3*%
X33037500Y5850000D03*
X33037500Y7750000D03*
X31162500Y6800000D03*
%TD*%
D20*
%TO.C,C19*%
X34850000Y9387500D03*
X34850000Y10937500D03*
%TD*%
D36*
%TO.C,R15*%
X12760000Y3227500D03*
X12760000Y4877500D03*
%TD*%
%TO.C,R4*%
X63500000Y21975000D03*
X63500000Y23625000D03*
%TD*%
D37*
%TO.C,C20*%
X50760000Y12950000D03*
X50760000Y11050000D03*
%TD*%
D38*
%TO.C,M1*%
X51000000Y51762500D03*
X51000000Y50062500D03*
X51000000Y48362500D03*
D39*
X64950000Y31862500D03*
X66650000Y31862500D03*
X70050000Y31862500D03*
X71750000Y31862500D03*
X73450000Y31862500D03*
X75150000Y31862500D03*
X76850000Y31862500D03*
X78550000Y31862500D03*
X80250000Y31862500D03*
D38*
X80800000Y42362500D03*
X80800000Y44062500D03*
X80800000Y45762500D03*
%TD*%
D13*
%TO.C,R3*%
X74650000Y24175000D03*
X73000000Y24175000D03*
%TD*%
%TO.C,R18*%
X28055000Y5070000D03*
X26405000Y5070000D03*
%TD*%
D21*
%TO.C,C12*%
X67900000Y26675000D03*
X69450000Y26675000D03*
%TD*%
D37*
%TO.C,C18*%
X52850000Y12950000D03*
X52850000Y11050000D03*
%TD*%
D36*
%TO.C,R13*%
X57900000Y9075000D03*
X57900000Y10725000D03*
%TD*%
D40*
%TO.C,J1*%
X37860000Y6300000D03*
X43640000Y6300000D03*
D41*
X37550000Y7422500D03*
D42*
X38350000Y7375000D03*
D43*
X39500000Y7375000D03*
X40500000Y7375000D03*
X41000000Y7375000D03*
X42000000Y7375000D03*
D42*
X43150000Y7375000D03*
D41*
X43950000Y7422500D03*
X43950000Y7422500D03*
D42*
X43150000Y7375000D03*
D43*
X42500000Y7375000D03*
X41500000Y7375000D03*
X40000000Y7375000D03*
X39000000Y7375000D03*
D42*
X38350000Y7375000D03*
D41*
X37550000Y7422500D03*
D44*
X36430000Y6800000D03*
D45*
X36430000Y2620000D03*
D44*
X45070000Y6800000D03*
D45*
X45070000Y2620000D03*
%TD*%
D14*
%TO.C,U5*%
X14447500Y4126875D03*
X14447500Y3176875D03*
X14447500Y2226875D03*
X16722500Y2226875D03*
X16722500Y3176875D03*
X16722500Y4126875D03*
%TD*%
D46*
%TO.C,D1*%
X31162500Y4350000D03*
X31162500Y2450000D03*
X33037500Y3400000D03*
%TD*%
%LPD*%
M02*
