%TF.GenerationSoftware,KiCad,Pcbnew,7.0.10*%
%TF.CreationDate,2024-02-06T18:38:26-08:00*%
%TF.ProjectId,main_board,6d61696e-5f62-46f6-9172-642e6b696361,rev?*%
%TF.SameCoordinates,Original*%
%TF.FileFunction,Soldermask,Top*%
%TF.FilePolarity,Negative*%
%FSLAX46Y46*%
G04 Gerber Fmt 4.6, Leading zero omitted, Abs format (unit mm)*
G04 Created by KiCad (PCBNEW 7.0.10) date 2024-02-06 18:38:26*
%MOMM*%
%LPD*%
G01*
G04 APERTURE LIST*
G04 Aperture macros list*
%AMRoundRect*
0 Rectangle with rounded corners*
0 $1 Rounding radius*
0 $2 $3 $4 $5 $6 $7 $8 $9 X,Y pos of 4 corners*
0 Add a 4 corners polygon primitive as box body*
4,1,4,$2,$3,$4,$5,$6,$7,$8,$9,$2,$3,0*
0 Add four circle primitives for the rounded corners*
1,1,$1+$1,$2,$3*
1,1,$1+$1,$4,$5*
1,1,$1+$1,$6,$7*
1,1,$1+$1,$8,$9*
0 Add four rect primitives between the rounded corners*
20,1,$1+$1,$2,$3,$4,$5,0*
20,1,$1+$1,$4,$5,$6,$7,0*
20,1,$1+$1,$6,$7,$8,$9,0*
20,1,$1+$1,$8,$9,$2,$3,0*%
G04 Aperture macros list end*
%ADD10RoundRect,0.200000X0.200000X0.275000X-0.200000X0.275000X-0.200000X-0.275000X0.200000X-0.275000X0*%
%ADD11RoundRect,0.150000X-0.512500X-0.150000X0.512500X-0.150000X0.512500X0.150000X-0.512500X0.150000X0*%
%ADD12RoundRect,0.250000X-0.250000X-0.475000X0.250000X-0.475000X0.250000X0.475000X-0.250000X0.475000X0*%
%ADD13RoundRect,0.200000X-0.275000X0.200000X-0.275000X-0.200000X0.275000X-0.200000X0.275000X0.200000X0*%
%ADD14RoundRect,0.225000X-0.250000X0.225000X-0.250000X-0.225000X0.250000X-0.225000X0.250000X0.225000X0*%
%ADD15RoundRect,0.150000X0.512500X0.150000X-0.512500X0.150000X-0.512500X-0.150000X0.512500X-0.150000X0*%
%ADD16RoundRect,0.200000X-0.200000X-0.275000X0.200000X-0.275000X0.200000X0.275000X-0.200000X0.275000X0*%
%ADD17RoundRect,0.225000X0.250000X-0.225000X0.250000X0.225000X-0.250000X0.225000X-0.250000X-0.225000X0*%
%ADD18RoundRect,0.225000X-0.225000X-0.250000X0.225000X-0.250000X0.225000X0.250000X-0.225000X0.250000X0*%
%ADD19RoundRect,0.225000X0.225000X0.250000X-0.225000X0.250000X-0.225000X-0.250000X0.225000X-0.250000X0*%
%ADD20RoundRect,0.225000X-0.225000X0.525000X-0.225000X-0.525000X0.225000X-0.525000X0.225000X0.525000X0*%
%ADD21RoundRect,0.225000X-0.525000X-0.225000X0.525000X-0.225000X0.525000X0.225000X-0.525000X0.225000X0*%
%ADD22RoundRect,0.225000X0.225000X-0.525000X0.225000X0.525000X-0.225000X0.525000X-0.225000X-0.525000X0*%
%ADD23RoundRect,0.225000X0.225000X-0.225000X0.225000X0.225000X-0.225000X0.225000X-0.225000X-0.225000X0*%
%ADD24R,0.400000X3.500000*%
%ADD25R,0.650000X0.200000*%
%ADD26R,1.300000X1.400000*%
%ADD27RoundRect,0.150000X0.150000X0.625000X-0.150000X0.625000X-0.150000X-0.625000X0.150000X-0.625000X0*%
%ADD28RoundRect,0.250000X0.350000X0.650000X-0.350000X0.650000X-0.350000X-0.650000X0.350000X-0.650000X0*%
%ADD29RoundRect,0.750000X2.750000X0.750000X-2.750000X0.750000X-2.750000X-0.750000X2.750000X-0.750000X0*%
%ADD30R,1.000000X1.800000*%
%ADD31R,1.300000X3.700000*%
%ADD32RoundRect,0.150000X0.587500X0.150000X-0.587500X0.150000X-0.587500X-0.150000X0.587500X-0.150000X0*%
%ADD33RoundRect,0.200000X0.275000X-0.200000X0.275000X0.200000X-0.275000X0.200000X-0.275000X-0.200000X0*%
%ADD34RoundRect,0.250000X-0.475000X0.250000X-0.475000X-0.250000X0.475000X-0.250000X0.475000X0.250000X0*%
%ADD35RoundRect,0.325000X-1.475000X-0.325000X1.475000X-0.325000X1.475000X0.325000X-1.475000X0.325000X0*%
%ADD36RoundRect,0.325000X0.325000X-1.475000X0.325000X1.475000X-0.325000X1.475000X-0.325000X-1.475000X0*%
%ADD37C,0.650000*%
%ADD38R,0.600000X1.055000*%
%ADD39R,0.600000X1.150000*%
%ADD40R,0.300000X1.150000*%
%ADD41O,1.000000X2.100000*%
%ADD42O,1.000000X1.800000*%
%ADD43RoundRect,0.150000X-0.587500X-0.150000X0.587500X-0.150000X0.587500X0.150000X-0.587500X0.150000X0*%
G04 APERTURE END LIST*
D10*
%TO.C,R14*%
X34925000Y12687500D03*
X33275000Y12687500D03*
%TD*%
D11*
%TO.C,U6*%
X8797500Y4126875D03*
X8797500Y3176875D03*
X8797500Y2226875D03*
X11072500Y2226875D03*
X11072500Y3176875D03*
X11072500Y4126875D03*
%TD*%
D12*
%TO.C,C7*%
X76125000Y23925000D03*
X78025000Y23925000D03*
%TD*%
D13*
%TO.C,R6*%
X20140000Y4067500D03*
X20140000Y2417500D03*
%TD*%
D14*
%TO.C,C22*%
X23410000Y4015000D03*
X23410000Y2465000D03*
%TD*%
D10*
%TO.C,R2*%
X76100000Y25725000D03*
X74450000Y25725000D03*
%TD*%
D15*
%TO.C,U3*%
X43450000Y12300000D03*
X43450000Y13250000D03*
X43450000Y14200000D03*
X41175000Y14200000D03*
X41175000Y12300000D03*
%TD*%
D10*
%TO.C,R8*%
X45475000Y9900000D03*
X43825000Y9900000D03*
%TD*%
D16*
%TO.C,R7*%
X46812500Y8445000D03*
X48462500Y8445000D03*
%TD*%
D17*
%TO.C,C14*%
X18385000Y2601875D03*
X18385000Y4151875D03*
%TD*%
D14*
%TO.C,C21*%
X21950000Y4015000D03*
X21950000Y2465000D03*
%TD*%
D18*
%TO.C,C8*%
X76150000Y22125000D03*
X77700000Y22125000D03*
%TD*%
D14*
%TO.C,C2*%
X50300000Y17775000D03*
X50300000Y16225000D03*
%TD*%
D19*
%TO.C,C17*%
X48412500Y9920000D03*
X46862500Y9920000D03*
%TD*%
D13*
%TO.C,R9*%
X54887500Y12975000D03*
X54887500Y11325000D03*
%TD*%
D20*
%TO.C,U2*%
X77435000Y20150000D03*
X76165000Y20150000D03*
X74895000Y20150000D03*
X73625000Y20150000D03*
X72355000Y20150000D03*
X71085000Y20150000D03*
X69815000Y20150000D03*
X68545000Y20150000D03*
X67275000Y20150000D03*
X66005000Y20150000D03*
X64735000Y20150000D03*
X63465000Y20150000D03*
X62195000Y20150000D03*
X60925000Y20150000D03*
D21*
X59675000Y18385000D03*
X59675000Y17115000D03*
X59675000Y15845000D03*
X59675000Y14575000D03*
X59675000Y13305000D03*
X59675000Y12035000D03*
X59675000Y10765000D03*
X59675000Y9495000D03*
X59675000Y8225000D03*
X59675000Y6955000D03*
X59675000Y5685000D03*
X59675000Y4415000D03*
D22*
X60925000Y2650000D03*
X62195000Y2650000D03*
X63465000Y2650000D03*
X64735000Y2650000D03*
X66005000Y2650000D03*
X67275000Y2650000D03*
X68545000Y2650000D03*
X69815000Y2650000D03*
X71085000Y2650000D03*
X72355000Y2650000D03*
X73625000Y2650000D03*
X74895000Y2650000D03*
X76165000Y2650000D03*
X77435000Y2650000D03*
D23*
X71115000Y15400000D03*
X69715000Y15400000D03*
X68315000Y15400000D03*
X71115000Y14000000D03*
X69715000Y14000000D03*
X68315000Y14000000D03*
X71115000Y12600000D03*
X69715000Y12600000D03*
X68315000Y12600000D03*
%TD*%
D24*
%TO.C,U1*%
X52650000Y20650000D03*
X51950000Y20650000D03*
X51250000Y20650000D03*
X50550000Y20650000D03*
X49850000Y20650000D03*
X49150000Y20650000D03*
X48450000Y20650000D03*
X47750000Y20650000D03*
X47050000Y20650000D03*
X46350000Y20650000D03*
X45650000Y20650000D03*
X44950000Y20650000D03*
X44250000Y20650000D03*
X43550000Y20650000D03*
X42850000Y20650000D03*
X42150000Y20650000D03*
X41450000Y20650000D03*
X40750000Y20650000D03*
X40050000Y20650000D03*
X39350000Y20650000D03*
X38650000Y20650000D03*
X37950000Y20650000D03*
X37250000Y20650000D03*
X36550000Y20650000D03*
X35850000Y20650000D03*
X35150000Y20650000D03*
X34450000Y20650000D03*
X33750000Y20650000D03*
X33050000Y20650000D03*
X32350000Y20650000D03*
%TD*%
D13*
%TO.C,R5*%
X65000000Y23625000D03*
X65000000Y21975000D03*
%TD*%
D19*
%TO.C,C13*%
X68500000Y22675000D03*
X66950000Y22675000D03*
%TD*%
D14*
%TO.C,C15*%
X39250000Y14175000D03*
X39250000Y12625000D03*
%TD*%
%TO.C,C16*%
X37700000Y14175000D03*
X37700000Y12625000D03*
%TD*%
%TO.C,C1*%
X51950000Y17775000D03*
X51950000Y16225000D03*
%TD*%
D25*
%TO.C,U7*%
X28277820Y2393125D03*
X28277820Y2793125D03*
X28277820Y3193125D03*
X28277820Y3593125D03*
X28277820Y3993125D03*
X25827820Y3993125D03*
X25827820Y3593125D03*
X25827820Y3193125D03*
X25827820Y2793125D03*
X25827820Y2393125D03*
D26*
X27052820Y3193125D03*
%TD*%
D27*
%TO.C,J2*%
X54725000Y5650000D03*
X53725000Y5650000D03*
X52725000Y5650000D03*
X51725000Y5650000D03*
X50725000Y5650000D03*
X49725000Y5650000D03*
D28*
X56025000Y3125000D03*
X48425000Y3125000D03*
%TD*%
D17*
%TO.C,C3*%
X48800000Y16225000D03*
X48800000Y17775000D03*
%TD*%
D18*
%TO.C,C9*%
X74500000Y27275000D03*
X76050000Y27275000D03*
%TD*%
D29*
%TO.C,BT1*%
X24800000Y7800000D03*
X8800000Y7800000D03*
%TD*%
D17*
%TO.C,C6*%
X32800000Y16225000D03*
X32800000Y17775000D03*
%TD*%
D16*
%TO.C,R19*%
X36400000Y10825000D03*
X38050000Y10825000D03*
%TD*%
D11*
%TO.C,U4*%
X30837500Y11187500D03*
X30837500Y10237500D03*
X30837500Y9287500D03*
X33112500Y9287500D03*
X33112500Y11187500D03*
%TD*%
D17*
%TO.C,C4*%
X46500000Y16225000D03*
X46500000Y17775000D03*
%TD*%
D13*
%TO.C,R1*%
X36000000Y17825000D03*
X36000000Y16175000D03*
%TD*%
D30*
%TO.C,Y1*%
X66925000Y24675000D03*
X69425000Y24675000D03*
%TD*%
D17*
%TO.C,C5*%
X34450000Y16225000D03*
X34450000Y17775000D03*
%TD*%
D31*
%TO.C,L1*%
X48700000Y12900000D03*
X45800000Y12900000D03*
%TD*%
D16*
%TO.C,R12*%
X56200000Y7675000D03*
X57850000Y7675000D03*
%TD*%
%TO.C,R20*%
X39650000Y10725000D03*
X41300000Y10725000D03*
%TD*%
D13*
%TO.C,R11*%
X56362500Y12975000D03*
X56362500Y11325000D03*
%TD*%
D32*
%TO.C,Q3*%
X33037500Y5850000D03*
X33037500Y7750000D03*
X31162500Y6800000D03*
%TD*%
D17*
%TO.C,C19*%
X34850000Y9387500D03*
X34850000Y10937500D03*
%TD*%
D33*
%TO.C,R15*%
X12760000Y3227500D03*
X12760000Y4877500D03*
%TD*%
%TO.C,R4*%
X63500000Y21975000D03*
X63500000Y23625000D03*
%TD*%
D34*
%TO.C,C20*%
X50760000Y12950000D03*
X50760000Y11050000D03*
%TD*%
D35*
%TO.C,M1*%
X51000000Y51762500D03*
X51000000Y50062500D03*
X51000000Y48362500D03*
D36*
X64950000Y31862500D03*
X66650000Y31862500D03*
X70050000Y31862500D03*
X71750000Y31862500D03*
X73450000Y31862500D03*
X75150000Y31862500D03*
X76850000Y31862500D03*
X78550000Y31862500D03*
X80250000Y31862500D03*
D35*
X80800000Y42362500D03*
X80800000Y44062500D03*
X80800000Y45762500D03*
%TD*%
D10*
%TO.C,R3*%
X74650000Y24175000D03*
X73000000Y24175000D03*
%TD*%
%TO.C,R18*%
X28055000Y5070000D03*
X26405000Y5070000D03*
%TD*%
D18*
%TO.C,C12*%
X67900000Y26675000D03*
X69450000Y26675000D03*
%TD*%
D34*
%TO.C,C18*%
X52850000Y12950000D03*
X52850000Y11050000D03*
%TD*%
D33*
%TO.C,R13*%
X57900000Y9075000D03*
X57900000Y10725000D03*
%TD*%
D37*
%TO.C,J1*%
X37860000Y6300000D03*
X43640000Y6300000D03*
D38*
X37550000Y7422500D03*
D39*
X38350000Y7375000D03*
D40*
X39500000Y7375000D03*
X40500000Y7375000D03*
X41000000Y7375000D03*
X42000000Y7375000D03*
D39*
X43150000Y7375000D03*
D38*
X43950000Y7422500D03*
X43950000Y7422500D03*
D39*
X43150000Y7375000D03*
D40*
X42500000Y7375000D03*
X41500000Y7375000D03*
X40000000Y7375000D03*
X39000000Y7375000D03*
D39*
X38350000Y7375000D03*
D38*
X37550000Y7422500D03*
D41*
X36430000Y6800000D03*
D42*
X36430000Y2620000D03*
D41*
X45070000Y6800000D03*
D42*
X45070000Y2620000D03*
%TD*%
D11*
%TO.C,U5*%
X14447500Y4126875D03*
X14447500Y3176875D03*
X14447500Y2226875D03*
X16722500Y2226875D03*
X16722500Y3176875D03*
X16722500Y4126875D03*
%TD*%
D43*
%TO.C,D1*%
X31162500Y4350000D03*
X31162500Y2450000D03*
X33037500Y3400000D03*
%TD*%
M02*
